<?xml version="1.0" encoding="UTF-8"?>
<svg version="1.1" xmlns="http://www.w3.org/2000/svg" width="938" height="938">
<path d="M0 0 C0.94289886 -0.0033284 1.88579773 -0.0066568 2.85726929 -0.01008606 C4.85601314 -0.01513989 6.85476539 -0.01749486 8.85351562 -0.01733398 C11.83999577 -0.01948908 14.82608668 -0.03757314 17.8125 -0.05664062 C33.84682989 -0.10488769 50.14645942 0.34212253 65.7734375 4.29296875 C66.63179199 4.50614746 67.49014648 4.71932617 68.37451172 4.93896484 C105.69156085 14.68244433 137.82108606 38.53336363 158.2734375 71.16796875 C158.89919678 72.16328613 158.89919678 72.16328613 159.53759766 73.17871094 C167.59192053 86.21598346 173.10520015 100.0291911 176.94750977 114.84423828 C177.20072022 115.8203966 177.45393068 116.79655491 177.71481419 117.80229378 C181.36763274 132.17152282 184.43375852 146.68056089 187.57980537 161.16705704 C189.53167813 170.15425754 191.50014942 179.1378335 193.46717298 188.12172771 C193.94521504 190.30526264 194.42310173 192.4888316 194.90083945 194.67243314 C201.06926034 222.86484343 207.32818033 251.03713272 213.59006166 279.20889378 C214.52910017 283.43356584 215.46791071 287.65828854 216.40668869 291.88301849 C219.75037842 306.93012501 223.09528332 321.9769611 226.44100504 337.02361593 C228.88208351 348.00190341 231.32233996 358.98037334 233.76196289 369.95898438 C233.92373473 370.68697763 234.08550657 371.41497088 234.25218058 372.16502453 C234.41376786 372.89218745 234.57535513 373.61935036 234.74183899 374.36854851 C237.77573473 388.02142878 240.81033264 401.6741529 243.84524675 415.32680682 C244.74502582 419.37454812 245.64469006 423.42231492 246.54423494 427.47010828 C246.97751323 429.4197406 247.4108404 431.36936205 247.84416789 433.31898344 C248.41000648 435.86497208 248.9757141 438.41098984 249.54128677 440.95703757 C250.89821338 447.06349768 252.25843199 453.16918575 253.62627506 459.27321053 C255.97988748 469.78575263 258.31505293 480.30006884 260.54059345 490.84058917 C261.50348345 495.39203719 262.48295115 499.93984093 263.46413791 504.48737502 C263.91548602 506.60192362 264.35868439 508.71823167 264.79288018 510.8363688 C267.29798386 523.0490197 269.58067492 532.47520617 278.6484375 541.54296875 C287.01399163 546.72164512 294.6158326 548.29095579 304.46310902 548.2966032 C305.15535805 548.29835624 305.84760709 548.30010928 306.56083336 548.30191544 C308.87364979 548.30655647 311.18640282 548.30411485 313.4992218 548.30168152 C315.17693053 548.30355044 316.85463882 548.30585147 318.53234643 548.30854684 C323.13767036 548.31466111 327.74297613 548.31453168 332.3483032 548.31335247 C337.31706419 548.31314837 342.28581936 548.31866809 347.25457764 548.32341003 C356.98730544 548.33171501 366.72002718 548.3344648 376.45275823 548.33502241 C384.36392962 548.33549763 392.27509901 548.33755264 400.18626976 548.34072304 C422.61663116 548.34952904 445.04698778 548.35414248 467.47735093 548.35339256 C468.68647307 548.35335261 469.89559521 548.35331265 471.14135742 548.35327148 C472.35195602 548.3532306 473.56255462 548.35318972 474.80983802 548.3531476 C494.43178664 548.3527411 514.05371608 548.36231179 533.67565916 548.37640985 C553.82405152 548.39077192 573.97243453 548.39768013 594.12083215 548.39681607 C605.43234739 548.39648406 616.74384253 548.39923329 628.05535316 548.40999413 C637.68561809 548.41909687 647.31585377 548.42127621 656.94612113 548.4144847 C661.85870051 548.41121843 666.77122379 548.41116675 671.68379784 548.41983795 C676.18368789 548.42769899 680.68347731 548.42627553 685.18336489 548.41755382 C686.80849151 548.41601797 688.43362562 548.41783819 690.05874339 548.4234139 C706.91861477 548.49633968 706.91861477 548.49633968 722.2734375 542.16796875 C722.80066406 541.63042969 723.32789063 541.09289062 723.87109375 540.5390625 C725.2734375 539.16796875 725.2734375 539.16796875 727.2734375 539.16796875 C727.56516846 538.58321777 727.85689941 537.9984668 728.1574707 537.39599609 C728.82752184 536.05823922 729.50079006 534.72207622 730.18041992 533.38916016 C749.02206385 496.24905484 761.96860935 455.85811339 776.33691406 416.85498047 C811.74589592 320.73992779 811.74589592 320.73992779 830.2734375 280.16796875 C831.45822151 277.55586167 832.63982347 274.94242278 833.81542969 272.32617188 C834.50578324 270.79108454 835.20121843 269.25826531 835.90332031 267.72851562 C839.8789758 258.92314332 840.39393765 250.86107669 837.375 241.69140625 C834.13219803 234.26285989 828.69702972 228.468816 821.2734375 225.16796875 C815.61040795 223.21790948 810.61089916 222.88502166 804.64745617 222.91742897 C803.21400317 222.91323246 803.21400317 222.91323246 801.75159153 222.90895116 C798.5427599 222.90198107 795.33411886 222.90925565 792.12528992 222.91641235 C789.8041119 222.91427412 787.48293455 222.91124894 785.16175872 222.90741193 C779.4472699 222.90020514 773.73283589 222.90222432 768.01834673 222.90804547 C761.17268153 222.91447106 754.32703826 222.909229 747.4813743 222.90339293 C734.84547128 222.89286579 722.20958162 222.89103566 709.57367516 222.89357376 C691.51962537 222.8969909 673.46560907 222.8836292 655.41156829 222.86679929 C648.16586027 222.86011856 640.92015175 222.85397969 633.67444324 222.84784508 C632.86945059 222.84716108 632.06445793 222.84647709 631.23507156 222.84577236 C612.07509222 222.82959512 592.9151108 222.81875918 573.75512695 222.80957031 C572.91681831 222.80916428 572.07850967 222.80875824 571.21479774 222.80833991 C551.65569069 222.7989119 532.0965848 222.79204583 512.53747559 222.78961182 C511.6962309 222.78950525 510.85498621 222.78939869 509.98824926 222.7892889 C505.74627644 222.78875573 501.50430362 222.78824098 497.26233081 222.78772752 C496.42395814 222.78762531 495.58558547 222.7875231 494.72180757 222.7874178 C493.02963139 222.78721224 491.3374552 222.78700968 489.64527902 222.78681013 C461.68767528 222.78342944 433.73010509 222.76651911 405.77251882 222.73470859 C401.82438276 222.73023526 397.87624652 222.7259454 393.92811012 222.72178268 C393.15109613 222.72096223 392.37408215 222.72014177 391.57352228 222.71929645 C379.06868274 222.70654786 366.56388672 222.70854317 354.0590449 222.71641713 C341.49208977 222.72409994 328.92520714 222.71769804 316.35826644 222.69677807 C309.55000233 222.68586501 302.74190654 222.68196983 295.93364143 222.69524956 C289.7016818 222.70728332 283.47002056 222.70097594 277.23808692 222.68005757 C274.98308857 222.6757484 272.72806506 222.67820614 270.47308429 222.68809874 C267.40734329 222.70057222 264.34263271 222.68840799 261.27694225 222.67019081 C260.40196684 222.67966622 259.52699142 222.68914162 258.6255016 222.69890416 C250.26412718 222.59879171 242.03427957 219.96451903 235.87890625 214.1015625 C229.43587641 206.34170904 227.37118736 198.64928439 227.8203125 188.65625 C228.44407147 183.8543814 229.64747659 180.22251845 232.2734375 176.16796875 C232.85738281 175.23404297 232.85738281 175.23404297 233.453125 174.28125 C237.58108658 168.65110122 243.5859178 165.00802434 250.2734375 163.16796875 C257.85139751 162.04522682 265.596317 162.36579224 273.23477173 162.41952515 C275.58344345 162.41404013 277.93211026 162.40593269 280.28076494 162.39543784 C286.04425636 162.37651323 291.80723233 162.38537054 297.57070644 162.40612225 C304.47928857 162.42942221 311.38770179 162.41771342 318.2962957 162.40498569 C331.83271861 162.38116301 345.36895489 162.39128104 358.90536746 162.41554224 C370.75519824 162.4366351 382.60496551 162.44569063 394.45481491 162.4429512 C395.24159545 162.44278314 396.028376 162.44261508 396.83899838 162.44244193 C400.03306027 162.44173739 403.22712214 162.44096936 406.421184 162.44011077 C436.37576968 162.43218336 466.33024319 162.45760112 496.28479677 162.4991639 C522.8713707 162.53588035 549.45783704 162.54753346 576.04443359 162.53662109 C577.75075434 162.53592822 579.45707509 162.53523603 581.16339584 162.53454451 C582.00698479 162.53420252 582.85057373 162.53386053 583.71972598 162.53350818 C587.96665214 162.53180097 592.21357832 162.53015341 596.46050453 162.52857018 C597.29843917 162.52825601 598.1363738 162.52794185 598.99970039 162.52761817 C621.23950717 162.5196278 643.47930366 162.53060355 665.71910417 162.54759276 C668.11393385 162.54940676 670.50876353 162.55121806 672.90359321 162.55302322 C674.49214172 162.55422545 676.08069021 162.55544269 677.66923869 162.55667504 C688.72174813 162.56510162 699.7742372 162.566281 710.82674881 162.56246405 C725.07832943 162.5575666 739.32980111 162.56581265 753.58135207 162.59688406 C760.44936032 162.61151472 767.31723197 162.62007452 774.18525314 162.61039734 C780.48097352 162.6022047 786.77638503 162.61268765 793.07205872 162.63764949 C795.34117706 162.64347304 797.61032483 162.64268709 799.87943538 162.63436334 C816.54720543 162.57880562 832.85485508 163.5790136 848.0234375 171.23046875 C849.19700806 171.80692139 849.19700806 171.80692139 850.39428711 172.39501953 C872.10659164 183.49394698 886.97682143 202.40412841 895.2734375 225.16796875 C903.00135587 250.70632398 899.57707679 274.51672349 888.2734375 298.16796875 C865.19192028 347.0599014 846.88313516 398.09863359 828.42242432 448.86776733 C786.47073531 564.19904935 786.47073531 564.19904935 769.2734375 580.16796875 C768.69722656 580.80992187 768.12101563 581.451875 767.52734375 582.11328125 C752.64349625 598.26324054 730.90689706 606.72080144 709.2734375 608.16796875 C703.61193544 608.31306486 697.95252659 608.30752042 692.28947449 608.30168152 C690.56594188 608.30355176 688.8424097 608.30585331 687.11887819 608.30854684 C682.40070694 608.31464482 677.68255347 608.31453361 672.96437919 608.31335247 C667.86882307 608.31314795 662.77327259 608.31867199 657.67771912 608.32341003 C647.70175587 608.3317059 637.72579853 608.33446438 627.74983212 608.33502241 C619.63948289 608.33549803 611.52913561 608.33755505 603.418787 608.34072304 C580.41263425 608.3495263 557.40648615 608.35414287 534.4003317 608.35339256 C533.16083698 608.35335261 531.92134227 608.35331265 530.64428711 608.35327148 C528.78276922 608.35321016 528.78276922 608.35321016 526.88364492 608.3531476 C506.76922464 608.35274111 486.65482308 608.36231235 466.54040822 608.37640985 C445.87549076 608.39077866 425.21058242 608.39767977 404.54565984 608.39681607 C392.94848897 608.39648431 381.35133773 608.3992227 369.75417137 608.40999413 C359.88105577 608.4191057 350.00796869 608.42126892 340.1348507 608.4144847 C335.10036327 608.41122299 330.06593057 608.4111503 325.03144836 608.41983795 C320.41679572 608.42771907 315.80224105 608.42625508 311.18759076 608.41755382 C309.52414269 608.4160224 307.86068725 608.41782141 306.19724789 608.4234139 C279.71839791 608.50649275 256.12027495 602.28899424 236.2734375 584.16796875 C235.18095703 583.17990234 235.18095703 583.17990234 234.06640625 582.171875 C226.71640532 575.18726609 221.60044536 567.14497312 217.0234375 558.16796875 C216.69408203 557.52794922 216.36472656 556.88792969 216.02539062 556.22851562 C211.69603841 547.45471594 209.66476301 537.94738957 207.55981445 528.44580078 C207.30475663 527.30830383 207.04969881 526.17080688 206.78691196 524.99884033 C205.94170771 521.22525477 205.10169238 517.45053426 204.26171875 513.67578125 C203.66070397 510.9853474 203.05861031 508.29515526 202.45657349 505.60494995 C201.00224554 499.1031454 199.5518294 492.6004743 198.10276031 486.09749591 C196.39884009 478.4515835 194.69077112 470.8065995 192.98270667 463.16161203 C185.32799724 428.89809091 177.69907411 394.62881261 170.08572388 360.3560791 C168.93534539 355.17759713 167.78428014 349.99926809 166.63301182 344.82098389 C165.42037761 339.36640593 164.20817696 333.91173167 162.99609375 328.45703125 C162.7476087 327.33885513 162.49912365 326.22067902 162.24310875 325.06861877 C158.52821669 308.3490337 154.82576189 291.62672584 151.12897313 274.90313005 C147.57276626 258.81608258 144.00903509 242.7307125 140.44011593 226.64648056 C138.13765116 216.26845388 135.8410942 205.88915523 133.55215842 195.50813615 C131.97381178 188.35236248 130.38832144 181.19819406 128.79754156 174.04517424 C127.87002262 169.87346651 126.9456356 165.7011294 126.02967644 161.52686691 C116.88525713 119.55279629 116.88525713 119.55279629 92.2734375 85.16796875 C91.24089844 84.13929687 91.24089844 84.13929687 90.1875 83.08984375 C69.17867682 63.41069292 43.27261657 60.7579215 15.8984375 60.60546875 C12.52520868 60.58154343 9.15222722 60.55328327 5.77914429 60.51368713 C3.69673306 60.48965316 1.61419188 60.47453345 -0.46835327 60.47007751 C-11.08767848 60.35644147 -19.79925595 58.82207279 -27.67578125 51.30859375 C-33.63617424 44.86087304 -36.3057648 38.61326277 -36.2265625 29.85546875 C-36.22011719 29.1092627 -36.21367188 28.36305664 -36.20703125 27.59423828 C-35.92361312 19.00032945 -33.13166827 13.13181328 -26.8515625 7.23046875 C-18.67891679 0.70156945 -10.13284357 0.01266104 0 0 Z " fill="#FFFFFF" transform="translate(35.7265625,24.83203125)"/>
<path d="M0 0 C26.37040913 23.01268623 40.08668234 52.53457027 42.62158203 87.18554688 C44.35745579 119.63694415 31.58616531 149.97079504 10.265625 173.9453125 C-10.48587781 196.51950796 -39.6732703 209.94753132 -70.18359375 211.29296875 C-85.82292829 211.7733407 -100.59555994 210.90325408 -115.546875 205.8828125 C-116.23475098 205.65819336 -116.92262695 205.43357422 -117.63134766 205.20214844 C-131.7438157 200.46234617 -144.33181573 192.58487895 -155.546875 182.8828125 C-156.73990234 181.90634766 -156.73990234 181.90634766 -157.95703125 180.91015625 C-182.03576151 160.49475104 -194.58550115 130.74126626 -197.39013672 99.80419922 C-199.63731678 72.25699198 -191.04542552 42.94558006 -174.546875 20.8828125 C-173.91007813 20.02429688 -173.27328125 19.16578125 -172.6171875 18.28125 C-152.90095288 -7.29442785 -124.62607315 -22.89052925 -92.8359375 -27.67578125 C-58.87051051 -31.64613229 -26.19624045 -21.77662933 0 0 Z M-121.08203125 49.125 C-133.18437748 61.45569238 -137.96963079 76.81181692 -137.84008789 93.71142578 C-137.4956194 110.66454971 -130.52721149 124.02836396 -118.546875 135.8828125 C-117.94488281 136.51832031 -117.34289062 137.15382813 -116.72265625 137.80859375 C-105.61417519 148.67610993 -90.37609176 152.27907515 -75.33935547 152.17944336 C-60.24062218 151.80657735 -45.55297091 145.77478629 -34.6015625 135.1953125 C-22.58509746 121.67107808 -15.79190532 105.68618189 -16.671875 87.3828125 C-18.44230988 70.49245672 -25.96745506 56.17450923 -38.546875 44.8828125 C-64.5250107 25.01507736 -96.91603075 27.7516806 -121.08203125 49.125 Z " fill="#FFFFFF" transform="translate(775.546875,694.1171875)"/>
<path d="M0 0 C5.97378495 5.06428136 10.81757485 10.83337006 15.5703125 17.0390625 C16.17746094 17.81894531 16.78460938 18.59882812 17.41015625 19.40234375 C36.41517296 45.04403296 43.31525128 78.65076964 38.80102539 109.99658203 C34.39401794 135.3013345 21.98611805 156.48390518 4.5703125 175.0390625 C4.05597656 175.62945313 3.54164063 176.21984375 3.01171875 176.828125 C-14.19738613 195.69109191 -43.31614566 207.39726503 -68.33227539 209.3425293 C-72.28439061 209.47458857 -76.22631882 209.51462885 -80.1796875 209.4765625 C-80.87556976 209.47285645 -81.57145203 209.46915039 -82.28842163 209.46533203 C-115.39791185 209.21535261 -144.50254993 195.67122392 -167.75439453 172.1315918 C-177.66377604 161.74437732 -184.49674241 150.03694403 -190.4296875 137.0390625 C-190.83960938 136.16894531 -191.24953125 135.29882812 -191.671875 134.40234375 C-203.37868758 107.67632588 -202.68792673 73.85666363 -192.22021484 46.94677734 C-179.66401645 16.64593292 -157.73956551 -7.77454636 -127.31665039 -20.640625 C-82.72631559 -38.80167824 -36.94053725 -29.8137455 0 0 Z M-122.1796875 46.5390625 C-122.9221875 47.3640625 -123.6646875 48.1890625 -124.4296875 49.0390625 C-124.96980469 49.5753125 -125.50992188 50.1115625 -126.06640625 50.6640625 C-135.96605452 60.9717223 -140.41363026 75.2912881 -140.8671875 89.3515625 C-140.46791433 106.32935193 -134.14429277 121.35087698 -122.2890625 133.34375 C-108.8229285 146.03723697 -93.82213186 150.7438571 -75.60546875 150.28125 C-58.71389172 149.51050264 -44.68509859 141.13192977 -33.4296875 129.0390625 C-22.32942057 115.93911513 -18.03113752 99.97899915 -19.4296875 83.0390625 C-20.91322247 73.24155029 -23.9567303 64.35476931 -29.4296875 56.0390625 C-29.91953125 55.27335938 -30.409375 54.50765625 -30.9140625 53.71875 C-39.44796068 41.59385506 -52.99873261 33.45160207 -67.3984375 30.3828125 C-88.27694825 26.84952606 -106.55428455 32.33415072 -122.1796875 46.5390625 Z " fill="#FFFFFF" transform="translate(445.4296875,695.9609375)"/>
</svg>
