<?xml version="1.0" encoding="UTF-8"?>
<svg version="1.1" xmlns="http://www.w3.org/2000/svg" width="938" height="938">
<path d="M0 0 C1.16676663 -0.00384115 2.33353326 -0.00768229 3.53565645 -0.01163983 C5.44448146 -0.01034011 5.44448146 -0.01034011 7.39186859 -0.00901413 C8.76475339 -0.01159965 10.13763744 -0.01461333 11.51052046 -0.01801753 C15.27806522 -0.0260691 19.04559091 -0.02787608 22.81314325 -0.028615 C26.8787884 -0.03046881 30.94442372 -0.03801789 35.01006317 -0.04475021 C43.8987928 -0.05832184 52.78751791 -0.06435667 61.67625618 -0.06876087 C67.23001577 -0.07152576 72.78377363 -0.07576361 78.33753204 -0.08026505 C93.7238911 -0.0924571 109.11024877 -0.10275594 124.49661255 -0.10614014 C125.48106211 -0.1063597 126.46551167 -0.10657927 127.47979304 -0.10680549 C128.95994444 -0.10713291 128.95994444 -0.10713291 130.46999788 -0.10746694 C132.46946748 -0.1079104 134.46893708 -0.10835696 136.46840668 -0.10880661 C137.46020666 -0.10902804 138.45200663 -0.10924947 139.47386116 -0.10947761 C155.53336103 -0.11342299 171.59281546 -0.13086936 187.65229779 -0.15416613 C204.15299823 -0.17790904 220.65367589 -0.19034336 237.15439367 -0.19150805 C246.41373768 -0.19242326 255.6730225 -0.19813645 264.93235016 -0.21632767 C272.81938444 -0.23176849 280.70634125 -0.23682577 288.59338778 -0.22858956 C292.61335123 -0.22469687 296.63315884 -0.22554462 300.65310287 -0.23964691 C304.34219628 -0.25246947 308.03101807 -0.25111598 311.72011155 -0.2390562 C313.66796254 -0.23620197 315.6158186 -0.24797143 317.56363153 -0.26047826 C338.95854384 -0.14176342 358.71907395 7.46316815 375.08461761 21.13142776 C375.73946136 21.64060745 376.39430511 22.14978714 377.06899261 22.67439651 C394.03282583 36.41510142 404.32865978 58.81522253 407.08461761 80.13142776 C407.36263943 85.64791763 407.34679666 91.15635344 407.32512665 96.67773819 C407.32600001 98.34127741 407.32775339 100.00481636 407.33030498 101.66835386 C407.33475686 106.21556776 407.32680467 110.76268667 407.31674886 115.30988848 C407.30808539 120.22248802 407.31103656 125.1350825 407.31255341 130.04768753 C407.31360043 138.55114567 407.30734294 147.05457305 407.29607773 155.55802345 C407.2798009 167.85247426 407.27461249 180.14691023 407.27210175 192.44137064 C407.26772807 212.38990397 407.25442785 232.33842091 407.23549652 252.28694534 C407.21712925 271.66129347 407.20297689 291.03563714 407.1944809 310.40999222 C407.19395545 311.60488749 407.19343 312.79978275 407.19288863 314.03088697 C407.1902785 320.02552254 407.18775109 326.02015813 407.18526483 332.01479375 C407.16454252 381.72034975 407.1293259 431.42588796 407.08461761 481.13142776 C408.0980851 481.25007187 408.0980851 481.25007187 409.13202667 481.37111282 C412.24580928 481.73882704 415.35854832 482.11476585 418.47133636 482.49080276 C419.53380585 482.61503616 420.59627533 482.73926956 421.69094086 482.86726761 C467.22250612 488.4158546 512.10626184 514.3077714 540.67055511 550.03767776 C541.46719574 551.05861526 542.26383636 552.07955276 543.08461761 553.13142776 C543.51677582 553.68185745 543.94893402 554.23228714 544.39418793 554.79939651 C552.08274324 564.66646822 558.36227505 575.01766746 564.08461761 586.13142776 C564.45216156 586.84057327 564.81970551 587.54971878 565.19838715 588.28035355 C587.87605175 632.57732324 589.65677195 685.09924702 575.08461761 732.13142776 C566.02751755 759.50541923 550.90502722 784.24401405 531.08461761 805.13142776 C529.7291684 806.56615433 529.7291684 806.56615433 528.34633636 808.02986526 C493.76535012 843.97688475 444.50697422 863.35892736 394.97011566 864.36336136 C383.18301763 864.45263014 371.17034013 863.74423526 359.63930511 861.19002151 C350.60285956 859.20621311 344.38988023 859.07003431 335.54946136 862.05330276 C327.50692649 864.55582771 319.3058611 864.27570474 310.96118927 864.26514053 C308.98833028 864.26853887 308.98833028 864.26853887 306.97561556 864.27200586 C303.33993489 864.27810182 299.70427728 864.27799286 296.06859267 864.27681148 C292.14134407 864.27660691 288.21410277 864.2821317 284.2868576 864.28686905 C276.59731511 864.29516466 268.90778029 864.29792342 261.2182337 864.29848143 C254.96378446 864.29895722 248.70933774 864.30101511 242.4548893 864.30418205 C224.70411647 864.31298657 206.95334969 864.31760188 189.20257466 864.31685158 C188.24623917 864.31681162 187.28990368 864.31677167 186.30458832 864.3167305 C185.34707842 864.31668962 184.38956851 864.31664874 183.40304316 864.31660662 C167.89724456 864.31620047 152.39147027 864.32576273 136.8856787 864.33986887 C120.94652636 864.35425423 105.00738587 864.36113782 89.06822687 864.36027509 C80.12691728 864.35994381 71.18563318 864.36266046 62.24432945 864.37345314 C54.62893838 864.38258672 47.01358433 864.38471011 39.39819013 864.37794372 C35.51786476 864.37469255 31.6376103 864.37457062 27.75729179 864.38329697 C24.19471885 864.39122579 20.63227231 864.38966636 17.06970222 864.38101283 C15.19228313 864.37877936 13.31485993 864.38625618 11.43745655 864.39425248 C-16.61395522 864.28208293 -39.78917059 855.77711177 -60.10288239 836.25642776 C-76.71972617 819.14704102 -85.08113713 797.06923047 -85.04960346 773.39914608 C-85.05195569 772.20363596 -85.05430792 771.00812584 -85.05673143 769.77638814 C-85.06224987 766.45131956 -85.06329378 763.12630378 -85.06245402 759.8012343 C-85.0626237 756.18613605 -85.06853186 752.57104641 -85.07369488 748.95595247 C-85.08301859 741.78268669 -85.08694255 734.60942708 -85.08921385 727.43615599 C-85.09217655 718.84496068 -85.10087441 710.25377355 -85.10962813 701.66258253 C-85.13047156 680.89578553 -85.14094246 660.12898712 -85.14975774 639.3621821 C-85.15396469 629.53677523 -85.15918664 619.71136897 -85.16444227 609.88596261 C-85.18233302 576.24910536 -85.19732851 542.61224792 -85.20476246 508.97538662 C-85.20523722 506.86365543 -85.2057131 504.75192425 -85.20619012 502.64019306 C-85.2064265 501.59296868 -85.20666287 500.5457443 -85.20690641 499.46678585 C-85.2081076 494.16107078 -85.20932306 488.85535572 -85.2105484 483.54964066 C-85.21078855 482.49670709 -85.2110287 481.44377353 -85.21127613 480.35893289 C-85.21916751 446.22706152 -85.24259574 412.09522492 -85.27510434 377.96336874 C-85.30941522 341.87331439 -85.3291148 305.78328039 -85.3324067 269.69320947 C-85.33282423 265.72993584 -85.3333038 261.76666222 -85.33382988 257.8033886 C-85.33401467 256.3395953 -85.33401467 256.3395953 -85.33420319 254.84623042 C-85.33653372 239.15245638 -85.35218555 223.45872276 -85.37267173 207.76496312 C-85.39294469 191.98390599 -85.39840007 176.20289734 -85.38890109 160.4218296 C-85.38369177 151.05160107 -85.38953671 141.68153409 -85.41143576 132.31132886 C-85.42497363 126.04391651 -85.42384056 119.77661499 -85.41103381 113.50920146 C-85.40415695 109.94349907 -85.40339882 106.37810488 -85.4205939 102.8124304 C-85.55939127 72.11090561 -79.66606999 47.52342612 -57.72006989 24.84627151 C-42.8010287 10.40513833 -20.98265924 0.02603131 0 0 Z M-32.91538239 43.13142776 C-33.83383942 43.78691605 -33.83383942 43.78691605 -34.77085114 44.45564651 C-47.0683252 53.8264906 -53.09056601 69.13166044 -55.48790072 83.87575349 C-56.13612814 88.81261394 -56.18760403 93.67705959 -56.16147804 98.64997101 C-56.16378573 99.74944142 -56.16609342 100.84891183 -56.16847104 101.98169953 C-56.1737462 105.6496113 -56.16480754 109.31734592 -56.15589142 112.98524857 C-56.15676399 115.64785636 -56.15843176 118.31045293 -56.16106975 120.97305846 C-56.16520303 126.75348214 -56.16195403 132.53386451 -56.15379333 138.31428337 C-56.14169263 146.90946461 -56.14112457 155.50461995 -56.14287731 164.09980815 C-56.14550155 178.56026893 -56.13883582 193.02071139 -56.1268425 207.48116684 C-56.11500117 221.79510717 -56.10730913 236.10903988 -56.10513687 250.42298508 C-56.10499939 251.31358118 -56.10486191 252.20417728 -56.10472027 253.12176115 C-56.10404358 257.64480252 -56.10344082 262.16784389 -56.10286652 266.69088528 C-56.0986677 298.7125752 -56.0851986 330.73425517 -56.06626129 362.75593948 C-56.04788727 393.86108217 -56.03372257 424.96622214 -56.02524567 456.07136917 C-56.02498261 457.03046881 -56.02471956 457.98956845 -56.02444854 458.97773171 C-56.02181146 468.6095624 -56.01925984 478.24139312 -56.01677082 487.87322385 C-56.01169864 507.49369545 -56.00605613 527.11416687 -56.00006866 546.73463821 C-55.99979408 547.63672011 -55.9995195 548.53880201 -55.9992366 549.46821972 C-55.99079183 577.11338287 -55.97993017 604.75854433 -55.96668243 632.4037056 C-55.96630732 633.18845409 -55.9659322 633.97320258 -55.96554572 634.78173133 C-55.95031643 666.56496425 -55.93252772 698.34819584 -55.91538239 730.13142776 C31.86461761 730.13142776 119.64461761 730.13142776 210.08461761 730.13142776 C208.10461761 721.71642776 208.10461761 721.71642776 206.08461761 713.13142776 C205.48647926 710.15921129 204.9134415 707.18144344 204.39711761 704.19392776 C204.28045746 703.54359573 204.1637973 702.8932637 204.04360199 702.22322464 C195.81986159 654.78571646 207.61736699 603.60504923 234.93618011 564.08455276 C267.10437319 519.86790919 311.78875464 491.77757521 366.08461761 483.13142776 C368.75485929 482.83488632 371.42092365 482.58010256 374.09951019 482.37312698 C376.15645582 482.23543841 376.15645582 482.23543841 378.08461761 481.13142776 C378.13041025 431.28683838 378.16564455 381.44225112 378.18674827 331.59764482 C378.18924964 325.71103793 378.19183829 319.82443108 378.1944809 313.93782425 C378.19500552 312.76592268 378.19553014 311.59402111 378.19607066 310.38660737 C378.20476972 291.41936139 378.22053696 272.45212755 378.23892321 253.48488877 C378.25763611 234.01810313 378.26873728 214.55132384 378.2727946 195.08452958 C378.27553677 183.07561595 378.28419314 171.06673664 378.30045055 159.05783357 C378.31103458 150.81929116 378.31421502 142.58076644 378.31162037 134.34221772 C378.3103413 129.59133356 378.31228157 124.84050932 378.32302856 120.08963585 C378.33280999 115.73364514 378.33322097 111.37775426 378.3264154 107.02175882 C378.32557512 105.4522223 378.32807055 103.88267938 378.33438398 102.31315533 C378.40562258 83.49746328 376.03395235 67.23080499 364.08461761 52.13142776 C363.58575043 51.44564651 363.08688324 50.75986526 362.57289886 50.05330276 C354.07184646 39.1753818 339.38196312 31.58724379 325.76046634 29.83192939 C318.50003567 29.14282755 311.3080894 28.98807996 304.01802826 28.997715 C302.74514474 28.99544944 301.47226121 28.99318388 300.16080546 28.99084967 C296.65731988 28.98477915 293.15385832 28.98485961 289.65036869 28.98604405 C285.86018831 28.98624926 282.0700154 28.98071785 278.27983856 28.97598648 C270.86543183 28.96770565 263.45103305 28.96493281 256.03662208 28.9643741 C250.00583345 28.96389775 243.97504744 28.96183709 237.94425964 28.95867348 C220.81992403 28.94987418 203.69559467 28.94525301 186.57125679 28.94600395 C185.64947445 28.94604391 184.72769212 28.94608386 183.77797699 28.94612503 C182.39360204 28.94618635 182.39360204 28.94618635 180.98125991 28.94624891 C166.02853967 28.94665525 151.07584462 28.93708681 136.12313166 28.92298666 C120.74437044 28.90859997 105.36562148 28.90171773 89.98685336 28.90258044 C81.36305091 28.9029116 72.73927488 28.90020004 64.11547852 28.88940239 C56.77281337 28.88026719 49.43018663 28.87814686 42.08751824 28.88491181 C38.34691443 28.88816174 34.60638418 28.88828942 30.86578751 28.87955856 C-3.05849459 28.42695704 -3.05849459 28.42695704 -32.91538239 43.13142776 Z M279.08461761 556.13142776 C278.40914886 556.73341995 277.73368011 557.33541214 277.03774261 557.95564651 C250.84785682 582.71132428 232.43351666 622.02354286 230.9234848 657.96687698 C230.34439886 682.74828328 230.34439886 682.74828328 234.08461761 707.13142776 C234.28861176 707.9570723 234.4926059 708.78271683 234.70278168 709.63338089 C240.34929759 732.10437727 249.73899558 752.83031383 264.08461761 771.13142776 C264.7587973 772.00927933 265.43297699 772.88713089 266.12758636 773.79158401 C292.39727327 807.04738074 331.39828624 828.61393215 373.46352386 833.62752151 C416.60643472 837.95785086 460.13618265 825.97725837 493.94301605 798.6280098 C498.07168879 795.21955395 502.10283284 791.70987349 506.08461761 788.13142776 C506.76008636 787.52943558 507.43555511 786.92744339 508.13149261 786.30720901 C518.11816063 776.86742996 526.09817123 764.89739305 533.08461761 753.13142776 C533.43121429 752.54812698 533.77781097 751.9648262 534.13491058 751.36384964 C547.9614152 727.69838096 554.30790189 701.08428978 554.33461761 673.81892776 C554.33562469 673.10689194 554.33663177 672.39485611 554.33766937 671.66124344 C554.32676943 660.25204435 553.64796967 649.27667459 551.08461761 638.13142776 C550.94008148 637.48012894 550.79554535 636.82883011 550.64662933 636.15779495 C544.60145562 609.55367499 531.92357469 585.66768419 514.08461761 565.13142776 C513.29313324 564.20588089 512.50164886 563.28033401 511.68618011 562.32674026 C505.99351268 555.84392341 499.91057609 550.39015372 493.08461761 545.13142776 C492.18356293 544.40310745 491.28250824 543.67478714 490.35414886 542.92439651 C465.61539129 523.44049228 432.65048678 511.0682213 401.08461761 510.13142776 C399.80715668 510.09146683 398.52969574 510.05150589 397.21352386 510.01033401 C352.02644655 509.07771826 312.30313867 526.27781147 279.08461761 556.13142776 Z M-55.91538239 759.13142776 C-55.93579994 761.65620909 -55.95059217 764.18082168 -55.96225739 766.70564651 C-55.96854156 767.41169022 -55.97482574 768.11773392 -55.98130035 768.84517288 C-56.04492001 787.26836526 -50.18062299 803.20990933 -37.51694489 816.67830276 C-23.39062616 829.99861532 -8.02636857 834.30145827 10.97388458 834.25168228 C12.76532665 834.25296392 12.76532665 834.25296392 14.59295946 834.25427145 C17.89502426 834.25563068 21.19702941 834.25251715 24.49908698 834.24749339 C28.06477773 834.24316599 31.63046672 834.24463694 35.19615936 834.24539566 C41.36969118 834.24591944 47.54321241 834.24278784 53.71674156 834.23715782 C62.64257533 834.22902312 71.56840399 834.22642558 80.49424107 834.22516983 C94.9765993 834.22298241 109.45895189 834.21633072 123.94130707 834.20686722 C138.00771303 834.19768509 152.07411746 834.19060817 166.14052582 834.18635941 C167.00790247 834.18609668 167.87527912 834.18583396 168.7689399 834.18556327 C173.12041019 834.18425822 177.47188048 834.18299451 181.82335079 834.18175137 C217.91044371 834.17138841 253.99753022 834.15377851 290.08461761 834.13142776 C286.48125929 831.23752914 282.83264666 828.41997433 279.14711761 825.63142776 C258.22272166 809.57806522 236.99162683 789.79612788 226.20222694 765.11274385 C225.04123663 762.74310604 223.95235559 761.00543307 222.08461761 759.13142776 C218.38310186 757.93967399 214.79053564 758.08507563 210.92938995 758.16939163 C209.78989027 758.16255623 208.65039059 758.15572083 207.47636062 758.1486783 C203.64904401 758.13547577 199.82451846 758.17953854 195.99745941 758.22322464 C193.25782236 758.22993341 190.51824026 758.22456814 187.7786026 758.2196846 C181.87594014 758.21549021 175.97398525 758.24058339 170.07150078 758.28558731 C161.5376334 758.35061204 153.00410806 758.3714395 144.4700198 758.38149124 C130.62415467 758.39899918 116.77866666 758.45223519 102.93300629 758.52791214 C89.48348121 758.60134746 76.03405857 758.65797314 62.58437347 758.69197464 C61.34076674 758.69512732 61.34076674 758.69512732 60.07203665 758.69834369 C55.91281866 758.70878401 51.75359994 758.71889367 47.59438074 758.72883892 C13.09085497 758.81176925 -21.41222304 758.95267101 -55.91538239 759.13142776 Z " fill="#FFFFFF" transform="translate(211.9153823852539,30.868572235107422)"/>
<path d="M0 0 C1.11920953 -0.00507454 2.23841907 -0.01014909 3.39154404 -0.0153774 C4.62634296 -0.01587516 5.86114189 -0.01637292 7.13335896 -0.01688576 C8.44109801 -0.02126801 9.74883707 -0.02565027 11.09620458 -0.03016531 C14.73388594 -0.04213578 18.37155404 -0.04778035 22.00925124 -0.05234647 C25.9296424 -0.05830075 29.85001768 -0.069911 33.77039814 -0.08063698 C43.24200905 -0.10516456 52.71362522 -0.11978844 62.18525812 -0.13269705 C64.8600727 -0.13640865 67.53488676 -0.1403819 70.20970082 -0.14444971 C86.81697272 -0.16968534 103.42424544 -0.19174026 120.03153229 -0.20417786 C123.87865101 -0.20710759 127.72576971 -0.21006925 131.57288837 -0.21308327 C132.52908073 -0.21382932 133.48527308 -0.21457537 134.47044096 -0.21534403 C149.96193249 -0.22799902 165.45330929 -0.26122387 180.94474717 -0.3028851 C196.84641605 -0.34529932 212.74802618 -0.36887228 228.64975148 -0.37409842 C237.57924303 -0.37751306 246.50855525 -0.38927454 255.43799114 -0.42220116 C263.04240315 -0.45019577 270.64659907 -0.46120361 278.2510586 -0.4500057 C282.13062873 -0.44481753 286.00974631 -0.44771546 289.88925076 -0.47247124 C294.0970738 -0.49909779 298.30390003 -0.48690894 302.51177692 -0.47098732 C303.73542224 -0.48486941 304.95906755 -0.49875149 306.21979302 -0.51305425 C313.12660005 -0.44856455 318.58082439 0.06991921 323.64002705 5.13701439 C326.94335332 10.52183127 327.0684897 15.46968406 327.02097797 21.59418297 C327.02565795 22.52698049 327.03033792 23.459778 327.03515971 24.42084211 C327.04709395 27.53609572 327.03765851 30.65090816 327.02821064 33.76616478 C327.032277 36.00374164 327.03761924 38.2413165 327.04414082 40.47888756 C327.05781165 46.54898038 327.05251684 52.61892015 327.04300356 58.68901563 C327.03540677 65.0416761 327.04245255 71.39432349 327.04716206 77.74698448 C327.05296864 89.09705015 327.04364839 100.44703813 327.02838404 111.79708826 C327.01497815 122.08368989 327.01731238 132.37018997 327.03114033 142.65678978 C327.04720176 154.61042956 327.0531675 166.56400767 327.04430354 178.51766199 C327.03962556 184.84243962 327.03900576 191.16714732 327.048913 197.49192047 C327.05757511 203.43698216 327.05157436 209.38185191 327.03423023 215.32689285 C327.03026156 217.50939045 327.03140591 219.69190418 327.03801823 221.87439537 C327.04620846 224.8520919 327.03594231 227.82917224 327.02097797 230.80682945 C327.02767014 231.67171378 327.0343623 232.5365981 327.04125726 233.42769104 C326.97727561 239.98549402 325.54910612 243.85641862 321.26624012 248.97275257 C316.47041224 252.63216774 310.36708469 251.8199213 304.62061787 251.76520348 C303.27914593 251.77025068 301.93768073 251.77748087 300.59623098 251.78670162 C296.91563216 251.80562672 293.23569796 251.7933893 289.55511594 251.77597868 C285.58366374 251.76260885 281.61230905 251.77804037 277.64086628 251.78980064 C269.86307823 251.80818453 262.08554131 251.79966 254.30776107 251.78171242 C247.9869035 251.76768958 241.66611413 251.76379294 235.3452425 251.76715469 C234.44579537 251.76763214 233.54634825 251.76810958 232.61964515 251.76860149 C230.79246372 251.76962781 228.96528231 251.77068317 227.13810092 251.77176725 C210.97935025 251.78033583 194.82072086 251.76365422 178.6619997 251.73393822 C162.98063277 251.70510044 147.29944057 251.69801707 131.61805439 251.7134304 C114.54409147 251.73018952 97.47021151 251.73422973 80.39624643 251.71672004 C78.57576816 251.71487565 76.75528988 251.71304092 74.93481159 251.71121597 C73.59122914 251.70984784 73.59122914 251.70984784 72.2205036 251.70845206 C65.90688509 251.70284487 59.59330706 251.70615556 53.27969074 251.71276093 C45.58598292 251.72049056 37.89244712 251.71375493 30.19877398 251.68858588 C26.2729365 251.67608217 22.34736696 251.66995474 18.42151928 251.68112755 C14.82772355 251.69116227 11.23446238 251.6827274 7.64073175 251.65954637 C5.72476267 251.65193752 3.80874671 251.66394779 1.89280462 251.67665011 C-4.45428253 251.61515963 -8.59844826 251.53517759 -13.35997295 247.13701439 C-17.52040079 241.39849324 -17.50617994 236.09856861 -17.49368572 229.19919395 C-17.49595128 228.28599949 -17.49821684 227.37280502 -17.50055104 226.43193799 C-17.50689247 223.36511149 -17.50606158 220.29832916 -17.50523663 217.23149681 C-17.50822804 215.03539536 -17.51163053 212.83929443 -17.51541424 210.6431942 C-17.52426057 204.6720743 -17.52659263 198.70096872 -17.52723002 192.7298429 C-17.52817883 187.74721732 -17.53185683 182.76459509 -17.53540212 177.7819708 C-17.54308368 166.69856714 -17.54607052 155.61516914 -17.54539677 144.53176316 C-17.54535681 143.86677683 -17.54531686 143.20179049 -17.54527569 142.51665306 C-17.54523481 141.85085353 -17.54519393 141.185054 -17.54515181 140.49907873 C-17.54474545 129.71141432 -17.55431244 118.92378484 -17.56841405 108.13613053 C-17.58278329 97.056197 -17.58950085 85.97627787 -17.58882028 74.89633447 C-17.58856518 68.67712391 -17.59142295 62.45795285 -17.60199833 56.23875046 C-17.6116736 50.38898143 -17.61176236 44.53928972 -17.6044817 38.68951797 C-17.60343513 36.54291483 -17.60580303 34.39630689 -17.61184216 32.24971199 C-17.61955477 29.31831214 -17.61492198 26.3871798 -17.60721111 23.45578575 C-17.61235468 22.6073317 -17.61749824 21.75887765 -17.62279767 20.88471287 C-17.59049702 15.32367518 -17.43054092 9.64165322 -13.7388792 5.17607689 C-13.13946514 4.70943626 -12.54005108 4.24279564 -11.92247295 3.76201439 C-11.02721905 3.03885033 -11.02721905 3.03885033 -10.1138792 2.30107689 C-6.77986161 0.08829906 -3.88275388 0.00933259 0 0 Z M12.64002705 30.13701439 C12.64002705 93.49701439 12.64002705 156.85701439 12.64002705 222.13701439 C106.36002705 222.13701439 200.08002705 222.13701439 296.64002705 222.13701439 C296.64002705 158.77701439 296.64002705 95.41701439 296.64002705 30.13701439 C202.92002705 30.13701439 109.20002705 30.13701439 12.64002705 30.13701439 Z " fill="#FFFFFF" transform="translate(222.3599729537964,206.8629856109619)"/>
<path d="M0 0 C2.83670059 2.37491212 4.1165014 3.92076168 5.6875 7.25 C5.89702713 9.94591571 5.97494431 12.38450509 5.875 15.0625 C5.85469727 16.10180664 5.85469727 16.10180664 5.83398438 17.16210938 C5.79888845 18.85841265 5.74508943 20.55431136 5.6875 22.25 C6.904375 22.435625 8.12125 22.62125 9.375 22.8125 C23.12806387 25.98130939 34.50207403 35.1308908 42.109375 46.8203125 C49.44835503 58.85448696 53.006137 71.0520728 51.6875 85.25 C50.21412691 89.29605047 47.32801286 92.01871792 43.6875 94.25 C38.96564921 95.82395026 35.15153281 95.82413051 30.5 94 C24.26918128 90.12304613 24.26918128 90.12304613 23.07397461 86.27441406 C22.40008959 83.03451581 21.87415302 79.77916725 21.35351562 76.51171875 C19.58187824 66.66235144 14.7529929 60.08625878 6.6875 54.25 C-1.1757205 49.96097064 -8.95085334 49.58278392 -17.60546875 51.3984375 C-26.50562289 54.19819739 -32.87273552 60.69577297 -37.1875 68.75 C-39.93108993 77.32995397 -39.53683029 86.68195262 -35.75 94.8125 C-31.67787975 101.9411058 -26.81247345 105.99580479 -19.3125 109.25 C-15.67955386 109.92896709 -15.67955386 109.92896709 -11.8125 110.25 C-10.38495992 110.4100396 -8.95787412 110.57417865 -7.53125 110.7421875 C-6.46583984 110.8673877 -6.46583984 110.8673877 -5.37890625 110.99511719 C12.07747443 113.1482908 27.01216637 119.9762576 38.6875 133.25 C50.21744621 148.64854658 53.64813232 165.79877833 51.26171875 184.60546875 C47.70092313 200.79288935 38.57324204 214.13846745 24.75 223.1875 C19.04098071 226.77054693 13.15551195 229.36239651 6.6875 231.25 C6.66171875 232.19101562 6.6359375 233.13203125 6.609375 234.1015625 C6.03775791 246.65115593 6.03775791 246.65115593 1.6875 251.25 C1.130625 251.848125 0.57375 252.44625 0 253.0625 C-5.0160691 255.63831927 -9.78488364 255.70077204 -15.125 254.125 C-19.06253778 251.80880131 -21.28032404 249.31435193 -23.3125 245.25 C-23.54279956 242.87876754 -23.72369942 240.50258057 -23.875 238.125 C-23.95878906 236.84367188 -24.04257812 235.56234375 -24.12890625 234.2421875 C-24.18949219 233.25476563 -24.25007812 232.26734375 -24.3125 231.25 C-25.49392578 230.86521484 -25.49392578 230.86521484 -26.69921875 230.47265625 C-43.61364835 224.52758454 -55.74160962 214.59043419 -63.64770508 198.3347168 C-68.1982011 188.49160847 -71.79098284 176.90130803 -68.69140625 166.08203125 C-66.66331527 161.85458828 -63.63156575 159.64223653 -59.4609375 157.84375 C-54.36473482 156.4353449 -50.57622104 157.58237379 -46 160 C-41.03266612 164.15869813 -39.90758948 168.28358631 -38.875 174.5625 C-37.81635163 180.43092421 -36.43455398 185.1411844 -33.3125 190.25 C-32.796875 191.11625 -32.28125 191.9825 -31.75 192.875 C-25.79790791 198.67447434 -17.99803255 202.33757917 -9.6875 202.5 C-1.09315097 202.36117792 6.01238102 200.02363702 12.640625 194.46484375 C17.78807805 188.8949852 21.49115127 181.24555764 21.8515625 173.59375 C21.23777803 164.82540043 18.67022066 156.80373955 12.6875 150.25 C5.0580054 143.78785976 -2.77396522 142.14642581 -12.5 141.375 C-30.60489015 139.66748462 -44.01786056 132.48597806 -56.3203125 119.05859375 C-66.76649526 106.41916482 -70.6061151 90.44372797 -69.52392578 74.27294922 C-67.92127953 58.93862261 -61.01864949 46.99411456 -50.3125 36.25 C-49.77109375 35.68539062 -49.2296875 35.12078125 -48.671875 34.5390625 C-42.08860924 28.25503609 -32.31027759 23.30453405 -23.3125 22.25 C-23.35890625 21.23679687 -23.4053125 20.22359375 -23.453125 19.1796875 C-23.49066758 17.82815468 -23.52706506 16.47658972 -23.5625 15.125 C-23.61277344 14.12726562 -23.61277344 14.12726562 -23.6640625 13.109375 C-23.76495906 7.96365056 -22.58338758 5.17160993 -19.3125 1.25 C-13.04261923 -3.79488306 -6.87459231 -3.63186009 0 0 Z " fill="#FFFFFF" transform="translate(613.3125,576.75)"/>
<path d="M0 0 C1.88428711 -0.01728149 1.88428711 -0.01728149 3.80664062 -0.03491211 C5.14584987 -0.02700517 6.48504656 -0.01662476 7.82421875 -0.00390625 C8.83923462 0.00115433 8.83923462 0.00115433 9.87475586 0.00631714 C29.79276473 0.15082613 47.35698799 4.82470074 62.51171875 18.43359375 C63.74341797 19.52607422 63.74341797 19.52607422 65 20.640625 C80.06728179 34.79335251 88.09223217 54.15421901 88.91674805 74.67919922 C89.24416874 96.15110344 81.09364671 115.34574911 66.27734375 130.7578125 C50.08979302 146.33700757 29.72808425 152.48865838 7.69921875 152.74609375 C6.70809082 152.76389893 5.71696289 152.7817041 4.69580078 152.80004883 C-1.1487504 152.79363275 -5.35054584 152.29167173 -10.48828125 149.43359375 C-14.3534515 145.26327848 -15.61078909 142.78898753 -15.63545227 137.18426514 C-15.64260757 136.07110428 -15.64976288 134.95794342 -15.65713501 133.81105042 C-15.65982391 132.58401901 -15.66251282 131.35698761 -15.6652832 130.09277344 C-15.6718544 128.80489426 -15.6784256 127.51701508 -15.68519592 126.19010925 C-15.70261123 122.65068774 -15.71315944 119.11127973 -15.72140145 115.57182598 C-15.72655124 113.36030277 -15.73262703 111.14878374 -15.73891258 108.93726349 C-15.75796747 102.01745122 -15.7721971 95.09764962 -15.78052455 88.17781615 C-15.7902945 80.19113953 -15.81660617 72.20474025 -15.85702544 64.21816134 C-15.88719522 58.04482754 -15.90199429 51.87157318 -15.90530556 45.69816709 C-15.90765538 42.01128673 -15.91660614 38.32470255 -15.94176674 34.63790131 C-15.96939842 30.52242106 -15.96521374 26.40755931 -15.95825195 22.29199219 C-15.97106201 21.07305771 -15.98387207 19.85412323 -15.99707031 18.59825134 C-15.9579344 12.26081556 -15.85350949 8.20023422 -11.48828125 3.43359375 C-7.69160923 0.44109031 -4.77543788 0.04124102 0 0 Z M13.51171875 29.43359375 C13.51171875 60.12359375 13.51171875 90.81359375 13.51171875 122.43359375 C28.13712132 121.1040117 36.35009818 117.93268511 46.51171875 107.43359375 C47.28128906 106.66015625 47.28128906 106.66015625 48.06640625 105.87109375 C56.4526902 96.703479 59.03026652 85.1346666 58.82421875 73.09375 C57.66683643 59.53790956 51.57232851 48.22330687 41.29296875 39.4765625 C32.92855912 33.33248071 23.9346987 29.43359375 13.51171875 29.43359375 Z " fill="#FFFFFF" transform="translate(403.48828125,256.56640625)"/>
<path d="M0 0 C5.68263879 4.84695662 7.74916156 10.4194919 10.20703125 17.2734375 C10.59236526 18.32453705 10.97769928 19.3756366 11.37471008 20.45858765 C12.63510258 23.90624159 13.88087065 27.35894697 15.125 30.8125 C15.97936065 33.16840102 16.83401845 35.5241943 17.68896484 37.87988281 C20.17346332 44.73975086 22.64185832 51.60534948 25.10690689 58.47222137 C27.27412925 64.50855553 29.44441222 70.54378749 31.6171875 76.578125 C31.85437059 77.23693539 32.09155369 77.89574577 32.33592415 78.57452011 C35.39253591 87.0603224 38.48389319 95.53230412 41.6328125 103.984375 C41.96575821 104.87937714 42.29870392 105.77437927 42.64173889 106.69650269 C44.14347216 110.72936426 45.65323134 114.75892103 47.17651367 118.78369141 C47.69730513 120.17603113 48.2179076 121.56844157 48.73828125 122.9609375 C49.17954346 124.12802246 49.62080566 125.29510742 50.07543945 126.49755859 C52.05338271 132.74471225 52.79121561 137.70242257 50.125 143.8125 C46.97312316 147.78582916 43.66598299 150.07361296 38.625 150.875 C34.1658599 151.08010525 31.00688763 150.09596331 27.125 147.8125 C23.99123222 144.38377621 22.28894503 141.22381294 20.765625 136.85546875 C20.41016602 135.85281982 20.05470703 134.8501709 19.68847656 133.81713867 C19.2550293 132.55748291 18.82158203 131.29782715 18.375 130 C16.9725 125.978125 15.57 121.95625 14.125 117.8125 C-7.655 117.3175 -7.655 117.3175 -29.875 116.8125 C-30.535 119.7825 -31.195 122.7525 -31.875 125.8125 C-32.83244885 128.95607935 -34.00095162 131.99876456 -35.1875 135.0625 C-35.47044922 135.83851563 -35.75339844 136.61453125 -36.04492188 137.4140625 C-38.21773759 143.06049268 -40.82957075 146.95140435 -46.125 150.1875 C-51.58932443 151.42939192 -56.27202447 150.61398777 -61.25 148.125 C-64.25310564 145.47940694 -65.5442731 143.58289288 -66.875 139.8125 C-67.19603628 134.66670315 -66.46855781 130.80303568 -64.734375 125.96875 C-64.50046555 125.30760193 -64.26655609 124.64645386 -64.02555847 123.965271 C-63.23615328 121.74366628 -62.43071456 119.52823705 -61.625 117.3125 C-61.05070232 115.70829804 -60.47724237 114.10379598 -59.90454102 112.49902344 C-58.27679453 107.95061173 -56.63259709 103.40830353 -54.98394775 98.86743164 C-53.81739642 95.65381353 -52.65338332 92.43928375 -51.48974609 89.22460938 C-46.81244049 76.30837329 -42.11283679 63.40041471 -37.40005493 50.49708557 C-34.93086635 43.72936092 -32.4863122 36.95345724 -30.06640625 30.16796875 C-29.25166126 27.89216811 -28.43644081 25.61653831 -27.62112427 23.34094238 C-27.13145401 21.96868802 -26.64460266 20.59542383 -26.16085815 19.22106934 C-21.00521466 4.57445411 -21.00521466 4.57445411 -15.75 -0.0625 C-10.56528119 -2.09130301 -5.15297013 -2.12840071 0 0 Z M-7.875 57.8125 C-14.72066053 71.88531017 -14.72066053 71.88531017 -17.875 86.8125 C-10.945 86.8125 -4.015 86.8125 3.125 86.8125 C0.87271507 79.16890029 0.87271507 79.16890029 -1.69921875 71.6796875 C-2.00537109 70.8546875 -2.31152344 70.0296875 -2.62695312 69.1796875 C-3.09004883 67.94605469 -3.09004883 67.94605469 -3.5625 66.6875 C-3.88283203 65.82640625 -4.20316406 64.9653125 -4.53320312 64.078125 C-5.31100082 61.98851926 -6.09161846 59.90001732 -6.875 57.8125 C-7.205 57.8125 -7.535 57.8125 -7.875 57.8125 Z " fill="#FFFFFF" transform="translate(320.875,258.1875)"/>
<path d="M0 0 C1.27640685 -0.00551503 1.27640685 -0.00551503 2.57859969 -0.01114148 C5.44667256 -0.02220607 8.31470924 -0.02602685 11.18280029 -0.02983093 C13.23244849 -0.03609348 15.28209554 -0.04274009 17.33174133 -0.04974365 C22.91242234 -0.06717264 28.49309477 -0.07771056 34.07379627 -0.08594918 C37.55839246 -0.09109524 41.04298596 -0.09717114 44.52758026 -0.10346031 C55.42414896 -0.12251755 66.32071086 -0.13674764 77.21729302 -0.14507228 C89.80652519 -0.15484811 102.39558169 -0.18117453 114.98475194 -0.22157317 C124.70794935 -0.25170697 134.43109634 -0.26653855 144.15433955 -0.26985329 C149.96504548 -0.27220688 155.77556384 -0.28120747 161.58621979 -0.30631447 C167.0527237 -0.32955227 172.51891601 -0.33384563 177.98545647 -0.32355309 C179.99219485 -0.32305657 181.99894834 -0.32941088 184.00564003 -0.34310913 C186.74510211 -0.36076351 189.48343811 -0.35375375 192.22290039 -0.34057617 C193.0172673 -0.35154542 193.8116342 -0.36251466 194.63007283 -0.37381631 C200.70316525 -0.30327407 204.19017425 1.65642733 208.67791748 5.83467102 C210.89667171 10.15540293 211.52963322 14.64426537 210.27557373 19.36982727 C208.05490591 24.46878556 205.01234617 26.97062097 199.86541748 29.14717102 C196.96884214 29.68554114 194.15243358 29.68872919 191.21221924 29.65510559 C189.94271321 29.66446553 189.94271321 29.66446553 188.6475606 29.67401457 C185.82470997 29.68991054 183.00272693 29.67735374 180.17987061 29.66474915 C178.15080768 29.67017177 176.12174869 29.67729522 174.09269714 29.68598938 C168.59065262 29.70420883 163.08890846 29.69716077 157.58685875 29.68447304 C151.82590304 29.67433831 146.06497285 29.68374004 140.30401611 29.6900177 C130.62993762 29.69729271 120.95598132 29.68771018 111.28192139 29.6686554 C100.10113816 29.64688702 88.92064671 29.65393848 77.73987055 29.67596102 C68.13627708 29.69411913 58.5327714 29.6966713 48.92916632 29.68620634 C43.19510459 29.67997371 37.46117997 29.67912956 31.72712708 29.69235229 C26.33601806 29.70391605 20.94528485 29.69587514 15.55421638 29.67277527 C13.57693671 29.66749103 11.59962535 29.66899705 9.62235832 29.67782593 C6.92068539 29.68877622 4.22021245 29.6750242 1.51861572 29.65510559 C0.73835415 29.66402848 -0.04190742 29.67295136 -0.84581327 29.68214464 C-6.35867409 29.6034449 -9.57762501 28.27679982 -14.13458252 25.14717102 C-17.1670026 21.40718626 -17.97240576 17.93138547 -18.13458252 13.14717102 C-17.20706132 8.72488245 -15.86440369 5.84139116 -12.57208252 2.70967102 C-8.28037816 -0.04142152 -4.99218424 -0.00114575 0 0 Z " fill="#FFFFFF" transform="translate(223.13458251953125,511.8528289794922)"/>
<path d="M0 0 C0.65199598 -0.00523668 1.30399195 -0.01047336 1.97574538 -0.01586872 C4.15273145 -0.03082787 6.32948163 -0.03157296 8.5065155 -0.03224182 C10.07061152 -0.03986608 11.63470379 -0.04829403 13.1987915 -0.0574646 C17.44270614 -0.07939044 21.68654874 -0.08820593 25.93051362 -0.09329104 C28.58379801 -0.09693692 31.23706359 -0.10317819 33.89034081 -0.11029243 C43.15205589 -0.13478041 52.41371502 -0.14783739 61.67546082 -0.15138245 C70.30007018 -0.15501707 78.92432355 -0.18490879 87.54882413 -0.22678703 C94.96046597 -0.26151053 102.37198995 -0.27693124 109.78371257 -0.27762848 C114.207284 -0.2784206 118.63049269 -0.28712927 123.05397987 -0.31562614 C127.21643116 -0.34184227 131.37821986 -0.3439926 135.54071617 -0.3279705 C137.06446658 -0.3261588 138.5882554 -0.33282166 140.11192322 -0.34878922 C155.38033846 -0.49898467 155.38033846 -0.49898467 161.37834167 5.27415466 C164.06568424 9.05323014 165.00000465 12.50805424 164.78459167 17.18431091 C164.01374709 21.14971334 162.32162073 24.50869871 159.37834167 27.27415466 C151.8861595 31.02625677 144.35347629 30.6987934 136.16911316 30.66233826 C134.63250863 30.66640836 133.09590702 30.67175269 131.55931091 30.67826843 C127.40441487 30.69189462 123.24974338 30.68666321 119.09484363 30.67713118 C114.7379261 30.66951152 110.38102721 30.67658645 106.02410889 30.68128967 C98.70994124 30.68673994 91.39586463 30.67957416 84.08171082 30.66526794 C75.63489538 30.64893671 67.18829715 30.65423628 58.74148697 30.67074716 C51.47756325 30.68437553 44.21370479 30.68627527 36.94977242 30.67843115 C32.61637536 30.67376284 28.2830803 30.67310669 23.94968987 30.68304062 C19.87594848 30.69172792 15.80248635 30.68565635 11.72877502 30.66835785 C10.23687261 30.66440266 8.74494656 30.66551044 7.25305367 30.67214584 C-8.91677525 30.73741493 -8.91677525 30.73741493 -15.49665833 24.58665466 C-17.99329166 20.69484388 -18.93334347 17.87818956 -18.62165833 13.27415466 C-17.14966526 8.62575551 -15.4597283 5.32203376 -11.62165833 2.27415466 C-7.6486557 0.32551367 -4.40206964 0.01757398 0 0 Z " fill="#FFFFFF" transform="translate(223.6216583251953,591.7258453369141)"/>
<path d="M0 0 C0.66238892 -0.00367669 1.32477785 -0.00735338 2.00723916 -0.01114148 C4.23728116 -0.02219591 6.4672766 -0.02602514 8.69734192 -0.02983093 C10.29217172 -0.03609435 11.88700006 -0.04274104 13.48182678 -0.04974365 C17.82294392 -0.06716677 22.16405002 -0.07770939 26.50519347 -0.08594918 C29.21724308 -0.09109749 31.92928925 -0.09717336 34.64133644 -0.10346031 C43.12611777 -0.12251768 51.61089037 -0.13674659 60.095689 -0.14507228 C69.89065878 -0.15484201 79.6854024 -0.18115228 89.4802925 -0.22157317 C97.04980829 -0.25173848 104.61925928 -0.26654162 112.18883401 -0.26985329 C116.71018104 -0.27220368 121.23128664 -0.28116219 125.7525692 -0.30631447 C130.00845785 -0.32960697 134.26394631 -0.33382378 138.5198822 -0.32355309 C140.07952519 -0.32305787 141.63918794 -0.32937424 143.19877052 -0.34310913 C158.0291771 -0.46637796 158.0291771 -0.46637796 163.6184845 4.14717102 C166.37942892 8.86749535 167.21067977 12.71871435 166.6184845 18.14717102 C164.63004332 23.48456575 161.71180802 26.60050926 156.6184845 29.14717102 C154.50360421 29.24790272 152.38547492 29.28229804 150.26820374 29.28761292 C149.6091928 29.29058404 148.95018186 29.29355516 148.2712009 29.29661632 C146.0526395 29.30532017 143.83413195 29.30681299 141.61555481 29.30830383 C140.02895492 29.31293088 138.44235614 29.31795539 136.85575867 29.323349 C132.53743057 29.33648751 128.21911802 29.34292099 123.90077305 29.34735966 C121.20347191 29.35028857 118.50617503 29.35439307 115.80887604 29.35886383 C107.37161441 29.37254373 98.93436253 29.38220749 90.49709058 29.38606572 C80.75422217 29.39054525 71.01149414 29.40808615 61.26866841 29.43706632 C53.74078052 29.45868137 46.21293213 29.46876994 38.68501353 29.47010684 C34.18777879 29.47115517 29.69067591 29.47706861 25.19347382 29.49492645 C20.9614383 29.51140369 16.72963382 29.51356437 12.49757767 29.50478745 C10.94558468 29.50401683 9.3935793 29.50836302 7.84161758 29.5182457 C5.71970375 29.53096344 3.59860834 29.52509011 1.47669983 29.5146637 C0.29018452 29.51613026 -0.8963308 29.51759682 -2.11880112 29.51910782 C-7.21454448 28.93821282 -10.4026668 27.31120732 -13.6940155 23.39717102 C-15.87681826 19.1932546 -16.94406363 15.80060598 -15.94010925 11.06513977 C-14.42899488 6.41090749 -12.59666704 3.84919124 -8.3815155 1.14717102 C-5.54920907 -0.26898219 -3.16851887 0.01136832 0 0 Z " fill="#FFFFFF" transform="translate(221.3815155029297,672.8528289794922)"/>
<path d="M0 0 C1.24638245 -0.00700928 2.49276489 -0.01401855 3.7769165 -0.02124023 C7.18016773 -0.03578745 10.58244091 -0.0324365 13.98563647 -0.01972389 C17.55733674 -0.00955614 21.12899685 -0.01900021 24.70069885 -0.02526855 C30.6984909 -0.03253499 36.69608561 -0.02298482 42.69384766 -0.00390625 C49.61325712 0.01785084 56.53219486 0.01081589 63.45159286 -0.01121187 C69.40684 -0.02940658 75.36194571 -0.03190412 81.31721169 -0.0214572 C84.86765996 -0.01524323 88.41788707 -0.01432813 91.96832085 -0.02760315 C95.92958556 -0.04138093 99.89032878 -0.0222455 103.8515625 0 C105.01804825 -0.00809692 106.184534 -0.01619385 107.3863678 -0.02453613 C114.20738185 0.04628753 118.70217181 0.81779911 124.49047852 4.51757812 C127.71891028 8.75489481 128.01336058 12.93671113 127.84204102 18.11523438 C127.31139689 21.7413026 125.92191563 23.82328294 123.49047852 26.51757812 C118.88032393 29.8599402 114.95535923 30.64087065 109.3490448 30.65129089 C108.31030716 30.65555588 107.27156952 30.65982086 106.20135498 30.66421509 C105.06724182 30.6637619 103.93312866 30.66330872 102.76464844 30.6628418 C101.56586563 30.66620041 100.36708282 30.66955902 99.13197327 30.67301941 C95.84671106 30.68089125 92.56148678 30.68419699 89.27621627 30.6848352 C87.22179822 30.68554658 85.16738676 30.6876826 83.11297035 30.69033241 C75.94021815 30.69958218 68.76748453 30.70366786 61.59472656 30.70288086 C54.91803897 30.70228051 48.24143228 30.71282484 41.56476516 30.72862452 C35.82534061 30.74172029 30.08594244 30.74706389 24.34650308 30.74642545 C20.92184721 30.74617101 17.49726323 30.74899193 14.0726223 30.7596035 C10.24984405 30.769403 6.4272738 30.76652522 2.60449219 30.76049805 C1.47645172 30.76611755 0.34841125 30.77173706 -0.81381226 30.77752686 C-13.43718899 30.72696464 -13.43718899 30.72696464 -18.47045898 27.10742188 C-21.80281549 23.21353568 -23.50621479 19.97191364 -23.73608398 14.79101562 C-23.34147182 10.83128665 -22.13580158 7.52363892 -19.50952148 4.51757812 C-13.2036708 -0.14096234 -7.67077558 -0.05315289 0 0 Z " fill="#FFFFFF" transform="translate(367.509521484375,106.482421875)"/>
<path d="M0 0 C0.80125809 -0.00960754 1.60251617 -0.01921509 2.42805481 -0.02911377 C3.29057358 -0.03336365 4.15309235 -0.03761353 5.04174805 -0.04199219 C5.933311 -0.04769226 6.82487396 -0.05339233 7.74345398 -0.05926514 C9.63055232 -0.06871068 11.51766712 -0.07524735 13.40478516 -0.07910156 C16.282115 -0.08879525 19.15872681 -0.11981774 22.03588867 -0.15136719 C23.8711709 -0.15789876 25.70645822 -0.16314863 27.54174805 -0.16699219 C28.39819412 -0.17933899 29.2546402 -0.19168579 30.13703918 -0.20440674 C35.17576747 -0.1857544 38.62845764 0.36038609 42.9909668 3.16113281 C47.43534326 8.08598241 48.3473154 11.11274768 48.2722168 17.61816406 C47.85915435 21.352937 46.48222347 23.40055109 43.9909668 26.16113281 C38.46266992 30.16914805 33.45504403 30.32715039 26.7878418 30.36425781 C25.59291107 30.37280792 25.59291107 30.37280792 24.37384033 30.38153076 C22.68942586 30.39096253 21.00499309 30.39750749 19.32055664 30.40136719 C16.76374454 30.41104658 14.20774579 30.44207566 11.65112305 30.47363281 C10.0092007 30.48016635 8.36727264 30.48541544 6.7253418 30.48925781 C5.5921048 30.50777802 5.5921048 30.50777802 4.43597412 30.52667236 C-0.99987232 30.50424067 -5.04566941 29.41769599 -10.0090332 27.16113281 C-14.55524304 22.38178401 -15.3590872 19.12897842 -15.29418945 12.70410156 C-14.77330065 8.05891509 -12.35014107 5.33968215 -8.9465332 2.34863281 C-5.95119019 0.51277742 -3.43742959 0.03335806 0 0 Z " fill="#FFFFFF" transform="translate(266.009033203125,106.8388671875)"/>
</svg>
