<?xml version="1.0" encoding="UTF-8"?>
<svg version="1.1" xmlns="http://www.w3.org/2000/svg" width="938" height="938">
<path d="M0 0 C0.60255615 0.51860596 1.2051123 1.03721191 1.82592773 1.5715332 C5.51570906 4.78840968 9.01388927 8.14079592 12.43164062 11.64550781 C14.09331425 13.28031606 15.82669485 14.76801079 17.625 16.25 C26.91895582 24.27824199 35.19643063 33.84349959 42.82421875 43.4375 C44.40609708 45.42520052 46.00406871 47.37503121 47.64453125 49.3125 C97.36583018 108.69651903 123.877654 186.0110737 128.66796875 262.609375 C128.93943931 266.87153299 129.37028899 271.03654168 130.0625 275.25 C136.36768032 277.136416 141.82842664 277.39230239 148.375 277.1875 C160.05160651 277.03146066 170.02103726 278.15754575 179.0625 286.25 C182.80674067 290.52331816 185.58593077 295.29841431 188.21484375 300.3125 C188.59382812 301.0235791 188.9728125 301.7346582 189.36328125 302.46728516 C190.10329155 303.87196965 190.82204254 305.28812894 191.515625 306.71630859 C195.52488406 314.38382884 202.19784181 316.0670119 210.01489258 318.68237305 C220.97619887 322.38180011 229.6586081 326.28670687 235.5 336.8125 C238.9939756 344.59766816 240.24840085 352.82981357 241.5078125 361.21484375 C241.64960937 362.07207031 241.79140625 362.92929687 241.9375 363.8125 C242.03804687 364.53566406 242.13859375 365.25882812 242.2421875 366.00390625 C244.40936115 371.93783411 249.47119653 375.52552644 254.4375 379.0625 C263.43836473 385.77739065 269.44535097 393.08038183 272.0625 404.25 C273.10628474 412.09024671 271.37814986 419.62150018 269.71875 427.2578125 C268.04412007 436.54271796 269.24982264 441.84359245 274.375 449.8125 C281.57456125 461.32250824 285.4764268 470.88228798 282.51171875 484.84375 C281.02049069 488.97113002 278.86502702 492.60230373 276.5703125 496.32421875 C275.89427979 497.43144287 275.89427979 497.43144287 275.20458984 498.56103516 C274.29703596 500.02884679 273.36845525 501.48392549 272.41650391 502.92333984 C268.29797332 509.47883436 268.40540097 514.50688232 269.71875 521.98828125 C269.9971875 523.16777344 270.275625 524.34726562 270.5625 525.5625 C272.85724893 536.55313964 273.3801854 546.05645469 268.0625 556.25 C263.20095536 563.34243912 255.98241984 569.69837709 249.04345703 574.70751953 C243.85608955 578.67115214 242.08563639 581.680108 241.14111328 588.13037109 C241.0326709 589.07734863 240.92422852 590.02432617 240.8125 591 C240.51955083 592.96712938 240.22014208 594.93330837 239.9140625 596.8984375 C239.77387695 597.82881836 239.63369141 598.75919922 239.48925781 599.71777344 C237.89924781 609.1523179 233.78200686 616.53049314 227.0625 623.25 C227.42810028 624.08942894 227.42810028 624.08942894 227.80108643 624.94581604 C238.62966639 649.81300394 249.44725094 674.68608264 260.12243652 699.61959839 C260.99618651 701.65796311 261.87222991 703.69534634 262.75061035 705.73171997 C263.97296352 708.5671484 265.18680873 711.40606927 266.3984375 714.24609375 C266.75777374 715.07503143 267.11710999 715.90396912 267.48733521 716.75802612 C270.43613407 723.7154038 271.994487 728.9200325 269.0625 736.25 C265.92560628 739.96474256 262.90568885 742.85876938 257.97244263 743.53759766 C250.49668481 743.54237494 243.47437251 742.17047256 236.1796875 740.625 C234.87136236 740.35509736 233.56285643 740.08606972 232.25418091 739.81787109 C228.84283971 739.11634587 225.43405342 738.40311623 222.0256958 737.68725586 C218.53424634 736.95616698 215.040465 736.23640206 211.546875 735.515625 C204.71645185 734.1047015 197.88866589 732.68137481 191.0625 731.25 C190.76256638 732.02192184 190.46263275 732.79384369 190.15361023 733.5891571 C188.97484761 736.46375407 187.53134071 738.94187278 185.89453125 741.58203125 C185.25572021 742.6169873 184.61690918 743.65194336 183.95874023 744.71826172 C183.27110596 745.82186035 182.58347168 746.92545898 181.875 748.0625 C180.79345679 749.80090332 179.71225249 751.53951714 178.63105774 753.27813721 C177.8888743 754.47116829 177.14610088 755.66383254 176.40275574 756.85614014 C173.8650534 760.93354679 171.37987655 765.0388591 168.9140625 769.16015625 C168.25559326 770.24772217 167.59712402 771.33528809 166.91870117 772.45581055 C165.66663658 774.52389178 164.42660847 776.5993222 163.20043945 778.68286133 C159.77016665 784.29704392 157.23159387 787.74670295 151.0625 790.25 C148.4375 790.81640625 148.4375 790.81640625 146.0625 790.8125 C145.27875 790.83441406 144.495 790.85632813 143.6875 790.87890625 C139.66788672 789.9158739 136.86833045 788.21127267 134.0625 785.25 C131.70605018 781.36321208 129.99744973 777.25190974 128.25 773.0625 C127.7079056 771.80408651 127.16398391 770.54645889 126.6184082 769.28955078 C125.41458 766.50514085 124.22428153 763.71542197 123.04296875 760.92138672 C120.88642971 755.82372856 118.6933273 750.74206931 116.5 745.66015625 C113.79411223 739.38212888 111.09198869 733.10254248 108.40962219 726.81442261 C107.69094613 725.13196511 106.96921511 723.450809 106.24430847 721.77102661 C104.4034839 717.48772024 102.64170367 713.19111015 100.98681641 708.83227539 C100.645522 707.95773712 100.3042276 707.08319885 99.95259094 706.18215942 C99.3066026 704.52036196 98.6810654 702.85041362 98.08000183 701.17184448 C96.42656336 696.97735394 95.79313359 695.59688911 91.56323242 693.58862305 C88.40361425 693.00094597 85.33646893 692.72191638 82.1328125 692.52246094 C77.7195454 691.94165833 73.67149244 689.96255778 69.60546875 688.22729492 C61.77744777 685.03146079 56.22941097 686.17228131 48.75 689.25 C41.25675676 692.25 41.25675676 692.25 39.0625 692.25 C38.80903809 693.07532227 38.55557617 693.90064453 38.29443359 694.75097656 C36.89512138 698.72540039 35.17640649 702.44162462 33.3515625 706.234375 C32.98749298 706.99860779 32.62342346 707.76284058 32.24832153 708.55023193 C31.4688771 710.18579086 30.68793973 711.82063901 29.90563965 713.45483398 C27.84362617 717.76317961 25.79330863 722.07708584 23.7421875 726.390625 C23.33504517 727.24624023 22.92790283 728.10185547 22.50842285 728.98339844 C19.22810853 735.88372524 16.00128819 742.80683154 12.8125 749.75 C11.87502787 751.78907531 10.93752773 753.82813775 10 755.8671875 C9.53078125 756.88780273 9.0615625 757.90841797 8.578125 758.95996094 C3.95872746 768.98750623 -0.70147498 778.99569129 -5.40429688 788.984375 C-6.74439418 791.83869691 -8.06881213 794.6996904 -9.390625 797.5625 C-10.07146454 799.00068834 -10.75360126 800.43826388 -11.4375 801.875 C-11.9840625 803.04289063 -12.530625 804.21078125 -13.09375 805.4140625 C-15.3144508 808.82980144 -17.33720324 810.36884494 -20.9375 812.25 C-23.71875 812.78125 -23.71875 812.78125 -26.4375 812.75 C-27.3346875 812.7603125 -28.231875 812.770625 -29.15625 812.78125 C-33.78378644 811.89733855 -36.87199032 809.61698218 -39.74609375 805.9296875 C-40.28363281 805.00414062 -40.82117188 804.07859375 -41.375 803.125 C-41.69154541 802.58858887 -42.00809082 802.05217773 -42.33422852 801.49951172 C-43.55098811 799.42511812 -44.74358792 797.33763074 -45.9375 795.25 C-47.11391718 793.21315677 -48.2910618 791.1767336 -49.46875 789.140625 C-51.43129329 785.74441205 -53.39119169 782.34678904 -55.34375 778.94482422 C-59.30204967 772.05071913 -63.30702205 765.19259439 -67.49975586 758.43798828 C-69.9375 754.46089921 -69.9375 754.46089921 -69.9375 752.25 C-70.63970169 752.37528076 -71.34190338 752.50056152 -72.06538391 752.62963867 C-78.72672559 753.81635887 -85.38963257 754.99390658 -92.05434895 756.16151428 C-95.47959534 756.7619151 -98.90417277 757.36568055 -102.32739258 757.97753906 C-106.27506173 758.68297624 -110.2252892 759.37304511 -114.17578125 760.0625 C-115.38768631 760.28123779 -116.59959137 760.49997559 -117.84822083 760.7253418 C-134.7078367 763.63425345 -134.7078367 763.63425345 -142.375 761.125 C-146.18636458 758.33619665 -148.41945715 755.8496493 -149.36645508 751.09741211 C-149.96163348 741.34768748 -145.49533571 733.77561297 -141.25 725.3125 C-140.46544357 723.70816851 -139.683245 722.102682 -138.90332031 720.49609375 C-137.33205148 717.26293169 -135.75179916 714.03442706 -134.16455078 710.80908203 C-131.07097601 704.50234616 -128.12465543 698.13087505 -125.1875 691.75 C-124.14624178 689.49981095 -123.10457732 687.24980984 -122.0625 685 C-121.55203125 683.8965625 -121.0415625 682.793125 -120.515625 681.65625 C-118.86898285 678.10211149 -117.21664725 674.55064912 -115.5625 671 C-110.54444006 660.22624 -105.53623007 649.44796941 -100.625 638.625 C-100.24569336 637.79548828 -99.86638672 636.96597656 -99.47558594 636.11132812 C-97.61144492 632.33228193 -97.61144492 632.33228193 -96.9375 628.25 C-97.57324951 628.50579834 -98.20899902 628.76159668 -98.86401367 629.02514648 C-135.23250855 643.56412356 -171.88093203 653.63423962 -210.9375 657.25 C-211.79061768 657.3428125 -212.64373535 657.435625 -213.52270508 657.53125 C-223.94474423 658.57168889 -234.41169169 658.49283292 -244.875 658.5 C-245.89539368 658.50100708 -246.91578735 658.50201416 -247.96710205 658.50305176 C-264.82966481 658.49182656 -281.230586 657.66751755 -297.9375 655.25 C-298.93120605 655.11609863 -299.92491211 654.98219727 -300.94873047 654.84423828 C-362.8731128 646.39860836 -423.85637048 621.16852856 -473.11572266 582.67041016 C-474.92493557 581.25979628 -476.74776194 579.86865471 -478.57421875 578.48046875 C-486.23905777 572.61302506 -493.37483384 566.33172236 -500.38476562 559.70117188 C-502.82140005 557.42391479 -505.32501872 555.2214405 -507.8125 553 C-518.80977375 543.01686815 -528.72462106 531.87963767 -537.9375 520.25 C-538.84168983 519.15844643 -539.74807163 518.06870609 -540.65625 516.98046875 C-552.91600426 502.16932704 -563.42183138 485.94187145 -572.9375 469.25 C-573.38802734 468.46641113 -573.83855469 467.68282227 -574.30273438 466.87548828 C-614.42642888 396.68580773 -631.22631968 310.36111521 -618.9375 230.25 C-618.76589355 229.11143555 -618.59428711 227.97287109 -618.41748047 226.79980469 C-608.11217186 160.28958235 -580.46610376 97.78951229 -537.41113281 46.03222656 C-536.05774266 44.3954227 -534.72349715 42.74570447 -533.3984375 41.0859375 C-529.43437869 36.14108063 -525.36016639 31.53070701 -520.80859375 27.12109375 C-519.04742458 25.35992458 -517.46572374 23.53953519 -515.875 21.625 C-507.82759847 12.28854101 -498.20505127 4.04565762 -488.58984375 -3.62109375 C-485.77850724 -5.87761569 -483.05078861 -8.21804937 -480.3125 -10.5625 C-426.69528218 -55.20901214 -357.71395634 -81.61679009 -288.9375 -89.75 C-287.95700684 -89.86859375 -286.97651367 -89.9871875 -285.96630859 -90.109375 C-195.74324117 -100.57182561 -102.5501245 -75.14173977 0 0 Z M-462.9375 14.25 C-463.79601562 14.93449219 -464.65453125 15.61898437 -465.5390625 16.32421875 C-481.49660129 29.13163821 -497.22872486 43.51519009 -509.87890625 59.6328125 C-512.09448224 62.44957893 -514.41695004 65.15495123 -516.75 67.875 C-564.95487017 125.76554733 -592.22843982 202.74225571 -592.125 277.875 C-592.12439575 278.68780426 -592.1237915 279.50060852 -592.12316895 280.33804321 C-591.95932658 361.95851307 -565.06080057 441.67644044 -511.9375 504.25 C-511.11894531 505.25289062 -510.30039062 506.25578125 -509.45703125 507.2890625 C-503.15436117 514.93367229 -496.3591013 522.03769306 -489.375 529.0625 C-488.08190918 530.36936768 -488.08190918 530.36936768 -486.76269531 531.70263672 C-480.79549162 537.6415973 -474.50725496 542.9932723 -467.9375 548.25 C-466.89833798 549.12524702 -465.86322434 550.00537615 -464.8359375 550.89453125 C-456.61755916 557.95521233 -447.91133137 564.1910617 -438.9375 570.25 C-438.21739746 570.73726562 -437.49729492 571.22453125 -436.75537109 571.7265625 C-363.09782357 621.06244389 -268.91586247 639.85409115 -181.89794922 622.89086914 C-162.85939452 619.08183992 -144.27247665 614.02728985 -126 607.4375 C-124.79065796 607.00244141 -124.79065796 607.00244141 -123.55688477 606.55859375 C-119.5177649 605.31008991 -119.5177649 605.31008991 -116.9375 602.25 C-117.12686736 599.14081447 -117.69579826 596.07428474 -118.1875 593 C-118.30996094 592.15308594 -118.43242188 591.30617188 -118.55859375 590.43359375 C-119.7285577 582.98520937 -121.49947181 577.90075155 -127.67578125 573.31445312 C-128.25714844 572.90130859 -128.83851563 572.48816406 -129.4375 572.0625 C-135.71062302 567.47936467 -135.71062302 567.47936467 -137.71875 565.44921875 C-138.89012876 564.01620926 -138.89012876 564.01620926 -140.9375 564.25 C-141.185 563.71375 -141.4325 563.1775 -141.6875 562.625 C-142.9616128 560.09562178 -142.9616128 560.09562178 -144.9375 557.3125 C-150.16534137 549.3073679 -150.83192922 540.60592733 -149.28125 531.3203125 C-149.00297179 530.00457629 -148.72165935 528.6894786 -148.4375 527.375 C-147.9190726 524.66972894 -147.4283375 521.96051374 -146.9375 519.25 C-146.76734375 518.36054687 -146.5971875 517.47109375 -146.421875 516.5546875 C-145.59395773 508.41350105 -150.69268365 501.89162744 -154.76757812 495.23730469 C-157.218084 491.07471749 -159.40926097 486.83471709 -160.9375 482.25 C-161.53615706 482.24902319 -162.13481412 482.24804638 -162.75161231 482.24703997 C-198.22474635 482.18878106 -233.69781495 482.11499424 -269.17087279 482.02101372 C-273.42918182 482.00974541 -277.68749119 481.99860699 -281.94580078 481.98754883 C-282.79356151 481.98534514 -283.64132225 481.98314146 -284.5147727 481.980871 C-298.24561195 481.94548862 -311.97645114 481.9206298 -325.7073191 481.89965298 C-339.79411918 481.87789842 -353.88086004 481.84485129 -367.96760976 481.80129844 C-376.66145376 481.77477577 -385.35522395 481.75708494 -394.0491064 481.75065396 C-400.00902264 481.74540196 -405.96884597 481.72919131 -411.92871244 481.70433434 C-415.36840366 481.69031285 -418.80792856 481.68115091 -422.24765015 481.68499184 C-425.97670741 481.6866374 -429.70524805 481.67000553 -433.43423462 481.64872742 C-435.06556302 481.65599878 -435.06556302 481.65599878 -436.72984755 481.66341704 C-442.20815235 481.6116749 -446.2381721 481.39918098 -450.9375 478.25 C-455.32164852 473.7126616 -455.42558381 469.50394962 -455.44262695 463.49462891 C-455.42031006 462.38265137 -455.39799316 461.27067383 -455.375 460.125 C-455.36106201 458.96790527 -455.34712402 457.81081055 -455.33276367 456.61865234 C-454.69737884 426.60448004 -446.22346412 396.5864394 -431.9375 370.25 C-431.58429688 369.58516602 -431.23109375 368.92033203 -430.8671875 368.23535156 C-422.86540329 353.20322278 -413.16900878 340.01380179 -401.9375 327.25 C-401.49825195 326.74227051 -401.05900391 326.23454102 -400.60644531 325.71142578 C-377.19688339 298.70106022 -344.78016592 279.23644456 -310.9375 268.25 C-314.13967301 264.94453108 -317.40909486 262.04185587 -321.0625 259.25 C-341.9404428 242.24457885 -355.02895898 215.62300009 -358.62109375 189.18359375 C-361.31264218 155.72199788 -353.54044393 126.18068601 -331.9375 100.25 C-331.51484863 99.73018555 -331.09219727 99.21037109 -330.65673828 98.67480469 C-314.16176542 78.50109687 -287.37806788 65.8162046 -261.9375 62.25 C-256.82401098 61.84420896 -251.75290449 61.77189442 -246.625 61.8125 C-245.95251221 61.81554138 -245.28002441 61.81858276 -244.5871582 61.82171631 C-233.62104798 61.89475878 -223.36891133 62.76485105 -212.9375 66.25 C-212.30038086 66.45898926 -211.66326172 66.66797852 -211.00683594 66.88330078 C-187.32499717 74.91971531 -165.08876149 90.73555765 -151.9375 112.25 C-151.28265625 113.28382813 -150.6278125 114.31765625 -149.953125 115.3828125 C-134.51152767 140.48631324 -129.77412417 172.28750607 -136.35107422 200.97607422 C-141.94632355 222.67222421 -152.94403376 240.25815987 -168.5625 256.125 C-169.08875977 256.66084717 -169.61501953 257.19669434 -170.15722656 257.7487793 C-173.82007971 261.38029192 -177.67694618 264.34166226 -181.9375 267.25 C-178.6965422 269.41063854 -175.44720797 270.58345288 -171.8125 271.875 C-143.38097053 282.35198787 -117.0783084 299.43723437 -95.9375 321.25 C-92.24781687 320.32407191 -88.59027873 319.31212276 -84.9375 318.25 C-84.03128906 317.99476563 -83.12507813 317.73953125 -82.19140625 317.4765625 C-75.08789957 315.11953897 -72.41566349 311.71335892 -68.9375 305.25 C-62.09841622 292.78453595 -56.53391426 283.50601003 -42.33984375 279.14453125 C-36.50676157 277.73710507 -30.66851621 278.15728791 -24.71484375 278.328125 C-17.96779784 278.44597733 -11.91655507 278.41501095 -6.25 274.296875 C-5.486875 273.53890625 -4.72375 272.7809375 -3.9375 272 C6.40910263 262.14383266 15.66449436 255.812088 30.2734375 255.89453125 C38.3579246 256.65297282 46.28416239 259.46926031 53.6015625 262.91796875 C60.83903641 265.70349765 65.80924406 263.83248685 72.5 260.875 C81.05563375 257.29126895 88.84552155 255.97355593 98.0625 255.25 C91.33541149 195.8535524 73.80265648 138.57414296 39.0625 89.25 C38.31871094 88.17105469 37.57492187 87.09210938 36.80859375 85.98046875 C27.23146526 72.20883502 16.50814231 59.49301652 5.0625 47.25 C4.11101068 46.19866506 3.16182764 45.14523874 2.21484375 44.08984375 C-2.27548319 39.09503753 -6.77611442 34.26535357 -11.93359375 29.94140625 C-14.20522975 28.02402148 -16.37700121 26.01492327 -18.5625 24 C-24.76368869 18.41419644 -31.30430591 13.30763445 -37.9375 8.25 C-38.82115234 7.57300049 -38.82115234 7.57300049 -39.72265625 6.88232422 C-98.72499649 -38.0988555 -172.00332591 -61.94060373 -246 -62 C-246.77141327 -62.00067474 -247.54282654 -62.00134949 -248.33761597 -62.00204468 C-325.87334867 -61.89587892 -402.9030195 -35.00158837 -462.9375 14.25 Z M-311.49609375 121.19140625 C-325.98206796 139.53704982 -331.48519154 160.26235269 -329.9375 183.25 C-327.25782679 205.36275046 -316.0705524 224.95019422 -299.34765625 239.50390625 C-279.69181689 254.60786702 -258.38149115 259.1603152 -233.9375 257.25 C-228.72052099 256.54655197 -223.86232069 255.09756496 -218.9375 253.25 C-217.89980469 252.88777344 -216.86210937 252.52554688 -215.79296875 252.15234375 C-194.64260238 244.14289821 -178.85106742 227.7493035 -169.54980469 207.48071289 C-160.66231575 187.27876689 -160.69930314 165.04359531 -168.25 144.4375 C-177.43138267 122.34224379 -192.94755535 106.15601116 -214.9375 96.4375 C-249.74305623 82.76388862 -287.31958694 93.39765109 -311.49609375 121.19140625 Z M21.25 288.8125 C20.37730469 289.54210937 19.50460937 290.27171875 18.60546875 291.0234375 C17.05011848 292.38526493 15.50755251 293.76209843 13.98828125 295.1640625 C6.53241594 302.0301129 -1.41423109 306.33146767 -11.65234375 306.42578125 C-12.99155226 306.44897463 -14.33074503 306.47309178 -15.66992188 306.49804688 C-17.77444079 306.53317542 -19.87837763 306.56252151 -21.9831543 306.57592773 C-24.01942661 306.59142448 -26.0540173 306.63162823 -28.08984375 306.67578125 C-29.9150354 306.69765503 -29.9150354 306.69765503 -31.77709961 306.7199707 C-35.54251621 307.35146699 -36.63186536 308.26886066 -38.9375 311.25 C-40.1341571 313.11067223 -40.1341571 313.11067223 -41.05078125 315.078125 C-41.407771 315.79186279 -41.76476074 316.50560059 -42.13256836 317.2409668 C-42.5013208 317.98644775 -42.87007324 318.73192871 -43.25 319.5 C-51.44155646 335.39218921 -61.24486245 341.39818531 -78.0690918 346.80297852 C-78.91125244 347.07811279 -79.75341309 347.35324707 -80.62109375 347.63671875 C-81.37962646 347.87608154 -82.13815918 348.11544434 -82.91967773 348.36206055 C-85.19185928 349.36193039 -86.40142554 350.3054574 -87.9375 352.25 C-88.54097903 354.90297543 -88.99997397 357.44064964 -89.375 360.125 C-92.01276721 376.67531645 -96.46971445 389.51933871 -110.2421875 399.734375 C-110.82871094 400.17088379 -111.41523437 400.60739258 -112.01953125 401.05712891 C-113.19680645 401.92245183 -114.38416626 402.77425147 -115.58203125 403.61083984 C-118.04575769 405.40573702 -119.73457111 406.75576995 -120.90625 409.609375 C-120.94674911 413.03154991 -120.32189568 416.03783918 -119.5625 419.375 C-116.14415039 435.37014926 -116.58373871 446.8378803 -124.9375 461.25 C-126.82292683 464.09298612 -128.72119699 466.91143913 -130.71484375 469.6796875 C-132.34682887 473.11050607 -132.04719814 474.63220362 -130.9375 478.25 C-129.65625011 480.77240478 -128.15986867 483.12559728 -126.625 485.5 C-116.94488908 501.12711912 -115.65169256 513.58242659 -119.6953125 531.6328125 C-119.91960937 532.68210937 -120.14390625 533.73140625 -120.375 534.8125 C-120.60058594 535.74191406 -120.82617188 536.67132812 -121.05859375 537.62890625 C-121.19058925 540.45254225 -121.19058925 540.45254225 -118.875 542.75390625 C-117.905625 543.57761719 -116.93625 544.40132812 -115.9375 545.25 C-115.43033447 545.68223877 -114.92316895 546.11447754 -114.40063477 546.55981445 C-112.77909914 547.92996083 -111.14012181 549.27718657 -109.5 550.625 C-95.90173923 562.01113995 -92.19577516 571.97567866 -89.4140625 589.55859375 C-89.25679687 590.52925781 -89.09953125 591.49992187 -88.9375 592.5 C-88.751875 593.77617188 -88.751875 593.77617188 -88.5625 595.078125 C-87.81483815 597.67624992 -86.98741998 598.51469604 -84.9375 600.25 C-82.90237825 601.18917186 -82.90237825 601.18917186 -80.62109375 601.86328125 C-79.35785278 602.27598267 -79.35785278 602.27598267 -78.0690918 602.69702148 C-77.1800415 602.98262939 -76.29099121 603.2682373 -75.375 603.5625 C-58.91904552 609.11812398 -50.15484448 616.18276504 -42.125 631.6875 C-41.18594653 633.48046949 -40.24217926 635.2709807 -39.29296875 637.05859375 C-38.88715576 637.84032959 -38.48134277 638.62206543 -38.06323242 639.42749023 C-37.0609854 641.40740208 -37.0609854 641.40740208 -34.9375 642.25 C-33.26374354 642.29926033 -31.58795664 642.28652323 -29.9140625 642.2421875 C-9.76800386 641.86020352 3.43726934 643.78328852 18.375 658.125 C18.85453125 658.61355469 19.3340625 659.10210938 19.828125 659.60546875 C22.04839893 661.78884062 23.91790881 663.19646273 26.84765625 664.28125 C31.43451775 664.23666325 35.00885658 662.6609781 39.1875 660.875 C40.77264377 660.21943166 42.35855639 659.5657186 43.9453125 658.9140625 C44.64027832 658.61967285 45.33524414 658.3252832 46.05126953 658.02197266 C58.53387625 653.2307609 72.05650306 656.34270403 83.80859375 661.44140625 C84.67613281 661.81136719 85.54367187 662.18132812 86.4375 662.5625 C87.18773437 662.90925781 87.93796875 663.25601562 88.7109375 663.61328125 C91.94094732 664.48785202 93.85447215 664.22015327 97.0625 663.25 C99.18336695 661.56990702 100.98998498 659.968723 102.875 658.0625 C113.4835066 647.8688512 123.64963981 642.00350259 138.63671875 642.29296875 C141.71811144 642.35869982 144.79692522 642.43922929 147.87695312 642.55273438 C149.36678711 642.57883789 149.36678711 642.57883789 150.88671875 642.60546875 C151.78479248 642.63278076 152.68286621 642.66009277 153.6081543 642.68823242 C156.88104061 642.10384657 157.98170877 640.78589356 160.0625 638.25 C161.40746728 635.8678827 162.6605235 633.50760538 163.875 631.0625 C172.2776607 614.85750833 181.679857 608.74887763 198.63671875 602.86328125 C199.39654053 602.58315186 200.1563623 602.30302246 200.93920898 602.0144043 C202.77581738 601.35320838 204.64409223 600.78124755 206.515625 600.2265625 C210.11617103 597.43227371 210.14371525 594.80933489 210.7565918 590.41674805 C210.8781665 589.39234619 210.99974121 588.36794434 211.125 587.3125 C213.90886661 568.51087194 220.48193289 557.78881431 235.72070312 546.47216797 C236.52217773 545.88266357 236.52217773 545.88266357 237.33984375 545.28125 C240.04001113 543.36843911 240.04001113 543.36843911 242.0625 541.25 C242.15936632 539.14064723 242.15936632 539.14064723 241.8125 536.75 C241.65201172 535.39068359 241.65201172 535.39068359 241.48828125 534.00390625 C241.10420379 531.51973549 240.5825336 529.13078841 240 526.6875 C237.08037933 512.42627598 238.70015627 500.77053693 246.43359375 488.42578125 C247.0514978 487.43312256 247.0514978 487.43312256 247.68188477 486.42041016 C248.50000564 485.12840593 249.33956057 483.84965223 250.20288086 482.58740234 C252.22871218 479.4651838 253.06079006 477.47058172 253.08984375 473.72265625 C251.92401085 469.78187509 250.10744909 466.80221218 247.75 463.5 C239.20746499 450.71066258 236.91768326 438.35012919 239.74609375 423.15625 C240.25949705 420.81768569 240.80797784 418.48627338 241.40625 416.16796875 C242.04919018 413.30918117 242.48114088 411.15161436 242.0625 408.25 C240.42804197 406.15228497 240.42804197 406.15228497 238.125 404.375 C237.30386719 403.68535156 236.48273438 402.99570312 235.63671875 402.28515625 C233.26876775 400.41307359 230.86159319 398.61075157 228.4375 396.8125 C217.85592205 388.65009607 213.41062747 378.38964478 211.6796875 365.390625 C211.43230207 363.35890637 211.20349703 361.32484943 210.9921875 359.2890625 C210.38643053 353.97515709 210.38643053 353.97515709 207.4309082 349.76367188 C205.33635813 348.67180186 203.32282586 347.93152777 201.0625 347.25 C200.38010254 347.0123291 199.69770508 346.7746582 198.99462891 346.52978516 C197.626366 346.06041447 196.25209011 345.60823361 194.87255859 345.1730957 C181.38036131 340.89451416 172.94570806 334.81106172 166.0625 322.25 C164.99040572 320.34225824 163.91226257 318.43809668 162.83081055 316.53564453 C162.12097013 315.28079676 161.41902888 314.02144121 160.72583008 312.75732422 C158.99924312 309.4203053 158.99924312 309.4203053 156.0625 307.25 C153.92897257 307.14276995 151.79237464 307.094445 149.65625 307.07421875 C148.35429688 307.05037109 147.05234375 307.02652344 145.7109375 307.00195312 C143.64866344 306.96712729 141.58694364 306.93766104 139.52441406 306.92407227 C129.05892484 306.84171672 119.87325851 305.95974836 111.5625 299.0625 C110.83417969 298.46824219 110.10585938 297.87398438 109.35546875 297.26171875 C105.98034114 294.30057613 102.72863724 291.21023378 99.51953125 288.0703125 C96.44738843 285.79428936 94.90059642 285.28633701 91.0625 285.25 C87.74679182 286.11740668 84.61328878 287.34491283 81.4375 288.625 C79.75843556 289.28024466 78.07876856 289.93394785 76.3984375 290.5859375 C75.66157715 290.88032715 74.9247168 291.1747168 74.16552734 291.47802734 C60.50140333 296.49381097 47.06270936 292.39126012 34.4375 286.58203125 C28.54275313 284.25551657 26.04877204 284.72695418 21.25 288.8125 Z M-376.0625 342.0625 C-398.27943497 364.8546307 -413.73808536 393.64869031 -421.75 424.3125 C-421.94505127 425.04202881 -422.14010254 425.77155762 -422.34106445 426.52319336 C-423.72164534 432.16548797 -424.3880265 437.82652341 -425.00268555 443.59155273 C-425.09337059 444.42541252 -425.18405563 445.25927231 -425.27748871 446.11840057 C-425.49945894 448.16205442 -425.71874942 450.20599902 -425.9375 452.25 C-391.40566227 452.52466088 -356.87407388 452.73611181 -322.34137979 452.86278395 C-318.26461273 452.87779245 -314.18784783 452.89332432 -310.11108398 452.90917969 C-309.29947294 452.91232741 -308.48786189 452.91547514 -307.65165658 452.91871825 C-294.50960275 452.97093611 -281.36817876 453.06555078 -268.2264986 453.17583355 C-254.74206613 453.28804894 -241.25796351 453.35470424 -227.77308327 453.37906194 C-219.45159795 453.39552926 -211.13189267 453.44753285 -202.81095535 453.5449976 C-197.10504798 453.60842777 -191.40006078 453.62760309 -185.69382643 453.61201653 C-182.40050969 453.60432702 -179.11095856 453.62266116 -175.81805038 453.6804657 C-163.55039924 454.54727174 -163.55039924 454.54727174 -152.1915791 451.08344364 C-148.07177138 446.77548007 -146.80053343 441.27281265 -146.3125 435.5 C-146.69742092 430.32867114 -147.7718777 425.19907445 -148.86865234 420.13378906 C-150.94922389 410.28000523 -150.04933319 401.2408552 -145.31640625 392.31640625 C-140.67277599 385.35753824 -133.76606331 380.11831675 -127.19921875 375.07421875 C-126.45285156 374.47222656 -125.70648437 373.87023437 -124.9375 373.25 C-124.21433594 372.67121094 -123.49117187 372.09242188 -122.74609375 371.49609375 C-120.29636708 368.45377661 -119.8614109 365.38532488 -119.3125 361.625 C-119.08955145 360.18193259 -118.86429452 358.73921992 -118.63671875 357.296875 C-118.52763184 356.60013672 -118.41854492 355.90339844 -118.30615234 355.18554688 C-117.82522141 352.66050022 -116.94955313 350.30607682 -116.125 347.875 C-115.48682553 344.60776487 -115.68974499 343.62493192 -117.55078125 340.80859375 C-120.18076788 338.058084 -122.97983734 335.63208841 -125.9375 333.25 C-126.47036621 332.8051123 -127.00323242 332.36022461 -127.55224609 331.90185547 C-195.46698516 275.22234451 -292.16458879 272.67136519 -376.0625 342.0625 Z M195.8359375 636.1640625 C191.64973173 640.43441311 189.15031513 645.90348347 186.34375 651.125 C181.66515821 659.54646522 175.64187103 666.85631088 166.1484375 669.85449219 C158.86928716 671.61634646 151.85420608 671.33871797 144.4140625 671.08398438 C136.54063713 670.93297291 131.11854537 671.93322364 125.125 677.4375 C124.10416667 678.375 123.08333333 679.3125 122.0625 680.25 C124.04745388 686.57684149 126.41692109 692.62273968 129.1171875 698.67578125 C129.5006131 699.54462448 129.8840387 700.41346771 130.27908325 701.30863953 C131.49474633 704.06162988 132.71583025 706.81217063 133.9375 709.5625 C135.54089293 713.18278571 137.14202054 716.80406864 138.7421875 720.42578125 C139.12308533 721.2870462 139.50398315 722.14831116 139.89642334 723.03567505 C142.7069357 729.405087 145.43620843 735.80206431 148.0625 742.25 C148.7225 742.25 149.3825 742.25 150.0625 742.25 C151.30673697 740.6216995 151.30673697 740.6216995 152.49609375 738.47265625 C152.97498047 737.65667969 153.45386719 736.84070313 153.94726562 736 C154.45966797 735.113125 154.97207031 734.22625 155.5 733.3125 C156.57976638 731.47913296 157.66184392 729.64712535 158.74609375 727.81640625 C159.2963623 726.88715332 159.84663086 725.95790039 160.41357422 725.00048828 C162.89018091 720.86938804 165.45578578 716.79996455 168.0625 712.75 C168.7285022 711.70211304 168.7285022 711.70211304 169.40795898 710.63305664 C175.04640256 701.92203248 175.04640256 701.92203248 180.0625 700.25 C186.83201066 699.74611463 193.18461258 700.59630699 199.7890625 702 C201.09960098 702.26635254 201.09960098 702.26635254 202.43661499 702.53808594 C205.1888748 703.09960923 207.93812463 703.67453811 210.6875 704.25 C212.56882678 704.63631206 214.45033599 705.02173677 216.33203125 705.40625 C220.91102443 706.34393552 225.4873718 707.29364242 230.0625 708.25 C227.78737881 701.01496376 224.96082953 694.14080354 221.9140625 687.19921875 C221.17245377 685.49642509 221.17245377 685.49642509 220.41586304 683.75923157 C218.84336068 680.15039644 217.26566113 676.54386362 215.6875 672.9375 C214.11749096 669.34141556 212.54858872 665.74485194 210.9805603 662.14790344 C210.00799581 659.91780159 209.03414515 657.68826001 208.05874634 655.45939636 C204.98402519 648.42039892 201.9947428 641.34951817 199.0625 634.25 C197.699521 634.14135228 197.699521 634.14135228 195.8359375 636.1640625 Z M-69.9375 644.25 C-87.62539974 681.46339552 -87.62539974 681.46339552 -104.75 718.9375 C-105.08201416 719.68080566 -105.41402832 720.42411133 -105.75610352 721.18994141 C-107.27653351 724.11401246 -107.27653351 724.11401246 -107.9375 727.25 C-97.83669308 726.63940981 -88.10270055 724.91642508 -78.18359375 722.97851562 C-61.34209713 719.81497053 -61.34209713 719.81497053 -54.703125 722.61328125 C-50.74846156 726.38361715 -48.34011231 730.69335064 -45.6875 735.4375 C-44.84868286 736.89470459 -44.84868286 736.89470459 -43.99291992 738.38134766 C-42.29593339 741.33096962 -40.61578151 744.28970481 -38.9375 747.25 C-37.4842869 749.79346883 -36.0263566 752.33387394 -34.55761719 754.8684082 C-33.70017984 756.34811198 -32.8502801 757.83221488 -32.00878906 759.32104492 C-31.04070802 760.99744273 -29.99688919 762.62975771 -28.9375 764.25 C-28.2775 764.25 -27.6175 764.25 -26.9375 764.25 C-26.61700684 763.55890137 -26.29651367 762.86780273 -25.96630859 762.15576172 C-19.82938695 748.92458471 -13.68588167 735.69650796 -7.51916504 722.47918701 C-6.92369933 721.20277681 -6.32840273 719.9262877 -5.73327637 718.64971924 C-2.93250988 712.6420732 -0.12838448 706.63634806 2.72265625 700.65234375 C3.10446045 699.84949951 3.48626465 699.04665527 3.87963867 698.21948242 C4.55991704 696.79220095 5.24341313 695.36644631 5.9309082 693.94262695 C7.54500973 690.73941106 7.54500973 690.73941106 8.0625 687.25 C6.34918186 685.71018004 6.34918186 685.71018004 4.125 684.125 C-0.12765383 680.9321558 -4.02829426 677.49948738 -7.89453125 673.8515625 C-11.23984831 671.22903861 -14.38264105 671.12807849 -18.53515625 671.22265625 C-19.85338379 671.24356323 -19.85338379 671.24356323 -21.19824219 671.26489258 C-22.12282227 671.28060303 -23.04740234 671.29631348 -24 671.3125 C-36.38975738 671.39159702 -47.4676186 671.07450562 -57.0625 662.30859375 C-62.17013035 656.90108359 -65.65899728 650.89393545 -68.9375 644.25 C-69.2675 644.25 -69.5975 644.25 -69.9375 644.25 Z " fill="#FFFFFF" transform="translate(637.9375,108.75)"/>
<path d="M0 0 C0.91910156 0.42023438 1.83820313 0.84046875 2.78515625 1.2734375 C13.94786465 6.54520787 23.67408793 13.99262631 33 22 C33.84433594 22.72058594 34.68867187 23.44117188 35.55859375 24.18359375 C46.9866718 34.18539061 55.84271406 45.27968293 64 58 C64.37398926 58.58120605 64.74797852 59.16241211 65.13330078 59.76123047 C85.63886551 92.17081016 92.81757451 135.32450936 84.54345703 172.71826172 C74.38896663 215.35252377 49.30933554 251.60134716 12 275 C6.82713386 278.00852247 1.47015322 280.58218398 -4 283 C-4.93126709 283.41306396 -4.93126709 283.41306396 -5.88134766 283.83447266 C-46.11680093 301.38656757 -89.52478285 301.05429253 -130.1875 285.1875 C-160.65387428 272.84431232 -185.35885857 250.50926155 -203 223 C-203.37398926 222.41879395 -203.74797852 221.83758789 -204.13330078 221.23876953 C-214.24342639 205.2594524 -220.20928815 187.42650841 -224 169 C-224.36931641 167.25009766 -224.36931641 167.25009766 -224.74609375 165.46484375 C-230.62150522 130.82017611 -223.82528889 95.55253374 -207 65 C-206.43539062 63.94554687 -205.87078125 62.89109375 -205.2890625 61.8046875 C-185.90717633 26.9536903 -151.45370288 1.09626743 -113.42578125 -10.0012207 C-75.10748506 -20.75432936 -35.84538696 -17.16998104 0 0 Z M-158 50 C-158.75023437 50.68578125 -159.50046875 51.3715625 -160.2734375 52.078125 C-181.76860652 72.44196934 -195.11418085 103.26587902 -196.28125 132.734375 C-197.13716372 169.62751432 -185.44698875 202.06129122 -160 229 C-159.31421875 229.75023437 -158.6284375 230.50046875 -157.921875 231.2734375 C-136.94612215 253.41450996 -105.42234896 266.24160461 -75.1953125 267.203125 C-39.0414846 267.7675848 -7.37369613 255.91326344 19 231 C19.75023437 230.31421875 20.50046875 229.6284375 21.2734375 228.921875 C42.66577469 208.65545029 56.25517483 177.73505759 57.24609375 148.34765625 C57.91929511 111.458041 46.37381869 78.86124945 21 52 C20.31421875 51.24976563 19.6284375 50.49953125 18.921875 49.7265625 C-2.3606561 27.26166857 -33.62887977 15.08383073 -64.1953125 13.71875 C-99.97116154 12.76441916 -132.04892436 25.4859546 -158 50 Z " fill="#FFFFFF" transform="translate(768,443)"/>
<path d="M0 0 C5.34165339 1.81072996 7.1754601 3.80865787 9.65234375 8.8125 C14.21469153 18.24499269 17.988472 28.02549439 21.875 37.75 C22.66620586 39.71893524 23.45786899 41.68768679 24.25 43.65625 C26.17194313 48.43539939 28.08768781 53.21698924 30 58 C39.91305897 59.04902519 49.81673429 60.03718213 59.765625 60.67578125 C61.35028128 60.78289491 62.93491681 60.89031607 64.51953125 60.99804688 C66.90829343 61.16005135 69.29660386 61.3151472 71.68701172 61.45092773 C88.45482667 62.4213419 88.45482667 62.4213419 95 68 C97.72528295 71.83242915 98.34672195 75.0870691 98.49609375 79.77734375 C96.94381816 86.73202728 92.3350181 90.91924323 87.0625 95.25 C86.40008301 95.80864746 85.73766602 96.36729492 85.05517578 96.94287109 C83.69593151 98.08775426 82.33297802 99.22824852 80.96630859 100.36425781 C79.16221259 101.86505781 77.36942315 103.37781266 75.58203125 104.8984375 C75.04715088 105.3526709 74.51227051 105.8069043 73.96118164 106.27490234 C72.90776549 107.17153022 71.85615206 108.07028055 70.80639648 108.97119141 C68.02205305 111.34689925 65.19814202 113.62143466 62.265625 115.8125 C61.35224365 116.51898682 61.35224365 116.51898682 60.42041016 117.23974609 C59.25674175 118.13757782 58.07463993 119.01219955 56.87255859 119.85791016 C55.01294856 121.21841203 55.01294856 121.21841203 53 124 C52.67147468 130.55195885 54.93845905 137.40403763 56.5390625 143.6953125 C57.04206609 145.73037007 57.54465803 147.76552942 58.046875 149.80078125 C58.83632379 152.97284947 59.62974974 156.14379456 60.43066406 159.31298828 C61.20727218 162.39607486 61.96790971 165.48276623 62.7265625 168.5703125 C62.9691983 169.51214386 63.21183411 170.45397522 63.46182251 171.42434692 C65.06634987 178.01299555 65.61979778 183.09553501 62.1875 189.25 C58.97196475 193.29238718 57.35305978 194.68428605 52.25 195.875 C44.03863609 196.59872938 37.05402206 191.41069113 30.4375 187.1875 C29.53854004 186.6308667 28.63958008 186.0742334 27.71337891 185.50073242 C22.69267183 182.38581829 17.76831449 179.17202857 12.90234375 175.8203125 C11.8956665 175.15104736 10.88898926 174.48178223 9.85180664 173.79223633 C7.90258538 172.49589948 5.97692598 171.16324166 4.07983398 169.79174805 C1.34055931 168.00213461 -0.81191846 166.75058006 -4 166 C-8.24778617 167.17058773 -11.44219098 169.45930504 -15 172 C-16.69531568 173.03675816 -18.39703717 174.06312535 -20.10546875 175.078125 C-21.80111804 176.13278629 -23.49509845 177.19013494 -25.1875 178.25 C-26.08879639 178.80848633 -26.99009277 179.36697266 -27.91870117 179.94238281 C-32.18820729 182.59265542 -36.43419048 185.26991181 -40.6328125 188.03125 C-41.34284424 188.49241211 -42.05287598 188.95357422 -42.78442383 189.42871094 C-44.08934811 190.27886746 -45.38680777 191.14065277 -46.67456055 192.01660156 C-51.7364499 195.2973659 -56.36084559 196.58274041 -62.390625 195.6171875 C-67.57125215 193.54929011 -70.44651092 191.10697816 -73 186 C-73.6823562 178.08302388 -72.37273773 170.91104459 -70.41015625 163.27734375 C-70.14617538 162.21004532 -69.88219452 161.14274689 -69.61021423 160.04310608 C-68.7729141 156.67145871 -67.91773407 153.30463737 -67.0625 149.9375 C-66.49171655 147.64415917 -65.9220446 145.35054139 -65.35351562 143.05664062 C-64.31378343 138.88631148 -63.27339315 134.71619541 -62.21508789 130.55053711 C-61.89865074 129.30124672 -61.89865074 129.30124672 -61.57582092 128.02671814 C-61 126 -61 126 -60 124 C-60.89054077 123.58705688 -60.89054077 123.58705688 -61.79907227 123.16577148 C-63.89558892 122.05530371 -65.44507002 120.91308946 -67.21484375 119.34765625 C-67.81200195 118.82397461 -68.40916016 118.30029297 -69.02441406 117.76074219 C-69.65573242 117.20032227 -70.28705078 116.63990234 -70.9375 116.0625 C-72.28461885 114.88089746 -73.63228473 113.69991831 -74.98046875 112.51953125 C-75.65513184 111.92736816 -76.32979492 111.33520508 -77.02490234 110.72509766 C-79.9097601 108.20539371 -82.82540348 105.72336292 -85.75 103.25 C-86.2764209 102.80172852 -86.8028418 102.35345703 -87.34521484 101.89160156 C-89.89476072 99.73070114 -92.46588951 97.64049931 -95.11328125 95.59765625 C-105.55377778 87.508 -105.55377778 87.508 -107 81 C-107.36685885 75.02835309 -106.00776006 70.54934926 -102 66 C-96.48523966 62.37496717 -90.86806879 62.28073534 -84.46875 61.8671875 C-83.35947144 61.78501984 -82.25019287 61.70285217 -81.1072998 61.61819458 C-77.57227497 61.35854787 -74.03633064 61.11614627 -70.5 60.875 C-66.96399625 60.62328774 -63.42827711 60.36801746 -59.8927002 60.11038208 C-57.69597886 59.95145344 -55.49896116 59.79655588 -53.30163574 59.64620972 C-51.35282702 59.5093305 -49.40492298 59.35845199 -47.45858765 59.1900177 C-45.49032434 59.03789586 -43.5136764 58.99591036 -41.53955078 58.99047852 C-38.4971005 57.80385856 -38.24424725 57.12725729 -36.82177734 54.28149414 C-36.13525778 52.62602609 -35.47497524 50.95952608 -34.8359375 49.28515625 C-34.47658112 48.40025009 -34.11722473 47.51534393 -33.74697876 46.60362244 C-32.6003192 43.76507473 -31.48745289 40.91460403 -30.375 38.0625 C-29.61937948 36.17555304 -28.86159012 34.28947305 -28.1015625 32.40429688 C-26.69405834 28.9023733 -25.29862704 25.39622527 -23.91943359 21.88305664 C-23.44555206 20.68593552 -23.44555206 20.68593552 -22.96209717 19.46463013 C-22.29043086 17.74400453 -21.63621286 16.01651045 -20.99542236 14.28414917 C-20.66129333 13.39945953 -20.32716431 12.5147699 -19.98291016 11.60327148 C-19.54188461 10.40721535 -19.54188461 10.40721535 -19.09194946 9.18699646 C-15.17669541 1.34538196 -8.1564908 -0.87199326 0 0 Z M-5 55 C-5.46055786 56.14214966 -5.46055786 56.14214966 -5.93041992 57.30737305 C-7.33642005 60.77286632 -8.76171279 64.23010328 -10.1875 67.6875 C-10.67025391 68.88568359 -11.15300781 70.08386719 -11.65039062 71.31835938 C-12.13056641 72.47529297 -12.61074219 73.63222656 -13.10546875 74.82421875 C-13.75745239 76.41882935 -13.75745239 76.41882935 -14.42260742 78.0456543 C-16.7515882 82.407672 -19.3887956 85.32672405 -23.97265625 87.2421875 C-29.67624278 88.56256237 -35.61449661 88.73743513 -41.4375 89.125 C-42.64599609 89.21136719 -43.85449219 89.29773438 -45.09960938 89.38671875 C-48.06600678 89.59776679 -51.0327086 89.80198957 -54 90 C-49.42068623 94.72931056 -44.47038424 98.94443186 -39.43945312 103.18359375 C-30.0728216 111.18523877 -30.0728216 111.18523877 -29.06640625 116.96484375 C-28.61163265 123.35951737 -30.38142974 129.40972327 -31.9375 135.5625 C-32.22818359 136.76197266 -32.51886719 137.96144531 -32.81835938 139.19726562 C-33.53232088 142.13504165 -34.25977317 145.0687528 -35 148 C-31.53555647 146.70609269 -28.50473758 145.19219412 -25.3828125 143.21484375 C-24.52816406 142.68439453 -23.67351562 142.15394531 -22.79296875 141.60742188 C-21.01816828 140.49654749 -19.24729517 139.37937307 -17.48046875 138.25585938 C-12.02815782 134.89018473 -7.39676088 132.23267698 -0.76171875 133.390625 C8.38412179 137.17986213 16.6606827 142.71670581 25 148 C26.44172219 145.11655563 25.52508318 143.49058068 24.71484375 140.3984375 C24.43189453 139.26792969 24.14894531 138.13742187 23.85742188 136.97265625 C23.24952144 134.5952622 22.63248999 132.22018222 22.00585938 129.84765625 C20.13766251 122.29791787 19.17846794 117.02370343 23.12109375 110.00390625 C27.92118041 104.74802501 33.42731132 100.40861594 39 96 C41.03060771 94.36153641 43.02617227 92.70709425 45 91 C45 90.67 45 90.34 45 90 C44.24904053 89.9498877 43.49808105 89.89977539 42.72436523 89.84814453 C39.29483042 89.61487163 35.86621341 89.37003872 32.4375 89.125 C31.25607422 89.04636719 30.07464844 88.96773437 28.85742188 88.88671875 C12.97967864 87.7303565 12.97967864 87.7303565 7 81 C5.42260742 78.0456543 5.42260742 78.0456543 4.10546875 74.82421875 C3.62529297 73.66728516 3.14511719 72.51035156 2.65039062 71.31835938 C2.16763672 70.12017578 1.68488281 68.92199219 1.1875 67.6875 C0.68541016 66.46998047 0.18332031 65.25246094 -0.33398438 63.99804688 C-1.56720462 61.00308342 -2.78871891 58.00388811 -4 55 C-4.33 55 -4.66 55 -5 55 Z " fill="#FFFFFF" transform="translate(703,475)"/>
</svg>
