<?xml version="1.0" encoding="UTF-8"?>
<svg version="1.1" xmlns="http://www.w3.org/2000/svg" width="938" height="938">
<path d="M0 0 C1.5695192 -0.00101212 1.5695192 -0.00101212 3.17074585 -0.00204468 C80.51641307 0.07704767 153.20862674 25.86194247 210.5 78.25 C211.48226562 79.12785156 212.46453125 80.00570312 213.4765625 80.91015625 C219.90830501 86.67686312 225.90853787 92.65353651 231.5 99.25 C231.96986328 99.79688477 232.43972656 100.34376953 232.92382812 100.90722656 C268.1777759 142.12688069 285.49886524 187.53279036 289.5 241.25 C290.86318359 240.06857422 290.86318359 240.06857422 292.25390625 238.86328125 C312.5859375 221.2421875 332.91796875 203.62109375 353.25 186 C353.86883057 185.46366943 354.48766113 184.92733887 355.12524414 184.37475586 C356.37438737 183.29218675 357.62357352 182.20966716 358.87280273 181.12719727 C362.01126635 178.40757723 365.14896319 175.68708196 368.28515625 172.96484375 C369.54421286 171.87232902 370.80332725 170.77988087 372.0625 169.6875 C372.68020264 169.15157227 373.29790527 168.61564453 373.93432617 168.06347656 C378.79510008 163.85067842 383.68380457 159.67121794 388.57568359 155.49462891 C391.99390283 152.56737077 395.35883168 149.59190319 398.6875 146.5625 C402.02227114 143.53287132 405.43287639 140.64391908 408.9375 137.8125 C413.71284402 133.95058325 418.23667685 129.87325776 422.75390625 125.71484375 C425.41875166 123.32292703 428.14831825 121.05745116 430.9375 118.8125 C434.93224254 115.59056683 438.74552109 112.24342389 442.5 108.75 C447.13005388 104.44229637 451.91208224 100.3997791 456.84765625 96.44140625 C459.51508858 94.23753359 462.03486294 91.92451966 464.5625 89.5625 C474.64352957 80.40956521 484.04520109 76.72171591 497.70703125 76.9375 C508.36591604 77.81567794 516.64042318 82.8416977 523.75 90.625 C530.3338974 98.80119868 532.92479645 107.79045777 532.375 118.25 C530.98431241 130.24659078 524.99282951 138.15924159 517.5 147.25 C516.68184814 148.24725098 516.68184814 148.24725098 515.84716797 149.26464844 C513.48537509 152.14155937 511.11969608 155.01513809 508.74462891 157.88110352 C505.0957445 162.28733151 501.51287518 166.73475137 498 171.25 C493.92097072 176.49122349 489.73633627 181.63516873 485.5 186.75 C481.24571677 191.8874538 477.03958679 197.05260261 472.9375 202.3125 C466.36344934 210.74207102 459.59350292 219.01001108 452.83398438 227.29101562 C447.18632615 234.21288111 441.55653798 241.14277434 436.0625 248.1875 C431.37973973 254.19196549 426.55012812 260.06659305 421.69384766 265.93115234 C418.0465898 270.34520299 414.45875211 274.79737739 410.9375 279.3125 C404.36344934 287.74207102 397.59350292 296.01001108 390.83398438 304.29101562 C385.18632615 311.21288111 379.55653798 318.14277434 374.0625 325.1875 C369.37973973 331.19196549 364.55012812 337.06659305 359.69384766 342.93115234 C356.0465898 347.34520299 352.45875211 351.79737739 348.9375 356.3125 C342.36344934 364.74207102 335.59350292 373.01001108 328.83398438 381.29101562 C323.18632615 388.21288111 317.55653798 395.14277434 312.0625 402.1875 C307.37973973 408.19196549 302.55012812 414.06659305 297.69384766 419.93115234 C294.0465898 424.34520299 290.45875211 428.79737739 286.9375 433.3125 C280.36344934 441.74207102 273.59350292 450.01001108 266.83398438 458.29101562 C261.18632615 465.21288111 255.55653798 472.14277434 250.0625 479.1875 C245.38262819 485.18826176 240.55642001 491.05962816 235.70263672 496.92016602 C231.50703344 501.9972034 227.40575428 507.13857594 223.35620117 512.33251953 C219.15820015 517.71093765 214.84678751 522.99092375 210.5 528.25 C216.92369414 534.67369414 230.31785955 533.62985101 238.8125 533.6875 C260.34046931 534.20262882 278.85513147 539.76834173 294.5 555.25 C307.39994462 570.10302034 311.56808522 588.59642313 310.26171875 607.7421875 C306.27966843 648.36714528 277.32602965 682.86898374 246.9375 708.0625 C245.13593588 709.47241974 243.32257942 710.86735355 241.5 712.25 C240.3370619 713.15341715 239.17431443 714.05707973 238.01171875 714.9609375 C222.05602801 727.24902975 205.23233585 738.17494714 187.67431641 748.02246094 C185.65000308 749.16531378 183.64143137 750.33100938 181.63671875 751.5078125 C96.25244941 801.27921257 -5.45822167 813.2552756 -100.66625977 789.24780273 C-130.59946805 781.34775503 -159.07301733 769.55708308 -186.5 755.25 C-188.22669922 754.37214844 -188.22669922 754.37214844 -189.98828125 753.4765625 C-214.37496078 740.93906266 -237.22923107 725.5140122 -258.5 708.25 C-259.42683594 707.50492188 -260.35367188 706.75984375 -261.30859375 705.9921875 C-264.05732556 703.76607378 -266.78056371 701.51178428 -269.5 699.25 C-270.51964844 698.41726563 -271.53929687 697.58453125 -272.58984375 696.7265625 C-286.36474374 685.32819547 -299.73672278 672.67403805 -310.71484375 658.53125 C-312.48618585 656.2676531 -314.36302737 654.1734441 -316.3125 652.0625 C-331.75290222 634.76803373 -344.57132359 614.52694099 -355.48486328 594.13183594 C-356.50866975 592.23392822 -357.56210244 590.35502862 -358.62109375 588.4765625 C-407.02113106 501.46074493 -412.36130208 394.25822316 -386.1875 299.5625 C-375.44919784 262.02466395 -360.2674789 225.39028494 -339.5 192.25 C-339.05946289 191.54584961 -338.61892578 190.84169922 -338.16503906 190.11621094 C-321.12539164 163.03901393 -301.3266818 137.70179104 -278.5 115.25 C-275.75966884 112.52332497 -273.03790582 109.7802137 -270.3359375 107.015625 C-264.29038054 100.85585288 -258.23279287 94.92702762 -251.4453125 89.57421875 C-249.24159348 87.83520971 -247.07937805 86.07306591 -244.9296875 84.26953125 C-234.89926422 75.89350615 -224.41101913 68.43229694 -213.5 61.25 C-212.85160156 60.81623047 -212.20320312 60.38246094 -211.53515625 59.93554688 C-158.61764077 24.63855716 -97.03451092 8.18626814 -34.5 1.25 C-33.57993164 1.14397461 -32.65986328 1.03794922 -31.71191406 0.92871094 C-21.18109236 -0.12626187 -10.57249144 0.00612489 0 0 Z M-214.5 86.25 C-215.24169434 86.78222168 -215.98338867 87.31444336 -216.74755859 87.86279297 C-226.8197643 95.11174631 -236.2673755 102.96464226 -245.5 111.25 C-246.03125488 111.7234082 -246.56250977 112.19681641 -247.10986328 112.68457031 C-261.14601799 125.23090324 -274.9419281 138.36320339 -286.5 153.25 C-288.09934976 155.1498987 -289.70380245 157.0455098 -291.3125 158.9375 C-310.90719992 182.49347414 -327.27627304 208.6203332 -340.52587891 236.23681641 C-341.54297312 238.33881111 -342.58847273 240.42510251 -343.63671875 242.51171875 C-364.55968332 284.70253192 -376.65089499 332.39999433 -380.5 379.25 C-380.61214844 380.56355469 -380.72429687 381.87710937 -380.83984375 383.23046875 C-387.68555515 474.84742459 -360.60190444 569.86071886 -300.1887207 640.03320312 C-298.96283829 641.44202246 -297.73162122 642.8461949 -296.5 644.25 C-295.6028125 645.29607422 -295.6028125 645.29607422 -294.6875 646.36328125 C-284.03716649 658.72893289 -272.98747013 670.81821507 -260.22265625 681.01953125 C-257.71437935 683.07437503 -255.36055283 685.21652769 -253 687.4375 C-232.47207115 706.03490262 -207.75082084 721.06981742 -183.5 734.25 C-182.14986816 734.9917749 -182.14986816 734.9917749 -180.77246094 735.74853516 C-127.4540836 764.91726459 -67.39450136 781.80123528 -6.5 781.5625 C-5.52509613 781.56067719 -4.55019226 781.55885437 -3.54574585 781.55697632 C21.94640063 781.47721187 46.59505989 778.81873178 71.5 773.25 C72.43908203 773.04036621 73.37816406 772.83073242 74.34570312 772.61474609 C86.83193151 769.7490905 98.9524175 765.89185972 111.0625 761.75 C111.72969055 761.52270203 112.3968811 761.29540405 113.08428955 761.06121826 C127.29067968 756.19620845 140.87251276 750.27973137 154.23095703 743.41552734 C155.81872925 742.59994475 157.40841151 741.78807479 158.99951172 740.97900391 C170.26743711 735.24325422 181.20099742 729.22642473 191.80859375 722.34179688 C194.2279978 720.78007994 196.6799017 719.27107859 199.125 717.75 C227.06432129 699.89058355 254.98760322 678.01467804 273.5 650.25 C274.58861328 648.68765625 274.58861328 648.68765625 275.69921875 647.09375 C286.65665049 630.56368154 292.97613876 609.95873466 290.03515625 590.11328125 C287.19003358 576.96511081 280.13555987 568.32609726 269.16015625 560.890625 C258.52708158 554.33278159 246.9380212 553.0831398 234.625 553.3125 C223.22251372 553.52291373 212.32995075 551.48475025 201.83203125 546.921875 C198.78693587 546.04456109 197.47426926 546.08712781 194.5 547.25 C183.22404693 556.17090703 179.50542599 568.27004358 176.2265625 581.66015625 C166.2277809 621.85192137 140.89839858 659.78705211 105.40722656 681.53222656 C57.26159599 709.97113687 0.77069647 706.32808856 -51.49902344 692.94726562 C-77.81557045 686.01993959 -102.72018161 675.48704177 -126.5 662.25 C-125.27651855 661.93361572 -125.27651855 661.93361572 -124.02832031 661.61083984 C-120.9389822 660.80505862 -117.85314503 659.98719765 -114.76904297 659.16162109 C-113.44573953 658.8099136 -112.12122101 658.46273952 -110.79541016 658.12060547 C-93.45884817 653.63859816 -78.55960431 646.58576412 -68.5 631.25 C-58.84623747 613.8535259 -56.02925406 595.56428895 -55.21508789 575.93383789 C-53.64608628 540.07641078 -39.31068004 507.96617931 -14.5 482.25 C-13.77167969 481.45851563 -13.04335938 480.66703125 -12.29296875 479.8515625 C2.98330172 463.69669392 24.89615804 451.8417903 46.24194336 446.0871582 C55.83822356 443.49166916 61.58217187 440.60783133 68.5 433.25 C70.29071419 431.74453231 72.10419084 430.2657955 73.9375 428.8125 C78.711403 424.95174863 83.23388428 420.87562925 87.75 416.71875 C91.31184229 413.52118704 95.02565833 410.53611657 98.75 407.53125 C102.53905407 404.38805742 106.13269352 401.04841405 109.75390625 397.71484375 C112.41875166 395.32292703 115.14831825 393.05745116 117.9375 390.8125 C121.93223986 387.59056899 125.74554349 384.24344505 129.5 380.75 C134.11004336 376.46044887 138.87782956 372.44589328 143.78515625 368.49609375 C146.60673495 366.1616941 149.30590712 363.73009402 152 361.25 C156.44727112 357.15648909 161.04717463 353.32557501 165.75 349.53125 C169.53905407 346.38805742 173.13269352 343.04841405 176.75390625 339.71484375 C179.41875166 337.32292703 182.14831825 335.05745116 184.9375 332.8125 C188.93223986 329.59056899 192.74554349 326.24344505 196.5 322.75 C201.11004336 318.46044887 205.87782956 314.44589328 210.78515625 310.49609375 C213.60673495 308.1616941 216.30590712 305.73009402 219 303.25 C223.44727112 299.15648909 228.04717463 295.32557501 232.75 291.53125 C235.58099578 289.18281032 238.29383598 286.74090098 241 284.25 C244.57792463 280.95668301 248.21539666 277.80348679 252 274.75 C252.8448999 274.05060303 253.6897998 273.35120605 254.56030273 272.63061523 C256.46598431 271.08736292 258.41528564 269.59591743 260.41040039 268.17016602 C264.75372616 264.80284364 267.97715926 262.17406466 269.45068359 256.75146484 C269.7328771 252.67296021 269.67137309 248.76157616 269.4375 244.6875 C269.39068553 243.21720607 269.34661243 241.7468225 269.30517578 240.27636719 C267.51607773 189.44800797 246.69308527 145.88596404 212.734375 108.70703125 C211.26874924 107.09535537 209.82006451 105.46807418 208.390625 103.82421875 C197.44293164 91.29829953 184.88721268 81.05508741 171.5 71.25 C170.63375 70.61384766 170.63375 70.61384766 169.75 69.96484375 C88.11614406 10.50556887 -18.64239727 10.01064106 -214.5 86.25 Z M477.0625 105.625 C476.45978271 106.15101807 475.85706543 106.67703613 475.23608398 107.21899414 C473.96252719 108.33087116 472.69115979 109.44526039 471.421875 110.56201172 C468.9343388 112.74682184 466.4300319 114.91186358 463.92529297 117.0769043 C460.7795866 119.79672407 457.64026766 122.52390469 454.5 125.25 C451.97959136 127.43798999 449.45881365 129.62555294 446.9375 131.8125 C446.31987793 132.34834717 445.70225586 132.88419434 445.06591797 133.4362793 C440.20509927 137.64920119 435.31628267 141.82870757 430.42431641 146.00537109 C427.00609717 148.93262923 423.64116832 151.90809681 420.3125 154.9375 C416.97772886 157.96712868 413.56712361 160.85608092 410.0625 163.6875 C405.288597 167.54825137 400.76611572 171.62437075 396.25 175.78125 C392.68815771 178.97881296 388.97434167 181.96388343 385.25 184.96875 C381.46094593 188.11194258 377.86730648 191.45158595 374.24609375 194.78515625 C371.58124834 197.17707297 368.85168175 199.44254884 366.0625 201.6875 C362.06776014 204.90943101 358.25445651 208.25655495 354.5 211.75 C349.88995664 216.03955113 345.12217044 220.05410672 340.21484375 224.00390625 C337.39326505 226.3383059 334.69409288 228.76990598 332 231.25 C327.55272888 235.34351091 322.95282537 239.17442499 318.25 242.96875 C315.41900422 245.31718968 312.70616402 247.75909902 310 250.25 C305.55272888 254.34351091 300.95282537 258.17442499 296.25 261.96875 C292.46094593 265.11194258 288.86730648 268.45158595 285.24609375 271.78515625 C282.58124834 274.17707297 279.85168175 276.44254884 277.0625 278.6875 C273.06776014 281.90943101 269.25445651 285.25655495 265.5 288.75 C260.88995664 293.03955113 256.12217044 297.05410672 251.21484375 301.00390625 C248.39326505 303.3383059 245.69409288 305.76990598 243 308.25 C238.55272888 312.34351091 233.95282537 316.17442499 229.25 319.96875 C225.46094593 323.11194258 221.86730648 326.45158595 218.24609375 329.78515625 C215.58124834 332.17707297 212.85168175 334.44254884 210.0625 336.6875 C206.06776014 339.90943101 202.25445651 343.25655495 198.5 346.75 C193.88995664 351.03955113 189.12217044 355.05410672 184.21484375 359.00390625 C181.39326505 361.3383059 178.69409288 363.76990598 176 366.25 C171.55272888 370.34351091 166.95282537 374.17442499 162.25 377.96875 C159.41900422 380.31718968 156.70616402 382.75909902 154 385.25 C149.55272888 389.34351091 144.95282537 393.17442499 140.25 396.96875 C136.46094593 400.11194258 132.86730648 403.45158595 129.24609375 406.78515625 C126.58124834 409.17707297 123.85168175 411.44254884 121.0625 413.6875 C117.06776014 416.90943101 113.25445651 420.25655495 109.5 423.75 C104.89821458 428.03186728 100.1384613 432.03897176 95.2421875 435.984375 C89.05125599 441.09938964 83.1628776 446.55871456 77.5 452.25 C81.19541557 455.97035349 84.89427082 459.68724226 88.59619141 463.40112305 C89.8519982 464.66192215 91.10690164 465.92362176 92.36083984 467.1862793 C101.23039226 476.13001781 101.23039226 476.13001781 110.5859375 484.55639648 C115.6672261 489.05242952 120.31902278 494.03597767 125.078125 498.8671875 C128.79217847 502.61541938 132.49283352 506.31413637 136.5 509.75 C142.35966955 514.77425481 147.66536808 520.37241912 153.078125 525.8671875 C159.23482959 532.08054888 165.45307714 538.05017807 172.5 543.25 C178.94337269 535.85080413 185.26195523 528.39235568 191.2824707 520.64404297 C194.79443552 516.12874905 198.38141974 511.68020953 202 507.25 C206.03226615 502.31071033 210.0181114 497.34180396 213.9375 492.3125 C218.62065104 486.30704749 223.45081655 480.43149691 228.30834961 474.56665039 C231.93688987 470.17598271 235.5016337 465.74493356 239 461.25 C243.6597874 455.26279542 248.46932515 449.40906531 253.30859375 443.56640625 C256.93700927 439.17578528 260.50170424 434.74484293 264 430.25 C268.07913396 425.00885756 272.26361318 419.86479473 276.5 414.75 C281.3104999 408.94185874 286.0329416 403.07778059 290.67236328 397.13232422 C294.07515461 392.77559655 297.55120943 388.48482388 301.0625 384.21484375 C308.10553329 375.6480773 315.11779655 367.05852369 321.9375 358.3125 C326.61731745 352.31169693 331.44358142 346.44037012 336.29736328 340.57983398 C340.50261087 335.49112617 344.61137956 330.33650766 348.67236328 325.13232422 C352.07515461 320.77559655 355.55120943 316.48482388 359.0625 312.21484375 C366.10553329 303.6480773 373.11779655 295.05852369 379.9375 286.3125 C384.62020589 280.30799317 389.4498733 274.43340523 394.30615234 268.56884766 C397.9534102 264.15479701 401.54124789 259.70262261 405.0625 255.1875 C411.63655066 246.75792898 418.40649708 238.48998892 425.16601562 230.20898438 C430.81367385 223.28711889 436.44346202 216.35722566 441.9375 209.3125 C446.61737181 203.31173824 451.44357999 197.44037184 456.29736328 191.57983398 C460.50261087 186.49112617 464.61137956 181.33650766 468.67236328 176.13232422 C472.07515461 171.77559655 475.55120943 167.48482388 479.0625 163.21484375 C488.0074038 152.33474442 496.93660006 141.43427685 505.5 130.25 C506.48033203 128.98542969 506.48033203 128.98542969 507.48046875 127.6953125 C511.09048345 122.73904528 512.96381915 118.46738532 512.5 112.25 C511.31159629 106.02769753 508.67162342 102.76670393 503.5 99.25 C493.53169236 93.59231188 484.73674527 98.80823699 477.0625 105.625 Z M53.71484375 462.94921875 C51.94066919 463.57054001 50.18150507 464.23594331 48.4375 464.9375 C47.04422485 465.45509888 47.04422485 465.45509888 45.62280273 465.9831543 C42.89145852 467.02169452 40.19387371 468.11818098 37.5 469.25 C36.80293945 469.54165039 36.10587891 469.83330078 35.38769531 470.13378906 C6.68293562 482.52529831 -15.79081681 507.72663565 -27.71386719 536.23486328 C-29.08558872 539.7510712 -30.23269985 543.32214498 -31.3125 546.9375 C-31.50739014 547.58944336 -31.70228027 548.24138672 -31.90307617 548.91308594 C-34.83467566 559.35779738 -35.78061716 569.89507649 -36.375 580.6875 C-38.27410948 609.99579773 -44.62420432 637.3556076 -66.5 658.25 C-69.0758009 660.40799383 -71.68706721 662.41232471 -74.5 664.25 C-56.23143533 682.51856467 -4.45724743 684.04708816 20.1875 684.4375 C54.06877952 684.33061899 85.26491443 674.78420067 111.5 653.25 C112.32371094 652.58097656 113.14742187 651.91195312 113.99609375 651.22265625 C119.94973015 646.17702679 124.78239551 640.44957448 129.5 634.25 C130.20769531 633.33089844 130.91539062 632.41179687 131.64453125 631.46484375 C146.8753762 610.63563417 156.58429333 586.23607684 162.5 561.25 C161.85417969 560.67636719 161.20835937 560.10273437 160.54296875 559.51171875 C152.88858925 552.61125898 145.58323853 545.40804275 138.35229492 538.06518555 C134.84423034 534.51900178 131.33447514 531.04501754 127.546875 527.796875 C121.67451529 522.75300518 116.35043121 517.14361956 110.921875 511.6328125 C107.22847283 507.90542196 103.55142424 504.22461442 99.5625 500.8125 C93.736744 495.81732367 88.44720811 490.25355847 83.06347656 484.79296875 C75.43395128 477.05375521 75.43395128 477.05375521 67.32006836 469.83081055 C65.5 468.25 65.5 468.25 63.80688477 466.39770508 C60.43013106 462.86962878 58.58330924 461.73281679 53.71484375 462.94921875 Z " fill="#FFFFFF" transform="translate(403.5,68.75)"/>
<path d="M0 0 C13.44694205 12.53447098 22.78409371 30.14116927 23.6875 48.609375 C24.31299428 69.40142868 20.27541535 88.15028204 5.875 103.8125 C4.0759448 105.68670755 2.23749255 107.49930872 0.375 109.3125 C-0.66140625 110.34503906 -0.66140625 110.34503906 -1.71875 111.3984375 C-14.71253831 123.59342735 -32.00600936 128.71982599 -49.4375 128.625 C-50.50194336 128.62008545 -51.56638672 128.6151709 -52.66308594 128.61010742 C-60.03344344 128.49992498 -66.67338577 127.91143176 -73.625 125.3125 C-75.05199219 124.83683594 -75.05199219 124.83683594 -76.5078125 124.3515625 C-95.27515387 117.44243682 -109.02536868 103.06914615 -117.625 85.3125 C-125.44935109 66.40365152 -125.89947471 46.11428145 -118.3125 27 C-113.82546159 17.05395344 -108.2637141 9.10980332 -100.625 1.3125 C-99.75488281 0.38824219 -99.75488281 0.38824219 -98.8671875 -0.5546875 C-90.00130924 -9.18202195 -76.7199388 -15.5160932 -64.625 -17.6875 C-63.366875 -17.914375 -62.10875 -18.14125 -60.8125 -18.375 C-38.04084575 -20.55034095 -17.58820036 -14.69239614 0 0 Z M-91.625 20.3125 C-101.0190309 32.27507089 -104.59136383 46.28017377 -103.625 61.3125 C-101.39091024 77.21618979 -93.49227967 88.90898915 -81.3125 99.125 C-68.84305839 108.33587673 -54.66869468 110.56606934 -39.625 108.3125 C-25.98307849 105.24581805 -13.56076898 98.09945098 -5.625 86.3125 C2.82317891 71.38969216 6.4939454 57.28009596 2.375 40.3125 C-0.20453198 32.16238339 -3.93084729 25.6591077 -9.625 19.3125 C-10.24375 18.61253906 -10.8625 17.91257812 -11.5 17.19140625 C-20.85460516 7.21441809 -32.42875262 2.03237395 -46 1.07421875 C-64.339399 0.69873537 -79.02978359 6.89171478 -91.625 20.3125 Z " fill="#FFFFFF" transform="translate(541.625,197.6875)"/>
<path d="M0 0 C1.85255946 1.77905954 3.64561726 3.59553358 5.4375 5.4375 C6.04078125 6.04335938 6.6440625 6.64921875 7.265625 7.2734375 C14.56886283 15.15324674 19.39936677 25.22387622 22.4375 35.4375 C22.66308594 36.16582031 22.88867188 36.89414062 23.12109375 37.64453125 C27.80770021 56.10006427 24.16428548 75.7217298 15.35546875 92.25 C12.46491238 97.05385743 9.18801471 101.27995269 5.4375 105.4375 C4.83421875 106.13359375 4.2309375 106.8296875 3.609375 107.546875 C-9.27116314 121.50981131 -27.60712346 127.83696066 -46.0546875 129.6875 C-48.26198447 129.75413538 -50.36262496 129.63912521 -52.5625 129.4375 C-53.69042969 129.3446875 -54.81835938 129.251875 -55.98046875 129.15625 C-64.84287379 128.21670859 -72.46999859 126.14699489 -80.5625 122.4375 C-81.96435547 121.80714844 -81.96435547 121.80714844 -83.39453125 121.1640625 C-100.06051839 112.91451808 -113.23402557 96.8866771 -119.25146484 79.43994141 C-125.22789987 60.19683124 -123.91667907 40.21250718 -115.3125 22 C-112.025035 15.88068882 -108.20864343 10.58787606 -103.5625 5.4375 C-102.95921875 4.74140625 -102.3559375 4.0453125 -101.734375 3.328125 C-90.42412295 -8.9325684 -72.92132191 -16.92125407 -56.35546875 -18.4609375 C-35.56913827 -19.21680406 -15.54878364 -14.32601047 0 0 Z M-90.5625 20.4375 C-100.50427588 33.22506303 -103.88887084 47.46918069 -102.5625 63.4375 C-100.91838907 73.00503709 -97.34943682 80.69701126 -91.5625 88.4375 C-91.02753906 89.16710937 -90.49257812 89.89671875 -89.94140625 90.6484375 C-81.17226981 101.62562987 -67.27947837 107.69326884 -53.5625 109.4375 C-39.22295527 110.77086713 -26.19157342 105.8338761 -14.76953125 97.3671875 C-4.4858546 88.68595971 1.50719595 77.49053406 4.4375 64.4375 C5.49400898 47.27355908 2.59310594 33.03325642 -8.3359375 19.19140625 C-18.68659621 7.98911106 -31.72556695 2.77665888 -46.56640625 1.09765625 C-63.7677289 0.47169837 -79.10110904 7.92759062 -90.5625 20.4375 Z " fill="#FFFFFF" transform="translate(246.5625,560.5625)"/>
<path d="M0 0 C13.21820006 11.37936125 22.87302963 28.98455431 24.2578125 46.44580078 C25.4497794 69.29804113 20.57133881 88.67556 5.4543457 106.18041992 C-7.56109642 120.38290934 -26.80827421 128.57639631 -45.890625 129.8125 C-66.29872004 130.41053942 -84.44409792 123.11178492 -99.7109375 109.875 C-111.36223044 98.86916221 -119.00844433 84.4183836 -121.9609375 68.6875 C-122.1878125 67.511875 -122.4146875 66.33625 -122.6484375 65.125 C-124.54549537 44.2573634 -118.87277956 24.57529899 -105.8984375 8.0625 C-78.54167824 -23.98398942 -31.9696622 -26.23733757 0 0 Z M-87.9609375 17.6875 C-98.82904546 30.78388542 -104.2994287 44.60580273 -102.9609375 61.6875 C-100.69622482 77.59758232 -92.84383614 89.27088846 -80.6484375 99.5 C-70.30866714 107.13773978 -56.77739992 111.05574396 -43.9609375 109.6875 C-27.36527498 106.81252527 -14.48762251 100.00740941 -4.1484375 86.28125 C4.01995219 73.70192987 6.74346701 58.3183021 3.82421875 43.6640625 C1.36751011 34.35057003 -2.5770478 26.87495623 -8.9609375 19.6875 C-9.7240625 18.82125 -10.4871875 17.955 -11.2734375 17.0625 C-20.44304437 8.95912649 -31.45274213 2.38239974 -43.9609375 1.6875 C-45.15203125 1.61208984 -45.15203125 1.61208984 -46.3671875 1.53515625 C-61.47961201 0.99232491 -77.5888178 6.26058847 -87.9609375 17.6875 Z " fill="#FFFFFF" transform="translate(193.9609375,353.3125)"/>
<path d="M0 0 C14.23078497 12.27285818 24.2579115 28.22271854 26.5625 47.125 C27.98116822 69.40908079 23.84684665 88.75466561 9.25 106.21875 C8.693125 106.8478125 8.13625 107.476875 7.5625 108.125 C7.0675 108.7128125 6.5725 109.300625 6.0625 109.90625 C-2.46431416 119.28574558 -14.49823131 125.41056085 -26.4375 129.125 C-27.20707031 129.36992187 -27.97664063 129.61484375 -28.76953125 129.8671875 C-48.2832352 134.85668098 -69.52170951 130.40772538 -86.58740234 120.33154297 C-91.80691149 116.92763505 -96.1396677 112.60053746 -100.4375 108.125 C-101.12457031 107.4340625 -101.81164062 106.743125 -102.51953125 106.03125 C-115.32613981 92.41550931 -121.03905321 72.91553032 -120.6875 54.546875 C-119.09098405 32.69456298 -109.45798484 15.18423017 -93.625 0.4375 C-66.5536957 -22.21073686 -27.53536013 -21.05645186 0 0 Z M-68.4375 8.125 C-69.22125 8.475625 -70.005 8.82625 -70.8125 9.1875 C-84.62793553 16.09521777 -93.22480643 27.88424776 -98.4921875 42.046875 C-103.03075666 56.82535638 -100.34491768 71.78770519 -93.234375 85.234375 C-85.3154281 97.97355045 -73.19724418 106.93852123 -58.68359375 110.58203125 C-47.1073953 112.51836288 -36.36151592 111.52218453 -25.4375 107.125 C-24.35275391 106.70927734 -24.35275391 106.70927734 -23.24609375 106.28515625 C-9.34941018 100.19307477 -0.88260678 88.52693701 4.6171875 74.88671875 C8.79516538 62.68080817 7.99083578 47.88654287 3.03125 36.09375 C-4.02656209 21.8279596 -14.65851616 11.85289995 -29.4375 6.125 C-41.93665425 2.06139545 -56.54014598 2.61159204 -68.4375 8.125 Z " fill="#FFFFFF" transform="translate(327.4375,187.875)"/>
</svg>
