<svg version="1.1" id="Layer_1" xmlns="http://www.w3.org/2000/svg" xmlns:xlink="http://www.w3.org/1999/xlink" x="0px" y="0px"
	 width="100%" viewBox="0 0 938 938" enable-background="new 0 0 938 938" xml:space="preserve">
<path fill="#000000" opacity="1.000000" stroke="none" 
	d="
M1.000000,356.000000 
	C1.000000,237.333328 1.000000,119.166664 1.000000,1.000000 
	C313.666656,1.000000 626.333313,1.000000 939.000000,1.000000 
	C939.000000,313.666656 939.000000,626.333313 939.000000,939.000000 
	C626.333313,939.000000 313.666656,939.000000 1.000000,939.000000 
	C1.000000,744.833313 1.000000,550.666687 1.000000,356.000000 
M91.169510,742.677307 
	C92.432198,744.156372 93.694885,745.635437 95.227097,747.735718 
	C98.230934,751.402893 100.998405,755.299011 104.284874,758.692505 
	C112.670639,767.351562 120.848091,776.291626 129.918655,784.189148 
	C142.615524,795.243958 155.578064,806.111694 169.265213,815.885498 
	C194.886307,834.181030 222.646637,848.909485 251.978195,860.265991 
	C271.279205,867.738953 291.002625,874.382751 310.971680,879.793152 
	C330.055054,884.963684 349.678131,888.172791 369.106506,892.029968 
	C385.872589,895.358521 402.603271,896.990356 419.822449,894.230103 
	C435.561615,891.707092 450.703217,887.617188 464.773346,880.472717 
	C484.291229,870.562073 501.074524,857.188599 511.791229,837.494263 
	C519.480652,823.363220 521.686646,808.318481 519.183960,792.394836 
	C517.458679,781.418152 512.868164,771.757324 507.690765,762.094482 
	C495.017456,738.441772 483.271240,714.275940 476.761475,688.107971 
	C473.550964,675.202515 471.617615,661.896912 470.216187,648.654907 
	C469.372986,640.687866 470.365753,632.468567 471.070129,624.409546 
	C472.076172,612.898865 475.696075,601.959717 482.241241,592.561890 
	C488.063385,584.202209 495.385468,576.887146 502.700531,568.750732 
	C501.820435,566.468933 500.940338,564.187073 500.029022,561.974121 
	C500.029022,561.974121 500.097565,561.942261 500.002869,561.228394 
	C498.688629,559.120667 497.374390,557.012939 496.029022,554.973999 
	C496.029022,554.973999 496.097565,554.942261 496.002869,554.228394 
	C494.688629,552.120667 493.374390,550.012939 492.029022,547.973999 
	C492.029022,547.973999 492.097565,547.942261 492.002869,547.228394 
	C490.688629,545.120667 489.374420,543.012939 488.029022,540.973999 
	C488.029022,540.973999 488.097565,540.942261 488.002838,540.228394 
	C486.688629,538.120667 485.374390,536.012939 484.029510,533.973938 
	C484.029510,533.973938 484.097931,533.942627 484.003815,533.251770 
	C483.022614,531.802917 482.041412,530.354065 481.029022,528.973999 
	C481.029022,528.973999 481.097565,528.942261 481.002869,528.228394 
	C479.688629,526.120667 478.374420,524.012939 477.029022,521.973999 
	C477.029022,521.973999 477.097565,521.942261 477.002869,521.228394 
	C475.688660,519.120667 474.374420,517.012939 473.029022,514.973999 
	C473.029022,514.973999 473.097565,514.942261 473.002869,514.228394 
	C471.688690,512.120667 470.374481,510.012909 469.029541,507.973755 
	C469.029541,507.973755 469.097961,507.942657 469.003815,507.251740 
	C468.022644,505.802917 467.041473,504.354065 466.028961,502.973938 
	C466.028961,502.973938 466.097534,502.942230 466.002808,502.228424 
	C464.688629,500.120697 463.374451,498.012939 462.028992,495.973938 
	C462.028992,495.973938 462.097534,495.942230 462.002838,495.228424 
	C460.688660,493.120667 459.374481,491.012909 458.029541,488.973755 
	C458.029541,488.973755 458.097961,488.942657 458.003815,488.251740 
	C457.022644,486.802887 456.041473,485.354065 455.028961,483.973938 
	C455.028961,483.973938 455.097534,483.942230 455.002838,483.228424 
	C453.688660,481.120667 452.374451,479.012939 451.028992,476.973938 
	C451.028992,476.973938 451.097534,476.942230 451.002838,476.228424 
	C449.688629,474.120697 448.374451,472.012939 447.029541,469.973755 
	C447.029541,469.973755 447.097961,469.942657 447.003845,469.251740 
	C446.022675,467.802887 445.041504,466.354034 444.028961,464.973938 
	C444.028961,464.973938 444.097534,464.942230 444.002838,464.228424 
	C442.688660,462.120667 441.374451,460.012939 440.028992,457.973938 
	C440.028992,457.973938 440.097534,457.942230 440.002838,457.228424 
	C438.688660,455.120667 437.374451,453.012939 436.028992,450.973938 
	C436.028992,450.973938 436.097534,450.942230 436.002838,450.228424 
	C434.688660,448.120667 433.374481,446.012909 432.029541,443.973755 
	C432.029541,443.973755 432.097961,443.942657 432.003815,443.251740 
	C431.022644,441.802887 430.041473,440.354034 429.028961,438.973938 
	C429.028961,438.973938 429.097534,438.942230 429.002869,438.228424 
	C427.688660,436.120667 426.374481,434.012909 425.028992,431.973938 
	C425.028992,431.973938 425.097534,431.942230 425.002838,431.228424 
	C423.688660,429.120667 422.374451,427.012939 421.028992,424.973938 
	C421.028992,424.973938 421.097534,424.942230 421.002838,424.228424 
	C419.688629,422.120697 418.374451,420.012939 417.029541,417.973755 
	C417.029541,417.973755 417.097961,417.942657 417.003815,417.251740 
	C416.022644,415.802917 415.041473,414.354065 414.028961,412.973938 
	C414.028961,412.973938 414.097534,412.942230 414.002838,412.228424 
	C412.688660,410.120667 411.374451,408.012939 410.028992,405.973938 
	C410.028992,405.973938 410.097534,405.942230 410.002838,405.228424 
	C408.688660,403.120667 407.374481,401.012909 406.028992,398.973938 
	C406.028992,398.973938 406.097534,398.942230 406.002838,398.228424 
	C404.688660,396.120667 403.374451,394.012939 402.029541,391.973755 
	C402.029541,391.973755 402.097961,391.942657 402.003815,391.251740 
	C401.022644,389.802887 400.041473,388.354065 399.028961,386.973938 
	C399.028961,386.973938 399.097534,386.942230 399.002838,386.228424 
	C397.688660,384.120667 396.374451,382.012939 395.028992,379.973938 
	C395.028992,379.973938 395.097534,379.942230 395.002838,379.228424 
	C393.688629,377.120697 392.374451,375.012939 391.028992,372.973938 
	C391.028992,372.973938 391.097534,372.942230 391.002838,372.228424 
	C389.688660,370.120667 388.374451,368.012939 387.029541,365.973755 
	C387.029541,365.973755 387.097961,365.942657 387.003815,365.251740 
	C386.022644,363.802887 385.041473,362.354065 384.028961,360.973938 
	C384.028961,360.973938 384.097534,360.942230 384.002838,360.228424 
	C382.688660,358.120667 381.374481,356.012909 380.028931,353.973938 
	C380.028931,353.973938 380.097504,353.942200 379.998016,353.195770 
	C379.326538,351.556458 378.630432,349.926758 377.987366,348.276367 
	C370.023163,327.836639 362.066650,307.393890 353.973999,286.114746 
	C349.089935,285.398224 344.177063,284.837219 339.326843,283.938171 
	C318.757446,280.125275 300.573547,271.146118 286.065186,256.205963 
	C277.151306,247.026749 270.037109,236.099899 262.003632,225.224274 
	C257.371704,214.133408 252.739792,203.042542 248.014984,191.206375 
	C247.691330,190.100021 247.367676,188.993652 247.051788,187.613068 
	C247.042847,187.329971 246.970016,187.071152 246.967209,185.923553 
	C246.816238,185.341156 246.665253,184.758759 246.143555,183.641495 
	C245.095703,176.052948 243.545425,168.493668 243.101151,160.869949 
	C242.071213,143.196609 244.558258,125.727188 246.885223,108.250694 
	C247.545303,103.293205 246.986145,98.173393 246.986145,92.044403 
	C244.610031,93.388145 243.281387,94.139534 241.220917,94.997231 
	C217.244217,107.533821 194.645706,122.174210 173.442017,139.001099 
	C156.671249,152.310104 140.762741,166.441635 126.082268,182.130310 
	C108.340057,201.090973 92.210075,221.241135 78.596191,243.234558 
	C68.622604,259.346985 60.262066,276.457916 50.843616,293.686127 
	C50.617970,294.457397 50.392319,295.228638 49.861626,296.642639 
	C48.968609,298.469696 48.075596,300.296753 46.843613,302.686127 
	C46.617962,303.457397 46.392315,304.228638 45.916847,305.571259 
	C45.672089,306.088776 45.427330,306.606293 44.843597,307.686127 
	C44.617950,308.457397 44.392303,309.228638 43.916855,310.571259 
	C43.672096,311.088776 43.427338,311.606293 42.843601,312.686127 
	C42.617950,313.457397 42.392303,314.228638 41.916851,315.571259 
	C41.672092,316.088776 41.427330,316.606293 40.843601,317.686127 
	C40.617954,318.457397 40.392303,319.228638 39.922028,320.564514 
	C39.680580,321.073853 39.439129,321.583191 38.819023,322.714020 
	C38.268238,324.475983 37.717449,326.237946 36.923618,328.562500 
	C36.683960,329.069519 36.444298,329.576508 35.804886,330.730713 
	C27.481752,355.881134 19.693636,381.111511 17.898167,407.829071 
	C16.743820,425.006409 13.552916,442.102631 13.259037,459.269165 
	C12.808098,485.610229 11.565736,512.039795 14.977789,538.330688 
	C16.408751,549.356628 17.563637,560.418396 18.992994,571.444519 
	C21.651932,591.955872 26.851656,611.879761 32.874851,631.631165 
	C40.687084,657.249329 51.556850,681.512573 65.013062,704.606567 
	C69.982376,713.135010 75.752266,721.196960 81.240921,729.754333 
	C81.240921,729.754333 81.522697,729.841003 81.881737,730.385559 
	C83.567726,732.621948 85.253716,734.858398 86.974991,737.025085 
	C86.974991,737.025085 86.905304,737.060425 87.168350,737.675903 
	C88.425468,739.148865 89.682594,740.621826 90.974991,742.025085 
	C90.974991,742.025085 90.905304,742.060425 91.169510,742.677307 
M579.003845,511.251740 
	C578.022644,509.802856 577.041382,508.353973 576.028687,506.973816 
	C576.028687,506.973816 576.097351,506.942169 576.002808,506.228333 
	C574.688599,504.120575 573.374390,502.012817 572.028687,499.973816 
	C572.028687,499.973816 572.097351,499.942169 572.002808,499.228333 
	C570.688599,497.120575 569.374390,495.012848 568.029480,492.973663 
	C568.029480,492.973663 568.097900,492.942657 568.003845,492.251740 
	C567.022644,490.802856 566.041443,489.353973 565.028687,487.973816 
	C565.028687,487.973816 565.097351,487.942169 565.002808,487.228333 
	C563.688599,485.120575 562.374390,483.012848 561.028687,480.973816 
	C561.028687,480.973816 561.097351,480.942169 561.002808,480.228333 
	C559.688599,478.120575 558.374390,476.012848 557.029480,473.973663 
	C557.029480,473.973663 557.097900,473.942657 557.003845,473.251740 
	C556.022644,471.802856 555.041382,470.353973 554.028687,468.973816 
	C554.028687,468.973816 554.097351,468.942169 554.002808,468.228333 
	C552.688599,466.120575 551.374390,464.012848 550.028687,461.973816 
	C550.028687,461.973816 550.097351,461.942169 550.004639,461.270721 
	C549.372375,460.164368 548.740173,459.058044 548.003967,457.240021 
	C547.163818,456.097809 546.323730,454.955627 545.393066,453.690399 
	C540.985901,456.272308 536.947266,458.663330 532.885010,461.013580 
	C517.418640,469.961700 501.975037,478.950287 486.441925,487.781189 
	C483.991730,489.174164 483.451019,490.175171 485.062714,492.724335 
	C488.355652,497.932678 491.248108,503.393890 494.317230,508.744263 
	C505.954468,529.031677 517.551636,549.342285 529.248474,569.595337 
	C542.652527,592.804626 556.191040,615.936218 569.588135,639.149536 
	C581.195923,659.262451 592.625854,679.478149 604.248047,699.582703 
	C615.871460,719.689331 627.700500,739.677002 639.319397,759.786255 
	C650.045471,778.349976 660.540344,797.047241 671.267700,815.610291 
	C684.270508,838.110779 697.282776,860.607971 710.569214,882.941040 
	C714.527283,889.594116 719.420776,895.690857 724.167480,902.671143 
	C733.708069,912.145996 745.334106,913.899780 757.739746,910.883484 
	C777.485046,906.082520 787.126953,886.013245 783.539307,868.925964 
	C783.378845,868.587036 783.218384,868.248108 783.031555,867.980286 
	C783.031555,867.980286 783.096741,867.941589 783.012024,867.165710 
	C781.028076,863.078918 779.044128,858.992065 777.028931,854.973938 
	C777.028931,854.973938 777.097473,854.942261 777.002808,854.228394 
	C775.688599,852.120667 774.374390,850.012939 773.028931,847.973938 
	C773.028931,847.973938 773.097473,847.942261 773.002808,847.228394 
	C771.688599,845.120667 770.374390,843.012939 769.029358,840.973877 
	C769.029358,840.973877 769.097839,840.942627 769.003784,840.251648 
	C768.022522,838.802856 767.041321,837.354004 766.028931,835.973877 
	C766.028931,835.973877 766.097473,835.942261 766.002808,835.228394 
	C764.688599,833.120667 763.374390,831.012939 762.028931,828.973938 
	C762.028931,828.973938 762.097473,828.942261 762.002808,828.228394 
	C760.688599,826.120667 759.374390,824.012939 758.028931,821.973938 
	C758.028931,821.973938 758.097473,821.942261 758.002808,821.228394 
	C756.688599,819.120667 755.374390,817.012939 754.029358,814.973877 
	C754.029358,814.973877 754.097839,814.942627 754.003784,814.251648 
	C753.022583,812.802795 752.041321,811.354004 751.028931,809.973877 
	C751.028931,809.973877 751.097473,809.942261 751.002808,809.228394 
	C749.688599,807.120667 748.374390,805.012939 747.028931,802.973938 
	C747.028931,802.973938 747.097473,802.942261 747.002808,802.228394 
	C745.688599,800.120667 744.374390,798.012939 743.028931,795.973938 
	C743.028931,795.973938 743.097473,795.942261 743.002808,795.228394 
	C741.688599,793.120667 740.374390,791.012939 739.029358,788.973877 
	C739.029358,788.973877 739.097839,788.942627 739.003784,788.251648 
	C738.022583,786.802795 737.041382,785.354004 736.028931,783.973877 
	C736.028931,783.973877 736.097473,783.942261 736.002747,783.228394 
	C734.688538,781.120667 733.374329,779.012939 732.028931,776.973938 
	C732.028931,776.973938 732.097473,776.942261 732.002808,776.228394 
	C730.688599,774.120667 729.374390,772.012939 728.029358,769.973877 
	C728.029358,769.973877 728.097839,769.942627 728.003784,769.251648 
	C727.022522,767.802856 726.041321,766.354004 725.028931,764.973877 
	C725.028931,764.973877 725.097473,764.942261 725.002808,764.228394 
	C723.688599,762.120667 722.374390,760.012939 721.028931,757.973938 
	C721.028931,757.973938 721.097473,757.942261 721.002808,757.228394 
	C719.688599,755.120667 718.374390,753.012939 717.028931,750.973938 
	C717.028931,750.973938 717.097473,750.942261 717.002808,750.228394 
	C715.688599,748.120667 714.374390,746.012939 713.029358,743.973877 
	C713.029358,743.973877 713.097839,743.942627 713.003784,743.251648 
	C712.022583,741.802795 711.041321,740.354004 710.028931,738.973877 
	C710.028931,738.973877 710.097473,738.942261 710.002808,738.228394 
	C708.688599,736.120667 707.374390,734.012939 706.028931,731.973938 
	C706.028931,731.973938 706.097473,731.942261 706.002808,731.228394 
	C704.688599,729.120667 703.374390,727.012939 702.028931,724.973938 
	C702.028931,724.973938 702.097473,724.942261 702.002808,724.228394 
	C700.688599,722.120667 699.374390,720.012939 698.029358,717.973877 
	C698.029358,717.973877 698.097839,717.942627 698.003784,717.251648 
	C697.022583,715.802795 696.041382,714.353943 695.028931,712.973877 
	C695.028931,712.973877 695.097473,712.942261 695.002808,712.228394 
	C693.688599,710.120667 692.374390,708.012939 691.028931,705.973938 
	C691.028931,705.973938 691.097473,705.942261 691.002808,705.228394 
	C689.688599,703.120667 688.374390,701.012939 687.028931,698.973938 
	C687.028931,698.973938 687.097473,698.942261 687.002808,698.228394 
	C685.688599,696.120667 684.374390,694.012939 683.029358,691.973877 
	C683.029358,691.973877 683.097839,691.942627 683.003784,691.251648 
	C682.022522,689.802795 681.041321,688.354004 680.028931,686.973877 
	C680.028931,686.973877 680.097473,686.942261 680.002808,686.228394 
	C678.688599,684.120667 677.374390,682.012939 676.028931,679.973938 
	C676.028931,679.973938 676.097473,679.942261 676.002808,679.228394 
	C674.688599,677.120667 673.374390,675.012939 672.029358,672.973877 
	C672.029358,672.973877 672.097839,672.942627 672.003784,672.251648 
	C671.022583,670.802795 670.041321,669.354004 669.028931,667.973877 
	C669.028931,667.973877 669.097473,667.942261 669.002808,667.228394 
	C667.688599,665.120667 666.374390,663.012939 665.028931,660.973938 
	C665.028931,660.973938 665.097473,660.942261 665.002808,660.228394 
	C663.688599,658.120667 662.374390,656.012939 661.028931,653.973938 
	C661.028931,653.973938 661.097473,653.942261 661.002808,653.228394 
	C659.688599,651.120667 658.374390,649.012939 657.029358,646.973877 
	C657.029358,646.973877 657.097839,646.942627 657.003784,646.251648 
	C656.022583,644.802795 655.041382,643.353943 654.028931,641.973877 
	C654.028931,641.973877 654.097473,641.942261 654.002808,641.228394 
	C652.688599,639.120667 651.374390,637.012939 650.028931,634.973938 
	C650.028931,634.973938 650.097473,634.942261 650.002808,634.228394 
	C648.688599,632.120667 647.374390,630.012939 646.028931,627.973938 
	C646.028931,627.973938 646.097473,627.942261 646.002808,627.228394 
	C644.688599,625.120667 643.374390,623.012939 642.029358,620.973877 
	C642.029358,620.973877 642.097839,620.942627 642.003784,620.251648 
	C641.022583,618.802795 640.041321,617.354004 639.028931,615.973877 
	C639.028931,615.973877 639.097473,615.942261 639.002808,615.228394 
	C637.688599,613.120667 636.374390,611.012939 635.028931,608.973938 
	C635.028931,608.973938 635.097473,608.942261 635.002808,608.228394 
	C633.688599,606.120667 632.374390,604.012939 631.028931,601.973938 
	C631.028931,601.973938 631.097473,601.942261 631.002808,601.228394 
	C629.688599,599.120667 628.374390,597.012939 627.029358,594.973877 
	C627.029358,594.973877 627.097839,594.942627 627.003784,594.251648 
	C626.022583,592.802795 625.041382,591.354004 624.028931,589.973877 
	C624.028931,589.973877 624.097473,589.942261 624.002808,589.228394 
	C622.688599,587.120667 621.374390,585.012939 620.028931,582.973938 
	C620.028931,582.973938 620.097473,582.942261 620.002808,582.228394 
	C618.688599,580.120667 617.374390,578.012939 616.029358,575.973877 
	C616.029358,575.973877 616.097839,575.942627 616.003784,575.251648 
	C615.022583,573.802795 614.041321,572.354004 613.028931,570.973877 
	C613.028931,570.973877 613.097473,570.942261 613.002808,570.228394 
	C611.688599,568.120667 610.374390,566.012939 609.028931,563.973938 
	C609.028931,563.973938 609.097473,563.942261 609.002808,563.228394 
	C607.688599,561.120667 606.374390,559.012939 605.028931,556.973938 
	C605.028931,556.973938 605.097473,556.942261 605.002808,556.228394 
	C603.688599,554.120667 602.374390,552.012939 601.029358,549.973877 
	C601.029358,549.973877 601.097839,549.942627 601.003784,549.251648 
	C600.022583,547.802795 599.041321,546.354004 598.028931,544.973877 
	C598.028931,544.973877 598.097473,544.942261 598.002808,544.228394 
	C596.688599,542.120667 595.374390,540.012939 594.028931,537.973938 
	C594.028931,537.973938 594.097473,537.942261 594.002808,537.228394 
	C592.688599,535.120667 591.374390,533.012939 590.029358,530.973877 
	C590.029358,530.973877 590.097839,530.942627 590.003784,530.251648 
	C589.022583,528.802795 588.041321,527.354004 587.028931,525.973877 
	C587.028931,525.973877 587.097473,525.942261 587.002808,525.228394 
	C585.688599,523.120667 584.374390,521.012939 583.028931,518.973938 
	C583.028931,518.973938 583.097473,518.942261 583.002808,518.228394 
	C581.688599,516.120605 580.374390,514.012878 579.029480,511.973663 
	C579.029480,511.973663 579.097900,511.942657 579.003845,511.251740 
M917.942444,468.333954 
	C921.295410,458.536346 925.509827,448.934601 927.792847,438.893707 
	C930.962402,424.953979 933.392151,410.755615 934.813965,396.535553 
	C936.113220,383.541260 937.511108,370.078979 935.515137,357.348206 
	C932.718689,339.511414 927.294373,322.019958 922.139526,304.634186 
	C912.875366,273.388916 899.775085,243.782196 883.036133,215.742981 
	C869.300659,192.734650 853.217468,171.520599 834.595581,152.396469 
	C823.363708,140.861633 810.901123,130.464005 798.507446,120.136292 
	C780.447021,105.086388 760.635559,92.550728 739.634827,82.015526 
	C727.589172,75.972725 715.444946,69.968285 702.883850,65.148651 
	C684.753357,58.192085 666.421570,51.575504 647.780640,46.178230 
	C621.821411,38.662025 595.352966,33.187801 568.318359,30.949095 
	C553.265991,29.702629 538.229980,27.334772 523.177307,27.256065 
	C505.399017,27.163109 487.583344,28.659819 469.835266,30.100407 
	C455.662048,31.250832 441.461700,32.748074 427.460388,35.171673 
	C407.622009,38.605656 387.937592,42.947487 368.226349,47.086876 
	C362.165131,48.359737 356.231415,50.239719 349.450378,52.052620 
	C354.535767,55.213600 358.770142,57.853321 363.012024,60.480949 
	C379.969299,70.985123 394.389221,84.423027 407.023254,99.695015 
	C416.245239,110.842468 423.942352,123.036980 430.270508,136.179886 
	C432.845886,141.528717 432.968231,148.394821 443.024597,149.605652 
	C464.084412,152.141327 479.524536,164.819916 488.518524,184.180420 
	C498.872711,206.468933 495.337219,232.947861 477.423004,250.836395 
	C471.267273,256.983337 463.706421,261.723114 456.621674,267.234741 
	C457.038239,267.812103 457.943542,269.151886 458.933838,270.425598 
	C464.643707,277.769379 471.145142,284.627167 475.955200,292.517242 
	C491.681122,318.313019 506.861542,344.443054 522.122498,370.520142 
	C537.144043,396.188049 552.060242,421.917999 566.927246,447.675842 
	C583.658325,476.663422 600.241150,505.736755 617.065247,534.669983 
	C617.990784,536.261597 620.426880,537.226501 622.362854,537.897705 
	C623.851685,538.413818 625.669861,537.891602 627.324646,538.031311 
	C642.706482,539.329346 658.103027,540.491638 673.457703,542.061035 
	C684.177124,543.156616 694.854370,544.713257 705.520935,546.266235 
	C722.619019,548.755554 739.619263,552.321167 756.799988,553.709900 
	C770.442566,554.812561 784.308594,553.634399 798.047546,552.927063 
	C812.917297,552.161438 827.218323,548.478027 841.221313,543.417419 
	C858.219604,537.274292 873.173279,527.820129 886.017517,515.314331 
	C899.609192,502.080841 909.881897,486.371918 917.942444,468.333954 
M383.935638,257.565643 
	C392.746796,254.288681 400.904694,249.754776 407.401031,242.971985 
	C418.512787,231.370300 423.020691,216.828903 423.923492,201.179428 
	C424.910309,184.074570 420.978455,167.660645 414.422638,152.056229 
	C402.316528,123.240845 382.481750,100.684372 356.870361,82.927864 
	C338.355255,70.091248 318.158813,60.987701 296.476562,55.342617 
	C284.160919,52.136181 271.524017,50.184643 258.569916,51.168041 
	C260.458557,55.299809 262.347748,59.203106 264.041656,63.189384 
	C266.999603,70.150276 267.057373,77.518959 267.111755,84.933105 
	C267.169891,92.863380 268.304352,100.831863 267.800507,108.708931 
	C267.112732,119.462234 264.711151,130.113678 264.160492,140.865967 
	C263.521484,153.344086 263.925079,165.786911 266.817169,178.206451 
	C274.244598,210.102020 289.228363,236.704498 317.797821,254.213242 
	C329.817505,261.579468 343.354675,264.515442 357.170624,263.709625 
	C365.938751,263.198242 374.547638,259.956818 383.935638,257.565643 
M476.066345,332.409698 
	C472.491333,326.273712 468.916321,320.137756 465.180450,313.725677 
	C453.886871,320.170746 442.752716,326.507996 431.635559,332.874817 
	C423.462677,337.555389 415.250000,342.172516 407.202118,347.060089 
	C405.526062,348.077972 401.454559,348.263672 403.551880,351.974304 
	C411.140625,365.400604 418.897583,378.731934 426.605316,392.090851 
	C436.095001,408.538269 445.569153,424.994751 455.107910,441.413727 
	C460.875702,451.341858 466.753082,461.206329 472.814270,471.494965 
	C493.813232,459.446991 514.480347,447.589386 535.457947,435.553650 
	C532.158508,429.815826 529.090454,424.482849 526.024719,419.148499 
	C518.987915,406.904510 511.953583,394.659180 504.915924,382.415710 
	C495.449738,365.947327 485.981384,349.480164 476.066345,332.409698 
M421.348541,314.939636 
	C431.647949,308.858337 441.947357,302.777069 452.959473,296.274963 
	C442.264465,283.091949 432.047272,270.497894 421.772369,257.832703 
	C408.619141,271.598907 392.218872,277.851105 374.967010,282.232208 
	C376.465149,286.246124 377.738922,289.731873 379.064697,293.197693 
	C383.457703,304.681793 387.848755,316.166779 392.292969,327.631073 
	C393.101990,329.718018 393.968658,330.691620 396.618164,329.034546 
	C404.460632,324.129456 412.592346,319.686768 421.348541,314.939636 
z"/>
<path fill="#F5A201" opacity="1.000000" stroke="none" 
	d="
M47.182575,302.123810 
	C48.075596,300.296753 48.968609,298.469696 50.307419,296.140106 
	C50.896332,294.799652 51.039452,293.961731 51.182571,293.123810 
	C60.262066,276.457916 68.622604,259.346985 78.596191,243.234558 
	C92.210075,221.241135 108.340057,201.090973 126.082268,182.130310 
	C140.762741,166.441635 156.671249,152.310104 173.442017,139.001099 
	C194.645706,122.174210 217.244217,107.533821 241.746979,95.332062 
	C242.507416,98.293823 243.149429,100.959496 242.904129,103.540855 
	C241.948608,113.595879 240.618088,123.614700 239.601013,133.664581 
	C237.984970,149.633224 238.853226,165.482224 242.682953,181.085785 
	C242.994003,182.353088 245.192719,183.157074 246.514282,184.176361 
	C246.665253,184.758759 246.816238,185.341156 246.590851,186.438126 
	C245.908737,187.387909 245.602966,187.823120 245.297195,188.258331 
	C245.879471,188.134659 246.461746,188.010971 247.044022,187.887299 
	C247.367676,188.993652 247.691330,190.100021 247.839386,191.891785 
	C247.565308,194.192932 246.901535,196.043732 247.459869,197.386292 
	C251.147049,206.252411 255.038376,215.036118 259.041962,223.764679 
	C259.497009,224.756805 261.063599,225.239105 262.114777,225.957809 
	C270.037109,236.099899 277.151306,247.026749 286.065186,256.205963 
	C300.573547,271.146118 318.757446,280.125275 339.326843,283.938171 
	C344.177063,284.837219 349.089935,285.398224 353.864288,286.810791 
	C354.042267,289.439117 353.991425,291.500122 354.669647,293.283936 
	C361.961609,312.461761 369.332550,331.610046 376.823212,350.710938 
	C377.334747,352.015411 378.979675,352.875458 380.097504,353.942200 
	C380.097504,353.942200 380.028931,353.973938 380.057983,354.322754 
	C381.423828,356.761780 382.760681,358.851990 384.097534,360.942230 
	C384.097534,360.942230 384.028961,360.973938 384.055969,361.306152 
	C385.088013,363.073120 386.092987,364.507874 387.097961,365.942657 
	C387.097961,365.942657 387.029541,365.973755 387.058289,366.322632 
	C388.423859,368.761780 389.760712,370.851990 391.097534,372.942230 
	C391.097534,372.942230 391.028992,372.973938 391.057983,373.322754 
	C392.423859,375.761780 393.760681,377.851990 395.097534,379.942230 
	C395.097534,379.942230 395.028992,379.973938 395.057983,380.322754 
	C396.423859,382.761780 397.760712,384.851990 399.097534,386.942230 
	C399.097534,386.942230 399.028961,386.973938 399.055969,387.306152 
	C400.088013,389.073120 401.092987,390.507874 402.097961,391.942657 
	C402.097961,391.942657 402.029541,391.973755 402.058289,392.322632 
	C403.423859,394.761749 404.760712,396.851990 406.097534,398.942230 
	C406.097534,398.942230 406.028992,398.973938 406.057983,399.322754 
	C407.423828,401.761780 408.760681,403.852020 410.097534,405.942230 
	C410.097534,405.942230 410.028992,405.973938 410.057983,406.322754 
	C411.423859,408.761780 412.760681,410.851990 414.097534,412.942230 
	C414.097534,412.942230 414.028961,412.973938 414.055969,413.306152 
	C415.087982,415.073120 416.092987,416.507904 417.097961,417.942657 
	C417.097961,417.942657 417.029541,417.973755 417.058289,418.322632 
	C418.423859,420.761780 419.760681,422.851990 421.097534,424.942230 
	C421.097534,424.942230 421.028992,424.973938 421.057983,425.322754 
	C422.423859,427.761780 423.760681,429.851990 425.097534,431.942230 
	C425.097534,431.942230 425.028992,431.973938 425.057983,432.322754 
	C426.423859,434.761780 427.760681,436.851990 429.097534,438.942230 
	C429.097534,438.942230 429.028961,438.973938 429.055969,439.306152 
	C430.087982,441.073120 431.092987,442.507904 432.097961,443.942657 
	C432.097961,443.942657 432.029541,443.973755 432.058289,444.322632 
	C433.423859,446.761749 434.760712,448.851990 436.097534,450.942230 
	C436.097534,450.942230 436.028992,450.973938 436.057983,451.322754 
	C437.423859,453.761780 438.760712,455.851990 440.097534,457.942230 
	C440.097534,457.942230 440.028992,457.973938 440.057983,458.322754 
	C441.423828,460.761780 442.760681,462.852020 444.097534,464.942230 
	C444.097534,464.942230 444.028961,464.973938 444.055969,465.306152 
	C445.087982,467.073120 446.092987,468.507904 447.097961,469.942657 
	C447.097961,469.942657 447.029541,469.973755 447.058289,470.322632 
	C448.423828,472.761780 449.760681,474.852020 451.097534,476.942230 
	C451.097534,476.942230 451.028992,476.973938 451.057983,477.322754 
	C452.423859,479.761749 453.760712,481.851990 455.097534,483.942230 
	C455.097534,483.942230 455.028961,483.973938 455.055969,484.306152 
	C456.088013,486.073120 457.092987,487.507874 458.097961,488.942657 
	C458.097961,488.942657 458.029541,488.973755 458.058289,489.322632 
	C459.423859,491.761749 460.760712,493.851990 462.097534,495.942230 
	C462.097534,495.942230 462.028992,495.973938 462.057983,496.322754 
	C463.423859,498.761780 464.760681,500.851990 466.097534,502.942230 
	C466.097534,502.942230 466.028961,502.973938 466.055969,503.306152 
	C467.087982,505.073151 468.092957,506.507904 469.097961,507.942688 
	C469.097961,507.942657 469.029541,507.973755 469.058289,508.322632 
	C470.423859,510.761780 471.760712,512.851990 473.097565,514.942261 
	C473.097565,514.942261 473.029022,514.973999 473.057983,515.322815 
	C474.423798,517.761841 475.760681,519.852051 477.097565,521.942261 
	C477.097565,521.942261 477.029022,521.973999 477.057983,522.322815 
	C478.423798,524.761841 479.760681,526.852051 481.097534,528.942261 
	C481.097565,528.942261 481.029022,528.973999 481.055969,529.306213 
	C482.087952,531.073181 483.092926,532.507874 484.097931,533.942627 
	C484.097931,533.942627 484.029510,533.973938 484.058228,534.322754 
	C485.423828,536.761841 486.760681,538.852051 488.097565,540.942261 
	C488.097565,540.942261 488.029022,540.973999 488.057983,541.322815 
	C489.423798,543.761841 490.760681,545.852051 492.097565,547.942261 
	C492.097565,547.942261 492.029022,547.973999 492.057983,548.322815 
	C493.423828,550.761841 494.760712,552.852051 496.097565,554.942261 
	C496.097565,554.942261 496.029022,554.973999 496.057983,555.322815 
	C497.423828,557.761841 498.760681,559.852051 500.097565,561.942261 
	C500.097565,561.942261 500.029022,561.974121 500.039307,562.327454 
	C500.714874,564.824158 501.380219,566.967590 502.045532,569.110962 
	C495.385468,576.887146 488.063385,584.202209 482.241241,592.561890 
	C475.696075,601.959717 472.076172,612.898865 471.070129,624.409546 
	C470.365753,632.468567 469.372986,640.687866 470.216187,648.654907 
	C471.617615,661.896912 473.550964,675.202515 476.761475,688.107971 
	C483.271240,714.275940 495.017456,738.441772 507.690765,762.094482 
	C512.868164,771.757324 517.458679,781.418152 519.183960,792.394836 
	C521.686646,808.318481 519.480652,823.363220 511.791229,837.494263 
	C501.074524,857.188599 484.291229,870.562073 464.773346,880.472717 
	C450.703217,887.617188 435.561615,891.707092 419.822449,894.230103 
	C402.603271,896.990356 385.872589,895.358521 369.106506,892.029968 
	C349.678131,888.172791 330.055054,884.963684 310.971680,879.793152 
	C291.002625,874.382751 271.279205,867.738953 251.978195,860.265991 
	C222.646637,848.909485 194.886307,834.181030 169.265213,815.885498 
	C155.578064,806.111694 142.615524,795.243958 129.918655,784.189148 
	C120.848091,776.291626 112.670639,767.351562 104.284874,758.692505 
	C100.998405,755.299011 98.230934,751.402893 95.075607,747.047485 
	C93.584518,744.926331 92.244911,743.493408 90.905304,742.060425 
	C90.905304,742.060425 90.974991,742.025085 90.944153,741.683533 
	C89.577309,739.914795 88.241295,738.487610 86.905296,737.060425 
	C86.905304,737.060425 86.974991,737.025085 86.944855,736.681946 
	C86.126717,733.335327 85.817711,729.934326 81.522697,729.841003 
	C81.522697,729.841003 81.240921,729.754333 81.308685,729.251709 
	C80.291771,726.391479 79.497757,723.840637 78.078011,721.705933 
	C61.566021,696.879089 48.454605,670.355713 38.937958,642.132446 
	C24.194508,598.408264 17.407707,553.343994 16.963789,507.249512 
	C16.802067,490.456726 16.215088,473.668152 15.870857,456.876648 
	C15.851638,455.939087 16.365532,455.002930 16.481783,454.047913 
	C16.850389,451.019714 17.144852,447.982574 17.474195,444.949554 
	C17.728582,442.606812 18.003466,440.266296 18.247808,437.922546 
	C18.399057,436.471741 18.515097,435.017181 18.638508,433.563599 
	C19.132462,427.745422 19.550028,421.919556 20.139193,416.111084 
	C20.574177,411.822632 21.441902,407.571136 21.736261,403.277069 
	C22.104498,397.905243 21.250978,392.323669 22.388319,387.154633 
	C25.568825,372.699677 29.538635,358.419403 33.119358,344.050873 
	C34.271912,339.426025 35.183064,334.741028 36.204643,330.083527 
	C36.444298,329.576508 36.683960,329.069519 37.364826,328.120056 
	C38.269920,325.815948 38.733807,323.954224 39.197685,322.092529 
	C39.439129,321.583191 39.680580,321.073853 40.337624,320.101044 
	C40.896339,318.799652 41.039459,317.961731 41.182571,317.123810 
	C41.427330,316.606293 41.672092,316.088776 42.335030,315.104431 
	C42.896332,313.799652 43.039452,312.961731 43.182571,312.123810 
	C43.427338,311.606293 43.672096,311.088776 44.335037,310.104431 
	C44.896339,308.799652 45.039455,307.961731 45.182571,307.123810 
	C45.427330,306.606293 45.672089,306.088776 46.335030,305.104431 
	C46.896332,303.799652 47.039448,302.961731 47.182575,302.123810 
M258.947845,321.883179 
	C258.295959,320.397858 257.603088,318.929016 256.998901,317.424530 
	C253.463257,308.620789 248.233124,300.710693 241.031815,294.817963 
	C228.438477,284.513000 213.968719,279.049622 197.168335,279.870636 
	C178.197861,280.797760 163.449188,289.347046 152.172760,303.793854 
	C140.948822,318.173431 137.477325,334.879883 141.028580,352.843048 
	C144.173981,368.753204 152.434402,381.784393 165.750122,390.733002 
	C178.396088,399.231537 192.439484,403.544861 208.286728,401.176361 
	C221.345566,399.224701 232.770691,394.303894 242.050049,385.281372 
	C259.915466,367.910431 265.852722,346.952545 258.947845,321.883179 
M149.588318,650.932434 
	C157.390289,652.954956 165.095520,656.061401 173.014908,656.768188 
	C188.235397,658.126526 202.091171,653.098633 213.834488,643.482605 
	C226.003891,633.517639 233.899765,620.418640 235.794632,604.778625 
	C237.554932,590.249146 235.234512,576.122986 226.860229,563.428162 
	C215.483322,546.181458 199.616425,536.558044 179.098282,535.074463 
	C163.486984,533.945679 149.302032,538.686584 137.250580,548.465820 
	C122.384605,560.528870 114.512749,576.704895 114.280334,595.755432 
	C114.154251,606.090881 116.739639,616.414490 122.235062,625.538879 
	C128.752548,636.360229 136.829315,645.619202 149.588318,650.932434 
z"/>
<path fill="#F5A201" opacity="1.000000" stroke="none" 
	d="
M917.731812,468.657166 
	C909.881897,486.371918 899.609192,502.080841 886.017517,515.314331 
	C873.173279,527.820129 858.219604,537.274292 841.221313,543.417419 
	C827.218323,548.478027 812.917297,552.161438 798.047546,552.927063 
	C784.308594,553.634399 770.442566,554.812561 756.799988,553.709900 
	C739.619263,552.321167 722.619019,548.755554 705.520935,546.266235 
	C694.854370,544.713257 684.177124,543.156616 673.457703,542.061035 
	C658.103027,540.491638 642.706482,539.329346 627.324646,538.031311 
	C625.669861,537.891602 623.851685,538.413818 622.362854,537.897705 
	C620.426880,537.226501 617.990784,536.261597 617.065247,534.669983 
	C600.241150,505.736755 583.658325,476.663422 566.927246,447.675842 
	C552.060242,421.917999 537.144043,396.188049 522.122498,370.520142 
	C506.861542,344.443054 491.681122,318.313019 475.955200,292.517242 
	C471.145142,284.627167 464.643707,277.769379 458.933838,270.425598 
	C457.943542,269.151886 457.038239,267.812103 456.621674,267.234741 
	C463.706421,261.723114 471.267273,256.983337 477.423004,250.836395 
	C495.337219,232.947861 498.872711,206.468933 488.518524,184.180420 
	C479.524536,164.819916 464.084412,152.141327 443.024597,149.605652 
	C432.968231,148.394821 432.845886,141.528717 430.270508,136.179886 
	C423.942352,123.036980 416.245239,110.842468 407.023254,99.695015 
	C394.389221,84.423027 379.969299,70.985123 363.012024,60.480949 
	C358.770142,57.853321 354.535767,55.213600 349.450378,52.052620 
	C356.231415,50.239719 362.165131,48.359737 368.226349,47.086876 
	C387.937592,42.947487 407.622009,38.605656 427.460388,35.171673 
	C441.461700,32.748074 455.662048,31.250832 469.835266,30.100407 
	C487.583344,28.659819 505.399017,27.163109 523.177307,27.256065 
	C538.229980,27.334772 553.265991,29.702629 568.318359,30.949095 
	C595.352966,33.187801 621.821411,38.662025 647.780640,46.178230 
	C666.421570,51.575504 684.753357,58.192085 702.883850,65.148651 
	C715.444946,69.968285 727.589172,75.972725 739.634827,82.015526 
	C760.635559,92.550728 780.447021,105.086388 798.507446,120.136292 
	C810.901123,130.464005 823.363708,140.861633 834.595581,152.396469 
	C853.217468,171.520599 869.300659,192.734650 883.036133,215.742981 
	C899.775085,243.782196 912.875366,273.388916 922.139526,304.634186 
	C927.294373,322.019958 932.718689,339.511414 935.515137,357.348206 
	C937.511108,370.078979 936.113220,383.541260 934.813965,396.535553 
	C933.392151,410.755615 930.962402,424.953979 927.792847,438.893707 
	C925.509827,448.934601 921.295410,458.536346 917.731812,468.657166 
M686.855713,194.056473 
	C671.093750,199.162399 658.553650,208.193283 649.736389,222.600021 
	C641.895752,235.411148 640.420410,249.322021 642.451050,263.392181 
	C644.536987,277.844757 651.557190,290.155487 663.129456,299.782349 
	C672.583252,307.646851 683.310913,312.600769 695.246704,313.821991 
	C714.850891,315.827698 731.922974,309.878632 746.056458,295.547699 
	C768.618958,272.670013 769.333435,235.342087 747.052429,211.801056 
	C730.984070,194.824051 710.905945,188.521606 686.855713,194.056473 
z"/>
<path fill="#F5A201" opacity="1.000000" stroke="none" 
	d="
M723.885620,902.042480 
	C719.420776,895.690857 714.527283,889.594116 710.569214,882.941040 
	C697.282776,860.607971 684.270508,838.110779 671.267700,815.610291 
	C660.540344,797.047241 650.045471,778.349976 639.319397,759.786255 
	C627.700500,739.677002 615.871460,719.689331 604.248047,699.582703 
	C592.625854,679.478149 581.195923,659.262451 569.588135,639.149536 
	C556.191040,615.936218 542.652527,592.804626 529.248474,569.595337 
	C517.551636,549.342285 505.954468,529.031677 494.317230,508.744263 
	C491.248108,503.393890 488.355652,497.932678 485.062714,492.724335 
	C483.451019,490.175171 483.991730,489.174164 486.441925,487.781189 
	C501.975037,478.950287 517.418640,469.961700 532.885010,461.013580 
	C536.947266,458.663330 540.985901,456.272308 545.393066,453.690399 
	C546.323730,454.955627 547.163818,456.097809 547.860229,457.846558 
	C548.510193,459.616119 549.303772,460.779144 550.097351,461.942169 
	C550.097351,461.942169 550.028687,461.973816 550.057861,462.322632 
	C551.423767,464.761719 552.760559,466.851929 554.097351,468.942169 
	C554.097351,468.942169 554.028687,468.973816 554.055786,469.306061 
	C555.087952,471.073090 556.092896,472.507874 557.097900,473.942657 
	C557.097900,473.942657 557.029480,473.973663 557.058228,474.322571 
	C558.423767,476.761688 559.760559,478.851929 561.097351,480.942169 
	C561.097351,480.942169 561.028687,480.973816 561.057861,481.322632 
	C562.423767,483.761719 563.760559,485.851959 565.097351,487.942169 
	C565.097351,487.942169 565.028687,487.973816 565.055786,488.306061 
	C566.087952,490.073090 567.092957,491.507874 568.097900,492.942657 
	C568.097900,492.942657 568.029480,492.973663 568.058228,493.322571 
	C569.423767,495.761719 570.760559,497.851929 572.097351,499.942169 
	C572.097351,499.942169 572.028687,499.973816 572.057861,500.322632 
	C573.423767,502.761719 574.760559,504.851929 576.097351,506.942169 
	C576.097351,506.942169 576.028687,506.973816 576.055786,507.306061 
	C577.087952,509.073090 578.092896,510.507874 579.097900,511.942657 
	C579.097900,511.942657 579.029480,511.973663 579.058228,512.322571 
	C580.423828,514.761780 581.760620,516.851990 583.097473,518.942261 
	C583.097473,518.942261 583.028931,518.973938 583.057983,519.322754 
	C584.423828,521.761841 585.760620,523.852051 587.097473,525.942261 
	C587.097473,525.942261 587.028931,525.973877 587.055908,526.306091 
	C588.087830,528.073059 589.092834,529.507874 590.097839,530.942627 
	C590.097839,530.942627 590.029358,530.973877 590.058167,531.322754 
	C591.423828,533.761841 592.760620,535.852051 594.097473,537.942261 
	C594.097473,537.942261 594.028931,537.973938 594.057983,538.322754 
	C595.423828,540.761841 596.760681,542.852051 598.097473,544.942261 
	C598.097473,544.942261 598.028931,544.973877 598.055908,545.306091 
	C599.087891,547.073059 600.092896,548.507874 601.097839,549.942627 
	C601.097839,549.942627 601.029358,549.973877 601.058167,550.322754 
	C602.423828,552.761841 603.760681,554.852051 605.097473,556.942261 
	C605.097473,556.942261 605.028931,556.973938 605.057983,557.322754 
	C606.423828,559.761841 607.760620,561.852051 609.097473,563.942261 
	C609.097473,563.942261 609.028931,563.973938 609.057983,564.322754 
	C610.423828,566.761841 611.760620,568.852051 613.097473,570.942261 
	C613.097473,570.942261 613.028931,570.973877 613.055908,571.306091 
	C614.087891,573.073059 615.092834,574.507874 616.097839,575.942627 
	C616.097839,575.942627 616.029358,575.973877 616.058167,576.322754 
	C617.423767,578.761841 618.760620,580.852051 620.097473,582.942261 
	C620.097473,582.942261 620.028931,582.973938 620.057983,583.322754 
	C621.423767,585.761841 622.760620,587.852051 624.097473,589.942261 
	C624.097473,589.942261 624.028931,589.973877 624.055908,590.306091 
	C625.087891,592.073059 626.092834,593.507874 627.097839,594.942627 
	C627.097839,594.942627 627.029358,594.973877 627.058167,595.322754 
	C628.423828,597.761841 629.760681,599.852051 631.097473,601.942261 
	C631.097473,601.942261 631.028931,601.973938 631.057983,602.322754 
	C632.423828,604.761841 633.760681,606.852051 635.097473,608.942261 
	C635.097473,608.942261 635.028931,608.973938 635.057983,609.322754 
	C636.423828,611.761841 637.760681,613.852051 639.097473,615.942261 
	C639.097473,615.942261 639.028931,615.973877 639.055908,616.306091 
	C640.087830,618.073120 641.092834,619.507874 642.097839,620.942627 
	C642.097839,620.942627 642.029358,620.973877 642.058167,621.322754 
	C643.423828,623.761841 644.760681,625.852051 646.097473,627.942261 
	C646.097473,627.942261 646.028931,627.973938 646.057983,628.322754 
	C647.423828,630.761841 648.760681,632.852051 650.097473,634.942261 
	C650.097473,634.942261 650.028931,634.973938 650.057983,635.322754 
	C651.423828,637.761841 652.760681,639.852051 654.097473,641.942261 
	C654.097473,641.942261 654.028931,641.973877 654.055908,642.306091 
	C655.087830,644.073059 656.092834,645.507874 657.097839,646.942627 
	C657.097839,646.942627 657.029358,646.973877 657.058167,647.322754 
	C658.423828,649.761841 659.760620,651.852051 661.097473,653.942261 
	C661.097473,653.942261 661.028931,653.973938 661.057983,654.322754 
	C662.423828,656.761841 663.760620,658.852051 665.097473,660.942261 
	C665.097473,660.942261 665.028931,660.973938 665.057983,661.322754 
	C666.423828,663.761841 667.760620,665.852051 669.097473,667.942261 
	C669.097473,667.942261 669.028931,667.973877 669.055908,668.306091 
	C670.087891,670.073059 671.092834,671.507874 672.097839,672.942627 
	C672.097839,672.942627 672.029358,672.973877 672.058167,673.322754 
	C673.423767,675.761841 674.760620,677.852051 676.097473,679.942261 
	C676.097473,679.942261 676.028931,679.973938 676.057983,680.322754 
	C677.423767,682.761841 678.760620,684.852051 680.097473,686.942261 
	C680.097473,686.942261 680.028931,686.973877 680.055908,687.306091 
	C681.087830,689.073120 682.092834,690.507874 683.097839,691.942627 
	C683.097839,691.942627 683.029358,691.973877 683.058167,692.322754 
	C684.423767,694.761841 685.760620,696.852051 687.097473,698.942261 
	C687.097473,698.942261 687.028931,698.973938 687.057983,699.322754 
	C688.423767,701.761841 689.760620,703.852051 691.097473,705.942261 
	C691.097473,705.942261 691.028931,705.973938 691.057983,706.322754 
	C692.423767,708.761841 693.760620,710.852051 695.097473,712.942261 
	C695.097473,712.942261 695.028931,712.973877 695.055908,713.306091 
	C696.087891,715.073059 697.092896,716.507812 698.097839,717.942627 
	C698.097839,717.942627 698.029358,717.973877 698.058167,718.322754 
	C699.423828,720.761841 700.760681,722.852051 702.097473,724.942261 
	C702.097473,724.942261 702.028931,724.973938 702.057983,725.322754 
	C703.423828,727.761841 704.760681,729.852051 706.097473,731.942261 
	C706.097473,731.942261 706.028931,731.973938 706.057983,732.322754 
	C707.423767,734.761841 708.760620,736.852051 710.097473,738.942261 
	C710.097473,738.942261 710.028931,738.973877 710.055908,739.306091 
	C711.087891,741.073059 712.092896,742.507874 713.097839,743.942627 
	C713.097839,743.942627 713.029358,743.973877 713.058167,744.322754 
	C714.423828,746.761841 715.760620,748.852051 717.097473,750.942261 
	C717.097473,750.942261 717.028931,750.973938 717.057983,751.322754 
	C718.423828,753.761841 719.760681,755.852051 721.097473,757.942261 
	C721.097473,757.942261 721.028931,757.973938 721.057983,758.322754 
	C722.423828,760.761841 723.760681,762.852051 725.097473,764.942261 
	C725.097473,764.942261 725.028931,764.973877 725.055908,765.306091 
	C726.087891,767.073059 727.092896,768.507812 728.097839,769.942627 
	C728.097839,769.942627 728.029358,769.973877 728.058167,770.322754 
	C729.423828,772.761841 730.760681,774.852051 732.097473,776.942261 
	C732.097473,776.942261 732.028931,776.973938 732.057983,777.322754 
	C733.423828,779.761841 734.760681,781.852051 736.097473,783.942261 
	C736.097473,783.942261 736.028931,783.973877 736.055908,784.306091 
	C737.087891,786.073059 738.092896,787.507812 739.097839,788.942627 
	C739.097839,788.942627 739.029358,788.973877 739.058167,789.322754 
	C740.423828,791.761841 741.760620,793.852051 743.097473,795.942261 
	C743.097473,795.942261 743.028931,795.973938 743.057983,796.322754 
	C744.423828,798.761841 745.760620,800.852051 747.097473,802.942261 
	C747.097473,802.942261 747.028931,802.973938 747.057983,803.322754 
	C748.423828,805.761841 749.760620,807.852051 751.097473,809.942261 
	C751.097473,809.942261 751.028931,809.973877 751.055908,810.306091 
	C752.087891,812.073059 753.092834,813.507874 754.097839,814.942627 
	C754.097839,814.942627 754.029358,814.973877 754.058167,815.322754 
	C755.423828,817.761841 756.760620,819.852051 758.097473,821.942261 
	C758.097473,821.942261 758.028931,821.973938 758.057983,822.322754 
	C759.423828,824.761841 760.760620,826.852051 762.097473,828.942261 
	C762.097473,828.942261 762.028931,828.973938 762.057983,829.322754 
	C763.423828,831.761841 764.760620,833.852051 766.097473,835.942261 
	C766.097473,835.942261 766.028931,835.973877 766.055908,836.306091 
	C767.087891,838.073059 768.092834,839.507874 769.097839,840.942627 
	C769.097839,840.942627 769.029358,840.973877 769.058167,841.322754 
	C770.423828,843.761841 771.760681,845.852051 773.097473,847.942261 
	C773.097473,847.942261 773.028931,847.973938 773.057983,848.322754 
	C774.423767,850.761841 775.760620,852.852051 777.097473,854.942261 
	C777.097473,854.942261 777.028931,854.973938 777.058838,855.328125 
	C778.392456,859.788208 779.696228,863.894104 780.786499,868.349854 
	C780.382080,870.337646 779.953430,871.987671 780.036072,873.611694 
	C781.329895,899.032227 753.365845,916.107483 730.415710,903.927795 
	C728.457153,902.888306 726.072388,902.651917 723.885620,902.042480 
z"/>
<path fill="#F5A201" opacity="1.000000" stroke="none" 
	d="
M383.581787,257.752686 
	C374.547638,259.956818 365.938751,263.198242 357.170624,263.709625 
	C343.354675,264.515442 329.817505,261.579468 317.797821,254.213242 
	C289.228363,236.704498 274.244598,210.102020 266.817169,178.206451 
	C263.925079,165.786911 263.521484,153.344086 264.160492,140.865967 
	C264.711151,130.113678 267.112732,119.462234 267.800507,108.708931 
	C268.304352,100.831863 267.169891,92.863380 267.111755,84.933105 
	C267.057373,77.518959 266.999603,70.150276 264.041656,63.189384 
	C262.347748,59.203106 260.458557,55.299809 258.569916,51.168041 
	C271.524017,50.184643 284.160919,52.136181 296.476562,55.342617 
	C318.158813,60.987701 338.355255,70.091248 356.870361,82.927864 
	C382.481750,100.684372 402.316528,123.240845 414.422638,152.056229 
	C420.978455,167.660645 424.910309,184.074570 423.923492,201.179428 
	C423.020691,216.828903 418.512787,231.370300 407.401031,242.971985 
	C400.904694,249.754776 392.746796,254.288681 383.581787,257.752686 
z"/>
<path fill="#F5A201" opacity="1.000000" stroke="none" 
	d="
M476.290131,332.711121 
	C485.981384,349.480164 495.449738,365.947327 504.915924,382.415710 
	C511.953583,394.659180 518.987915,406.904510 526.024719,419.148499 
	C529.090454,424.482849 532.158508,429.815826 535.457947,435.553650 
	C514.480347,447.589386 493.813232,459.446991 472.814270,471.494965 
	C466.753082,461.206329 460.875702,451.341858 455.107910,441.413727 
	C445.569153,424.994751 436.095001,408.538269 426.605316,392.090851 
	C418.897583,378.731934 411.140625,365.400604 403.551880,351.974304 
	C401.454559,348.263672 405.526062,348.077972 407.202118,347.060089 
	C415.250000,342.172516 423.462677,337.555389 431.635559,332.874817 
	C442.752716,326.507996 453.886871,320.170746 465.180450,313.725677 
	C468.916321,320.137756 472.491333,326.273712 476.290131,332.711121 
z"/>
<path fill="#F5A201" opacity="1.000000" stroke="none" 
	d="
M420.979736,315.001465 
	C412.592346,319.686768 404.460632,324.129456 396.618164,329.034546 
	C393.968658,330.691620 393.101990,329.718018 392.292969,327.631073 
	C387.848755,316.166779 383.457703,304.681793 379.064697,293.197693 
	C377.738922,289.731873 376.465149,286.246124 374.967010,282.232208 
	C392.218872,277.851105 408.619141,271.598907 421.772369,257.832703 
	C432.047272,270.497894 442.264465,283.091949 452.959473,296.274963 
	C441.947357,302.777069 431.647949,308.858337 420.979736,315.001465 
z"/>
<path fill="#F5A201" opacity="1.000000" stroke="none" 
	d="
M36.004768,330.407104 
	C35.183064,334.741028 34.271912,339.426025 33.119358,344.050873 
	C29.538635,358.419403 25.568825,372.699677 22.388319,387.154633 
	C21.250978,392.323669 22.104498,397.905243 21.736261,403.277069 
	C21.441902,407.571136 20.574177,411.822632 20.139193,416.111084 
	C19.550028,421.919556 19.132462,427.745422 18.638508,433.563599 
	C18.515097,435.017181 18.399057,436.471741 18.247808,437.922546 
	C18.003466,440.266296 17.728582,442.606812 17.474195,444.949554 
	C17.144852,447.982574 16.850389,451.019714 16.481783,454.047913 
	C16.365532,455.002930 15.851638,455.939087 15.870857,456.876648 
	C16.215088,473.668152 16.802067,490.456726 16.963789,507.249512 
	C17.407707,553.343994 24.194508,598.408264 38.937958,642.132446 
	C48.454605,670.355713 61.566021,696.879089 78.078011,721.705933 
	C79.497757,723.840637 80.291771,726.391479 81.266739,729.110352 
	C75.752266,721.196960 69.982376,713.135010 65.013062,704.606567 
	C51.556850,681.512573 40.687084,657.249329 32.874851,631.631165 
	C26.851656,611.879761 21.651932,591.955872 18.992994,571.444519 
	C17.563637,560.418396 16.408751,549.356628 14.977789,538.330688 
	C11.565736,512.039795 12.808098,485.610229 13.259037,459.269165 
	C13.552916,442.102631 16.743820,425.006409 17.898167,407.829071 
	C19.693636,381.111511 27.481752,355.881134 36.004768,330.407104 
z"/>
<path fill="#F5A201" opacity="1.000000" stroke="none" 
	d="
M246.328918,183.908920 
	C245.192719,183.157074 242.994003,182.353088 242.682953,181.085785 
	C238.853226,165.482224 237.984970,149.633224 239.601013,133.664581 
	C240.618088,123.614700 241.948608,113.595879 242.904129,103.540855 
	C243.149429,100.959496 242.507416,98.293823 242.112885,95.278900 
	C243.281387,94.139534 244.610031,93.388145 246.986145,92.044403 
	C246.986145,98.173393 247.545303,103.293205 246.885223,108.250694 
	C244.558258,125.727188 242.071213,143.196609 243.101151,160.869949 
	C243.545425,168.493668 245.095703,176.052948 246.328918,183.908920 
z"/>
<path fill="#F5A201" opacity="1.000000" stroke="none" 
	d="
M724.026550,902.356812 
	C726.072388,902.651917 728.457153,902.888306 730.415710,903.927795 
	C753.365845,916.107483 781.329895,899.032227 780.036072,873.611694 
	C779.953430,871.987671 780.382080,870.337646 781.135986,868.342407 
	C782.164917,867.970642 782.630859,867.956116 783.096741,867.941589 
	C783.096741,867.941589 783.031555,867.980286 783.031372,868.246094 
	C783.034973,868.712524 783.038879,868.913269 783.042786,869.114075 
	C787.126953,886.013245 777.485046,906.082520 757.739746,910.883484 
	C745.334106,913.899780 733.708069,912.145996 724.026550,902.356812 
z"/>
<path fill="#F5A201" opacity="1.000000" stroke="none" 
	d="
M380.047760,353.568970 
	C378.979675,352.875458 377.334747,352.015411 376.823212,350.710938 
	C369.332550,331.610046 361.961609,312.461761 354.669647,293.283936 
	C353.991425,291.500122 354.042267,289.439117 353.931396,287.229370 
	C362.066650,307.393890 370.023163,327.836639 377.987366,348.276367 
	C378.630432,349.926758 379.326538,351.556458 380.047760,353.568970 
z"/>
<path fill="#F5A201" opacity="1.000000" stroke="none" 
	d="
M262.059204,225.591034 
	C261.063599,225.239105 259.497009,224.756805 259.041962,223.764679 
	C255.038376,215.036118 251.147049,206.252411 247.459869,197.386292 
	C246.901535,196.043732 247.565308,194.192932 247.885834,192.264435 
	C252.739792,203.042542 257.371704,214.133408 262.059204,225.591034 
z"/>
<path fill="#F5A201" opacity="1.000000" stroke="none" 
	d="
M783.054382,867.553650 
	C782.630859,867.956116 782.164917,867.970642 781.349548,867.992554 
	C779.696228,863.894104 778.392456,859.788208 777.074402,855.293762 
	C779.044128,858.992065 781.028076,863.078918 783.054382,867.553650 
z"/>
<path fill="#F5A201" opacity="1.000000" stroke="none" 
	d="
M81.702217,730.113281 
	C85.817711,729.934326 86.126717,733.335327 86.927216,736.716797 
	C85.253716,734.858398 83.567726,732.621948 81.702217,730.113281 
z"/>
<path fill="#F5A201" opacity="1.000000" stroke="none" 
	d="
M669.050171,667.585327 
	C667.760620,665.852051 666.423828,663.761841 665.073608,661.288452 
	C666.374390,663.012939 667.688599,665.120667 669.050171,667.585327 
z"/>
<path fill="#F5A201" opacity="1.000000" stroke="none" 
	d="
M635.050171,608.585327 
	C633.760681,606.852051 632.423828,604.761841 631.073608,602.288452 
	C632.374390,604.012939 633.688599,606.120667 635.050171,608.585327 
z"/>
<path fill="#F5A201" opacity="1.000000" stroke="none" 
	d="
M639.050171,615.585327 
	C637.760681,613.852051 636.423828,611.761841 635.073608,609.288452 
	C636.374390,611.012939 637.688599,613.120667 639.050171,615.585327 
z"/>
<path fill="#F5A201" opacity="1.000000" stroke="none" 
	d="
M646.050171,627.585327 
	C644.760681,625.852051 643.423828,623.761841 642.073608,621.288452 
	C643.374390,623.012939 644.688599,625.120667 646.050171,627.585327 
z"/>
<path fill="#F5A201" opacity="1.000000" stroke="none" 
	d="
M650.050171,634.585327 
	C648.760681,632.852051 647.423828,630.761841 646.073608,628.288452 
	C647.374390,630.012939 648.688599,632.120667 650.050171,634.585327 
z"/>
<path fill="#F5A201" opacity="1.000000" stroke="none" 
	d="
M654.050171,641.585327 
	C652.760681,639.852051 651.423828,637.761841 650.073608,635.288452 
	C651.374390,637.012939 652.688599,639.120667 654.050171,641.585327 
z"/>
<path fill="#F5A201" opacity="1.000000" stroke="none" 
	d="
M661.050171,653.585327 
	C659.760620,651.852051 658.423828,649.761841 657.073608,647.288452 
	C658.374390,649.012939 659.688599,651.120667 661.050171,653.585327 
z"/>
<path fill="#F5A201" opacity="1.000000" stroke="none" 
	d="
M665.050171,660.585327 
	C663.760620,658.852051 662.423828,656.761841 661.073608,654.288452 
	C662.374390,656.012939 663.688599,658.120667 665.050171,660.585327 
z"/>
<path fill="#F5A201" opacity="1.000000" stroke="none" 
	d="
M594.050171,537.585327 
	C592.760620,535.852051 591.423828,533.761841 590.073608,531.288452 
	C591.374390,533.012939 592.688599,535.120667 594.050171,537.585327 
z"/>
<path fill="#F5A201" opacity="1.000000" stroke="none" 
	d="
M631.050171,601.585327 
	C629.760681,599.852051 628.423828,597.761841 627.073608,595.288452 
	C628.374390,597.012939 629.688599,599.120667 631.050171,601.585327 
z"/>
<path fill="#F5A201" opacity="1.000000" stroke="none" 
	d="
M624.050171,589.585327 
	C622.760620,587.852051 621.423767,585.761841 620.073608,583.288452 
	C621.374390,585.012939 622.688599,587.120667 624.050171,589.585327 
z"/>
<path fill="#F5A201" opacity="1.000000" stroke="none" 
	d="
M620.050171,582.585327 
	C618.760620,580.852051 617.423767,578.761841 616.073608,576.288452 
	C617.374390,578.012939 618.688599,580.120667 620.050171,582.585327 
z"/>
<path fill="#F5A201" opacity="1.000000" stroke="none" 
	d="
M613.050171,570.585327 
	C611.760620,568.852051 610.423828,566.761841 609.073608,564.288452 
	C610.374390,566.012939 611.688599,568.120667 613.050171,570.585327 
z"/>
<path fill="#F5A201" opacity="1.000000" stroke="none" 
	d="
M609.050171,563.585327 
	C607.760620,561.852051 606.423828,559.761841 605.073608,557.288452 
	C606.374390,559.012939 607.688599,561.120667 609.050171,563.585327 
z"/>
<path fill="#F5A201" opacity="1.000000" stroke="none" 
	d="
M500.050232,561.585327 
	C498.760681,559.852051 497.423828,557.761841 496.073547,555.288452 
	C497.374390,557.012939 498.688629,559.120667 500.050232,561.585327 
z"/>
<path fill="#F5A201" opacity="1.000000" stroke="none" 
	d="
M605.050171,556.585327 
	C603.760681,554.852051 602.423828,552.761841 601.073608,550.288452 
	C602.374390,552.012939 603.688599,554.120667 605.050171,556.585327 
z"/>
<path fill="#F5A201" opacity="1.000000" stroke="none" 
	d="
M496.050232,554.585327 
	C494.760712,552.852051 493.423828,550.761841 492.073547,548.288452 
	C493.374390,550.012939 494.688629,552.120667 496.050232,554.585327 
z"/>
<path fill="#F5A201" opacity="1.000000" stroke="none" 
	d="
M492.050232,547.585327 
	C490.760681,545.852051 489.423798,543.761841 488.073547,541.288452 
	C489.374420,543.012939 490.688629,545.120667 492.050232,547.585327 
z"/>
<path fill="#F5A201" opacity="1.000000" stroke="none" 
	d="
M598.050171,544.585327 
	C596.760681,542.852051 595.423828,540.761841 594.073608,538.288452 
	C595.374390,540.012939 596.688599,542.120667 598.050171,544.585327 
z"/>
<path fill="#F5A201" opacity="1.000000" stroke="none" 
	d="
M488.050201,540.585327 
	C486.760681,538.852051 485.423828,536.761841 484.073547,534.288452 
	C485.374390,536.012939 486.688629,538.120667 488.050201,540.585327 
z"/>
<path fill="#F5A201" opacity="1.000000" stroke="none" 
	d="
M725.050171,764.585327 
	C723.760681,762.852051 722.423828,760.761841 721.073608,758.288452 
	C722.374390,760.012939 723.688599,762.120667 725.050171,764.585327 
z"/>
<path fill="#F5A201" opacity="1.000000" stroke="none" 
	d="
M777.050171,854.585327 
	C775.760620,852.852051 774.423767,850.761841 773.073608,848.288452 
	C774.374390,850.012939 775.688599,852.120667 777.050171,854.585327 
z"/>
<path fill="#F5A201" opacity="1.000000" stroke="none" 
	d="
M773.050171,847.585327 
	C771.760681,845.852051 770.423828,843.761841 769.073608,841.288452 
	C770.374390,843.012939 771.688599,845.120667 773.050171,847.585327 
z"/>
<path fill="#F5A201" opacity="1.000000" stroke="none" 
	d="
M766.050171,835.585327 
	C764.760620,833.852051 763.423828,831.761841 762.073608,829.288452 
	C763.374390,831.012939 764.688599,833.120667 766.050171,835.585327 
z"/>
<path fill="#F5A201" opacity="1.000000" stroke="none" 
	d="
M762.050171,828.585327 
	C760.760620,826.852051 759.423828,824.761841 758.073608,822.288452 
	C759.374390,824.012939 760.688599,826.120667 762.050171,828.585327 
z"/>
<path fill="#F5A201" opacity="1.000000" stroke="none" 
	d="
M758.050171,821.585327 
	C756.760620,819.852051 755.423828,817.761841 754.073608,815.288452 
	C755.374390,817.012939 756.688599,819.120667 758.050171,821.585327 
z"/>
<path fill="#F5A201" opacity="1.000000" stroke="none" 
	d="
M751.050171,809.585327 
	C749.760620,807.852051 748.423828,805.761841 747.073608,803.288452 
	C748.374390,805.012939 749.688599,807.120667 751.050171,809.585327 
z"/>
<path fill="#F5A201" opacity="1.000000" stroke="none" 
	d="
M747.050171,802.585327 
	C745.760620,800.852051 744.423828,798.761841 743.073608,796.288452 
	C744.374390,798.012939 745.688599,800.120667 747.050171,802.585327 
z"/>
<path fill="#F5A201" opacity="1.000000" stroke="none" 
	d="
M743.050171,795.585327 
	C741.760620,793.852051 740.423828,791.761841 739.073608,789.288452 
	C740.374390,791.012939 741.688599,793.120667 743.050171,795.585327 
z"/>
<path fill="#F5A201" opacity="1.000000" stroke="none" 
	d="
M736.050110,783.585327 
	C734.760681,781.852051 733.423828,779.761841 732.073547,777.288452 
	C733.374329,779.012939 734.688538,781.120667 736.050110,783.585327 
z"/>
<path fill="#F5A201" opacity="1.000000" stroke="none" 
	d="
M732.050171,776.585327 
	C730.760681,774.852051 729.423828,772.761841 728.073608,770.288452 
	C729.374390,772.012939 730.688599,774.120667 732.050171,776.585327 
z"/>
<path fill="#F5A201" opacity="1.000000" stroke="none" 
	d="
M676.050171,679.585327 
	C674.760620,677.852051 673.423767,675.761841 672.073608,673.288452 
	C673.374390,675.012939 674.688599,677.120667 676.050171,679.585327 
z"/>
<path fill="#F5A201" opacity="1.000000" stroke="none" 
	d="
M721.050171,757.585327 
	C719.760681,755.852051 718.423828,753.761841 717.073608,751.288452 
	C718.374390,753.012939 719.688599,755.120667 721.050171,757.585327 
z"/>
<path fill="#F5A201" opacity="1.000000" stroke="none" 
	d="
M717.050171,750.585327 
	C715.760620,748.852051 714.423828,746.761841 713.073608,744.288452 
	C714.374390,746.012939 715.688599,748.120667 717.050171,750.585327 
z"/>
<path fill="#F5A201" opacity="1.000000" stroke="none" 
	d="
M710.050171,738.585327 
	C708.760620,736.852051 707.423767,734.761841 706.073608,732.288452 
	C707.374390,734.012939 708.688599,736.120667 710.050171,738.585327 
z"/>
<path fill="#F5A201" opacity="1.000000" stroke="none" 
	d="
M706.050171,731.585327 
	C704.760681,729.852051 703.423828,727.761841 702.073608,725.288452 
	C703.374390,727.012939 704.688599,729.120667 706.050171,731.585327 
z"/>
<path fill="#F5A201" opacity="1.000000" stroke="none" 
	d="
M702.050171,724.585327 
	C700.760681,722.852051 699.423828,720.761841 698.073608,718.288452 
	C699.374390,720.012939 700.688599,722.120667 702.050171,724.585327 
z"/>
<path fill="#F5A201" opacity="1.000000" stroke="none" 
	d="
M695.050171,712.585327 
	C693.760620,710.852051 692.423767,708.761841 691.073608,706.288452 
	C692.374390,708.012939 693.688599,710.120667 695.050171,712.585327 
z"/>
<path fill="#F5A201" opacity="1.000000" stroke="none" 
	d="
M691.050171,705.585327 
	C689.760620,703.852051 688.423767,701.761841 687.073608,699.288452 
	C688.374390,701.012939 689.688599,703.120667 691.050171,705.585327 
z"/>
<path fill="#F5A201" opacity="1.000000" stroke="none" 
	d="
M687.050171,698.585327 
	C685.760620,696.852051 684.423767,694.761841 683.073608,692.288452 
	C684.374390,694.012939 685.688599,696.120667 687.050171,698.585327 
z"/>
<path fill="#F5A201" opacity="1.000000" stroke="none" 
	d="
M680.050171,686.585327 
	C678.760620,684.852051 677.423767,682.761841 676.073608,680.288452 
	C677.374390,682.012939 678.688599,684.120667 680.050171,686.585327 
z"/>
<path fill="#F5A201" opacity="1.000000" stroke="none" 
	d="
M565.050049,487.585266 
	C563.760559,485.851959 562.423767,483.761719 561.073608,481.288269 
	C562.374390,483.012848 563.688599,485.120575 565.050049,487.585266 
z"/>
<path fill="#F5A201" opacity="1.000000" stroke="none" 
	d="
M421.050171,424.585327 
	C419.760681,422.851990 418.423859,420.761780 417.073639,418.288361 
	C418.374451,420.012939 419.688629,422.120697 421.050171,424.585327 
z"/>
<path fill="#F5A201" opacity="1.000000" stroke="none" 
	d="
M425.050171,431.585327 
	C423.760681,429.851990 422.423859,427.761780 421.073639,425.288361 
	C422.374451,427.012939 423.688660,429.120667 425.050171,431.585327 
z"/>
<path fill="#F5A201" opacity="1.000000" stroke="none" 
	d="
M414.050171,412.585327 
	C412.760681,410.851990 411.423859,408.761780 410.073639,406.288361 
	C411.374451,408.012939 412.688660,410.120667 414.050171,412.585327 
z"/>
<path fill="#F5A201" opacity="1.000000" stroke="none" 
	d="
M429.050201,438.585327 
	C427.760681,436.851990 426.423859,434.761780 425.073669,432.288361 
	C426.374481,434.012909 427.688660,436.120667 429.050201,438.585327 
z"/>
<path fill="#F5A201" opacity="1.000000" stroke="none" 
	d="
M436.050171,450.585327 
	C434.760712,448.851990 433.423859,446.761749 432.073639,444.288361 
	C433.374481,446.012909 434.688660,448.120667 436.050171,450.585327 
z"/>
<path fill="#F5A201" opacity="1.000000" stroke="none" 
	d="
M440.050171,457.585327 
	C438.760712,455.851990 437.423859,453.761780 436.073639,451.288361 
	C437.374451,453.012939 438.688660,455.120667 440.050171,457.585327 
z"/>
<path fill="#F5A201" opacity="1.000000" stroke="none" 
	d="
M444.050171,464.585327 
	C442.760681,462.852020 441.423828,460.761780 440.073639,458.288361 
	C441.374451,460.012939 442.688660,462.120667 444.050171,464.585327 
z"/>
<path fill="#F5A201" opacity="1.000000" stroke="none" 
	d="
M410.050171,405.585327 
	C408.760681,403.852020 407.423828,401.761780 406.073639,399.288361 
	C407.374481,401.012909 408.688660,403.120667 410.050171,405.585327 
z"/>
<path fill="#F5A201" opacity="1.000000" stroke="none" 
	d="
M554.050049,468.585266 
	C552.760559,466.851929 551.423767,464.761719 550.073608,462.288269 
	C551.374390,464.012848 552.688599,466.120575 554.050049,468.585266 
z"/>
<path fill="#F5A201" opacity="1.000000" stroke="none" 
	d="
M406.050171,398.585327 
	C404.760712,396.851990 403.423859,394.761749 402.073639,392.288361 
	C403.374451,394.012939 404.688660,396.120667 406.050171,398.585327 
z"/>
<path fill="#F5A201" opacity="1.000000" stroke="none" 
	d="
M451.050171,476.585327 
	C449.760681,474.852020 448.423828,472.761780 447.073639,470.288361 
	C448.374451,472.012939 449.688629,474.120697 451.050171,476.585327 
z"/>
<path fill="#F5A201" opacity="1.000000" stroke="none" 
	d="
M561.050049,480.585266 
	C559.760559,478.851929 558.423767,476.761688 557.073608,474.288269 
	C558.374390,476.012848 559.688599,478.120575 561.050049,480.585266 
z"/>
<path fill="#F5A201" opacity="1.000000" stroke="none" 
	d="
M399.050171,386.585327 
	C397.760712,384.851990 396.423859,382.761780 395.073639,380.288361 
	C396.374451,382.012939 397.688660,384.120667 399.050171,386.585327 
z"/>
<path fill="#F5A201" opacity="1.000000" stroke="none" 
	d="
M455.050171,483.585327 
	C453.760712,481.851990 452.423859,479.761749 451.073639,477.288361 
	C452.374451,479.012939 453.688660,481.120667 455.050171,483.585327 
z"/>
<path fill="#F5A201" opacity="1.000000" stroke="none" 
	d="
M395.050171,379.585327 
	C393.760681,377.851990 392.423859,375.761780 391.073639,373.288361 
	C392.374451,375.012939 393.688629,377.120697 395.050171,379.585327 
z"/>
<path fill="#F5A201" opacity="1.000000" stroke="none" 
	d="
M391.050171,372.585327 
	C389.760712,370.851990 388.423859,368.761780 387.073639,366.288361 
	C388.374451,368.012939 389.688660,370.120667 391.050171,372.585327 
z"/>
<path fill="#F5A201" opacity="1.000000" stroke="none" 
	d="
M462.050171,495.585327 
	C460.760712,493.851990 459.423859,491.761749 458.073639,489.288361 
	C459.374481,491.012909 460.688660,493.120667 462.050171,495.585327 
z"/>
<path fill="#F5A201" opacity="1.000000" stroke="none" 
	d="
M481.050201,528.585327 
	C479.760681,526.852051 478.423798,524.761841 477.073547,522.288452 
	C478.374420,524.012939 479.688629,526.120667 481.050201,528.585327 
z"/>
<path fill="#F5A201" opacity="1.000000" stroke="none" 
	d="
M587.050171,525.585327 
	C585.760620,523.852051 584.423828,521.761841 583.073608,519.288452 
	C584.374390,521.012939 585.688599,523.120667 587.050171,525.585327 
z"/>
<path fill="#F5A201" opacity="1.000000" stroke="none" 
	d="
M572.050049,499.585266 
	C570.760559,497.851929 569.423767,495.761719 568.073608,493.288269 
	C569.374390,495.012848 570.688599,497.120575 572.050049,499.585266 
z"/>
<path fill="#F5A201" opacity="1.000000" stroke="none" 
	d="
M466.050171,502.585327 
	C464.760681,500.851990 463.423859,498.761780 462.073608,496.288361 
	C463.374451,498.012939 464.688629,500.120697 466.050171,502.585327 
z"/>
<path fill="#F5A201" opacity="1.000000" stroke="none" 
	d="
M477.050232,521.585327 
	C475.760681,519.852051 474.423798,517.761841 473.073547,515.288452 
	C474.374420,517.012939 475.688660,519.120667 477.050232,521.585327 
z"/>
<path fill="#F5A201" opacity="1.000000" stroke="none" 
	d="
M576.050049,506.585266 
	C574.760559,504.851929 573.423767,502.761719 572.073608,500.288269 
	C573.374390,502.012817 574.688599,504.120575 576.050049,506.585266 
z"/>
<path fill="#F5A201" opacity="1.000000" stroke="none" 
	d="
M384.050171,360.585327 
	C382.760681,358.851990 381.423828,356.761780 380.073639,354.288361 
	C381.374481,356.012909 382.688660,358.120667 384.050171,360.585327 
z"/>
<path fill="#F5A201" opacity="1.000000" stroke="none" 
	d="
M583.050171,518.585327 
	C581.760620,516.851990 580.423828,514.761780 579.073608,512.288330 
	C580.374390,514.012878 581.688599,516.120605 583.050171,518.585327 
z"/>
<path fill="#F5A201" opacity="1.000000" stroke="none" 
	d="
M473.050232,514.585327 
	C471.760712,512.851990 470.423859,510.761780 469.073639,508.288361 
	C470.374481,510.012909 471.688690,512.120667 473.050232,514.585327 
z"/>
<path fill="#F5A201" opacity="1.000000" stroke="none" 
	d="
M502.373047,568.930847 
	C501.380219,566.967590 500.714874,564.824158 500.054871,562.293030 
	C500.940338,564.187073 501.820435,566.468933 502.373047,568.930847 
z"/>
<path fill="#F5A201" opacity="1.000000" stroke="none" 
	d="
M87.036819,737.368164 
	C88.241295,738.487610 89.577309,739.914795 90.926521,741.718384 
	C89.682594,740.621826 88.425468,739.148865 87.036819,737.368164 
z"/>
<path fill="#F5A201" opacity="1.000000" stroke="none" 
	d="
M91.037399,742.368896 
	C92.244911,743.493408 93.584518,744.926331 94.940849,746.736938 
	C93.694885,745.635437 92.432198,744.156372 91.037399,742.368896 
z"/>
<path fill="#F5A201" opacity="1.000000" stroke="none" 
	d="
M769.050781,840.597168 
	C768.092834,839.507874 767.087891,838.073059 766.071533,836.271729 
	C767.041321,837.354004 768.022522,838.802856 769.050781,840.597168 
z"/>
<path fill="#F5A201" opacity="1.000000" stroke="none" 
	d="
M713.050781,743.597168 
	C712.092896,742.507874 711.087891,741.073059 710.071533,739.271729 
	C711.041321,740.354004 712.022583,741.802795 713.050781,743.597168 
z"/>
<path fill="#F5A201" opacity="1.000000" stroke="none" 
	d="
M39.008358,322.403259 
	C38.733807,323.954224 38.269920,325.815948 37.486351,327.838776 
	C37.717449,326.237946 38.268238,324.475983 39.008358,322.403259 
z"/>
<path fill="#F5A201" opacity="1.000000" stroke="none" 
	d="
M754.050781,814.597168 
	C753.092834,813.507874 752.087891,812.073059 751.071533,810.271729 
	C752.041321,811.354004 753.022583,812.802795 754.050781,814.597168 
z"/>
<path fill="#F5A201" opacity="1.000000" stroke="none" 
	d="
M402.050903,391.597198 
	C401.092987,390.507874 400.088013,389.073120 399.071655,387.271790 
	C400.041473,388.354065 401.022644,389.802887 402.050903,391.597198 
z"/>
<path fill="#F5A201" opacity="1.000000" stroke="none" 
	d="
M728.050781,769.597168 
	C727.092896,768.507812 726.087891,767.073059 725.071533,765.271729 
	C726.041321,766.354004 727.022522,767.802856 728.050781,769.597168 
z"/>
<path fill="#F5A201" opacity="1.000000" stroke="none" 
	d="
M387.050903,365.597198 
	C386.092987,364.507874 385.088013,363.073120 384.071655,361.271790 
	C385.041473,362.354065 386.022644,363.802887 387.050903,365.597198 
z"/>
<path fill="#F5A201" opacity="1.000000" stroke="none" 
	d="
M484.050873,533.597168 
	C483.092926,532.507874 482.087952,531.073181 481.071594,529.271851 
	C482.041412,530.354065 483.022614,531.802917 484.050873,533.597168 
z"/>
<path fill="#F5A201" opacity="1.000000" stroke="none" 
	d="
M739.050781,788.597168 
	C738.092896,787.507812 737.087891,786.073059 736.071533,784.271729 
	C737.041382,785.354004 738.022583,786.802795 739.050781,788.597168 
z"/>
<path fill="#F5A201" opacity="1.000000" stroke="none" 
	d="
M698.050781,717.597168 
	C697.092896,716.507812 696.087891,715.073059 695.071533,713.271729 
	C696.041382,714.353943 697.022583,715.802795 698.050781,717.597168 
z"/>
<path fill="#F5A201" opacity="1.000000" stroke="none" 
	d="
M590.050781,530.597168 
	C589.092834,529.507874 588.087830,528.073059 587.071533,526.271729 
	C588.041321,527.354004 589.022583,528.802795 590.050781,530.597168 
z"/>
<path fill="#F5A201" opacity="1.000000" stroke="none" 
	d="
M601.050781,549.597168 
	C600.092896,548.507874 599.087891,547.073059 598.071533,545.271729 
	C599.041321,546.354004 600.022583,547.802795 601.050781,549.597168 
z"/>
<path fill="#F5A201" opacity="1.000000" stroke="none" 
	d="
M579.050903,511.597198 
	C578.092896,510.507874 577.087952,509.073090 576.071533,507.271698 
	C577.041382,508.353973 578.022644,509.802856 579.050903,511.597198 
z"/>
<path fill="#F5A201" opacity="1.000000" stroke="none" 
	d="
M469.050873,507.597229 
	C468.092957,506.507904 467.087982,505.073151 466.071655,503.271790 
	C467.041473,504.354065 468.022644,505.802917 469.050873,507.597229 
z"/>
<path fill="#F5A201" opacity="1.000000" stroke="none" 
	d="
M616.050781,575.597168 
	C615.092834,574.507874 614.087891,573.073059 613.071533,571.271729 
	C614.041321,572.354004 615.022583,573.802795 616.050781,575.597168 
z"/>
<path fill="#F5A201" opacity="1.000000" stroke="none" 
	d="
M568.050903,492.597198 
	C567.092957,491.507874 566.087952,490.073090 565.071533,488.271698 
	C566.041443,489.353973 567.022644,490.802856 568.050903,492.597198 
z"/>
<path fill="#F5A201" opacity="1.000000" stroke="none" 
	d="
M627.050781,594.597168 
	C626.092834,593.507874 625.087891,592.073059 624.071533,590.271729 
	C625.041382,591.354004 626.022583,592.802795 627.050781,594.597168 
z"/>
<path fill="#F5A201" opacity="1.000000" stroke="none" 
	d="
M458.050903,488.597198 
	C457.092987,487.507874 456.088013,486.073120 455.071655,484.271790 
	C456.041473,485.354065 457.022644,486.802887 458.050903,488.597198 
z"/>
<path fill="#F5A201" opacity="1.000000" stroke="none" 
	d="
M642.050781,620.597168 
	C641.092834,619.507874 640.087830,618.073120 639.071533,616.271729 
	C640.041321,617.354004 641.022583,618.802795 642.050781,620.597168 
z"/>
<path fill="#F5A201" opacity="1.000000" stroke="none" 
	d="
M557.050903,473.597198 
	C556.092896,472.507874 555.087952,471.073090 554.071533,469.271698 
	C555.041382,470.353973 556.022644,471.802856 557.050903,473.597198 
z"/>
<path fill="#F5A201" opacity="1.000000" stroke="none" 
	d="
M657.050781,646.597168 
	C656.092834,645.507874 655.087830,644.073059 654.071533,642.271729 
	C655.041382,643.353943 656.022583,644.802795 657.050781,646.597168 
z"/>
<path fill="#F5A201" opacity="1.000000" stroke="none" 
	d="
M447.050903,469.597198 
	C446.092987,468.507904 445.087982,467.073120 444.071655,465.271790 
	C445.041504,466.354034 446.022675,467.802887 447.050903,469.597198 
z"/>
<path fill="#F5A201" opacity="1.000000" stroke="none" 
	d="
M550.051025,461.606445 
	C549.303772,460.779144 548.510193,459.616119 547.912231,458.202393 
	C548.740173,459.058044 549.372375,460.164368 550.051025,461.606445 
z"/>
<path fill="#F5A201" opacity="1.000000" stroke="none" 
	d="
M672.050781,672.597168 
	C671.092834,671.507874 670.087891,670.073059 669.071533,668.271729 
	C670.041321,669.354004 671.022583,670.802795 672.050781,672.597168 
z"/>
<path fill="#F5A201" opacity="1.000000" stroke="none" 
	d="
M683.050781,691.597168 
	C682.092834,690.507874 681.087830,689.073120 680.071533,687.271729 
	C681.041321,688.354004 682.022522,689.802795 683.050781,691.597168 
z"/>
<path fill="#F5A201" opacity="1.000000" stroke="none" 
	d="
M432.050903,443.597198 
	C431.092987,442.507904 430.087982,441.073120 429.071655,439.271790 
	C430.041473,440.354034 431.022644,441.802887 432.050903,443.597198 
z"/>
<path fill="#F5A201" opacity="1.000000" stroke="none" 
	d="
M417.050903,417.597198 
	C416.092987,416.507904 415.087982,415.073120 414.071655,413.271790 
	C415.041473,414.354065 416.022644,415.802917 417.050903,417.597198 
z"/>
<path fill="#F5A201" opacity="1.000000" stroke="none" 
	d="
M247.047913,187.750183 
	C246.461746,188.010971 245.879471,188.134659 245.297195,188.258331 
	C245.602966,187.823120 245.908737,187.387909 246.523926,186.894653 
	C246.970016,187.071152 247.042847,187.329971 247.047913,187.750183 
z"/>
<path fill="#F5A201" opacity="1.000000" stroke="none" 
	d="
M41.013088,317.404968 
	C41.039459,317.961731 40.896339,318.799652 40.459938,319.818726 
	C40.392303,319.228638 40.617954,318.457397 41.013088,317.404968 
z"/>
<path fill="#F5A201" opacity="1.000000" stroke="none" 
	d="
M43.013084,312.404968 
	C43.039452,312.961731 42.896332,313.799652 42.459934,314.818726 
	C42.392303,314.228638 42.617950,313.457397 43.013084,312.404968 
z"/>
<path fill="#F5A201" opacity="1.000000" stroke="none" 
	d="
M45.013084,307.404968 
	C45.039455,307.961731 44.896339,308.799652 44.459938,309.818726 
	C44.392303,309.228638 44.617950,308.457397 45.013084,307.404968 
z"/>
<path fill="#F5A201" opacity="1.000000" stroke="none" 
	d="
M47.013092,302.404968 
	C47.039448,302.961731 46.896332,303.799652 46.459938,304.818726 
	C46.392315,304.228638 46.617962,303.457397 47.013092,302.404968 
z"/>
<path fill="#F5A201" opacity="1.000000" stroke="none" 
	d="
M51.013092,293.404968 
	C51.039452,293.961731 50.896332,294.799652 50.459942,295.818726 
	C50.392319,295.228638 50.617970,294.457397 51.013092,293.404968 
z"/>
<path fill="#F5A201" opacity="1.000000" stroke="none" 
	d="
M783.291016,869.020020 
	C783.038879,868.913269 783.034973,868.712524 783.044495,868.210510 
	C783.218384,868.248108 783.378845,868.587036 783.291016,869.020020 
z"/>
<path fill="#000000" opacity="1.000000" stroke="none" 
	d="
M258.971191,322.295776 
	C265.852722,346.952545 259.915466,367.910431 242.050049,385.281372 
	C232.770691,394.303894 221.345566,399.224701 208.286728,401.176361 
	C192.439484,403.544861 178.396088,399.231537 165.750122,390.733002 
	C152.434402,381.784393 144.173981,368.753204 141.028580,352.843048 
	C137.477325,334.879883 140.948822,318.173431 152.172760,303.793854 
	C163.449188,289.347046 178.197861,280.797760 197.168335,279.870636 
	C213.968719,279.049622 228.438477,284.513000 241.031815,294.817963 
	C248.233124,300.710693 253.463257,308.620789 256.998901,317.424530 
	C257.603088,318.929016 258.295959,320.397858 258.971191,322.295776 
z"/>
<path fill="#000000" opacity="1.000000" stroke="none" 
	d="
M149.277740,650.698853 
	C136.829315,645.619202 128.752548,636.360229 122.235062,625.538879 
	C116.739639,616.414490 114.154251,606.090881 114.280334,595.755432 
	C114.512749,576.704895 122.384605,560.528870 137.250580,548.465820 
	C149.302032,538.686584 163.486984,533.945679 179.098282,535.074463 
	C199.616425,536.558044 215.483322,546.181458 226.860229,563.428162 
	C235.234512,576.122986 237.554932,590.249146 235.794632,604.778625 
	C233.899765,620.418640 226.003891,633.517639 213.834488,643.482605 
	C202.091171,653.098633 188.235397,658.126526 173.014908,656.768188 
	C165.095520,656.061401 157.390289,652.954956 149.277740,650.698853 
z"/>
<path fill="#000000" opacity="1.000000" stroke="none" 
	d="
M687.277161,194.031219 
	C710.905945,188.521606 730.984070,194.824051 747.052429,211.801056 
	C769.333435,235.342087 768.618958,272.670013 746.056458,295.547699 
	C731.922974,309.878632 714.850891,315.827698 695.246704,313.821991 
	C683.310913,312.600769 672.583252,307.646851 663.129456,299.782349 
	C651.557190,290.155487 644.536987,277.844757 642.451050,263.392181 
	C640.420410,249.322021 641.895752,235.411148 649.736389,222.600021 
	C658.553650,208.193283 671.093750,199.162399 687.277161,194.031219 
z"/>
</svg>